<svg width="6818" height="1386" viewBox="0 0 6818 1386" fill="none" xmlns="http://www.w3.org/2000/svg">
<path d="M0 1383.28L521.568 521.801H806.673L496.126 1014.08L523.066 1070.69H777.49L1001.98 263.357L518.577 259.255L617.352 0.811035L1250.42 3.27231L1315.52 74.6517V180.491L1028.17 1385.74L0.747895 1383.28H0Z" fill="white"/>
<path d="M2295.81 263.351L1867.78 1385.74L1317.77 1384.1C1303.56 1384.1 1289.34 1383.28 1273.62 1380.81C1258.66 1378.35 1244.44 1373.43 1232.47 1366.05C1220.49 1358.66 1210.02 1347.18 1202.53 1333.23C1195.05 1319.28 1192.06 1300.41 1192.81 1277.44L1419.54 683.425H1640.29C1617.1 745.78 1596.89 799.93 1578.93 846.697C1560.97 893.463 1545.26 934.486 1532.54 968.945C1519.82 1003.4 1509.34 1032.94 1502.61 1056.73C1495.12 1080.53 1489.89 1100.22 1486.89 1115.81C1483.9 1131.4 1482.4 1142.88 1483.9 1151.91C1485.39 1160.11 1487.64 1166.67 1492.88 1170.78C1497.37 1174.88 1504.1 1177.34 1512.33 1177.34C1520.57 1177.34 1530.29 1178.16 1542.27 1178.98L1694.92 1177.34L2039.89 261.71H2296.56L2295.81 263.351ZM1724.85 472.568H1505.6L1579.68 263.351H1798.93L1724.85 472.568Z" fill="white"/>
<path d="M2076.56 1385.75L2342.96 682.614H2563.71L2295.06 1385.75H2076.56ZM2812.89 471.757H2225.47L2301.8 260.898H2895.2L2812.89 471.757Z" fill="white"/>
<path d="M3183.32 260.898H3335.23C3354.69 260.898 3374.14 263.36 3392.1 267.462C3410.06 272.385 3426.52 278.129 3442.24 287.154C3457.2 295.358 3471.42 306.023 3483.4 318.33C3495.37 330.637 3506.59 344.585 3515.57 359.353C3524.55 374.942 3532.03 391.351 3538.02 408.581C3544.01 425.811 3547 444.681 3548.5 464.372C3549.99 484.063 3548.5 503.754 3546.25 525.086C3543.26 546.418 3538.02 567.75 3530.54 589.081L3367.41 1060.02C3359.92 1081.36 3350.94 1102.69 3339.72 1123.2C3328.5 1143.71 3316.52 1164.22 3303.05 1183.09C3289.58 1202.78 3274.62 1220.83 3258.15 1238.06C3241.69 1255.29 3224.48 1270.88 3207.27 1286.47C3189.31 1301.24 3170.6 1314.37 3151.15 1326.67C3131.69 1338.16 3111.49 1348.01 3091.28 1356.21C3071.08 1364.41 3050.87 1370.98 3029.92 1375.08C3009.72 1379.18 2989.51 1381.64 2969.31 1381.64H2817.4C2797.95 1381.64 2778.49 1379.18 2760.53 1375.08C2742.57 1370.16 2726.11 1364.41 2710.39 1356.21C2695.43 1348.01 2681.96 1338.16 2669.99 1325.85C2658.01 1313.55 2647.54 1300.42 2639.31 1285.65C2630.33 1270.88 2623.59 1254.47 2619.1 1238.06C2613.86 1220.83 2611.62 1202.78 2610.12 1183.91C2609.37 1165.04 2610.12 1145.35 2613.12 1124.02C2616.11 1103.51 2621.35 1082.18 2628.83 1060.84L2768.02 685.075H2935.63L2825.63 1009.98C2818.15 1040.33 2815.16 1065.77 2815.91 1085.46C2816.65 1105.15 2820.39 1122.38 2827.13 1135.51C2833.86 1149.45 2842.85 1160.12 2854.07 1169.15C2865.29 1178.17 2878.02 1186.37 2892.23 1193.76C2910.94 1194.58 2930.4 1195.4 2949.1 1195.4C2967.81 1195.4 2987.27 1196.22 3005.98 1197.04C3022.44 1195.4 3037.4 1192.12 3050.13 1188.02C3063.6 1183.91 3074.82 1178.99 3084.55 1173.25C3094.28 1167.5 3103.26 1160.94 3110.74 1154.38C3118.22 1147.81 3124.96 1140.43 3130.94 1132.22C3136.93 1124.02 3142.17 1115.82 3146.66 1106.79C3151.15 1097.77 3155.64 1088.74 3158.63 1079.71C3162.37 1070.69 3166.11 1061.66 3169.11 1052.64L3178.83 1025.57L3310.54 670.307C3321.01 639.95 3326.25 613.695 3326.25 591.543C3326.25 570.211 3321.76 551.341 3313.53 535.752C3305.3 520.164 3294.07 507.036 3280.61 498.011C3267.14 488.165 3252.17 480.782 3235.71 474.218C3227.48 473.397 3219.24 472.577 3211.76 472.577C3204.28 472.577 3196.05 472.577 3188.56 472.577C3181.08 472.577 3173.6 472.577 3166.11 472.577C3158.63 472.577 3151.15 473.397 3143.66 474.218C3134.68 474.218 3127.2 474.217 3121.22 475.858C3115.23 476.678 3109.99 477.5 3104 479.14C3098.02 480.781 3092.78 482.422 3087.54 484.883C3082.3 487.344 3075.57 490.627 3068.08 494.729L2837.61 496.369C2843.59 487.344 2849.58 476.679 2857.06 465.193C2864.55 453.706 2872.03 441.399 2881.76 428.271C2891.48 415.964 2901.21 402.838 2912.44 389.711C2923.66 376.584 2936.38 364.276 2949.85 351.969C2964.07 339.662 2979.04 328.175 2995.5 316.689C3011.96 305.203 3029.92 295.358 3049.38 287.974C3068.83 279.769 3089.04 273.206 3110.74 269.104C3132.44 265.001 3156.39 262.54 3181.83 262.54L3183.32 260.898Z" fill="white"/>
<path d="M3644.17 1385.75L3579.82 1329.96L3652.4 1140.44H4138.05C4162 1141.26 4185.2 1140.44 4209.14 1136.33C4232.34 1133.05 4254.79 1127.31 4276.49 1119.1C4298.19 1111.72 4317.65 1101.87 4335.61 1090.39C4353.57 1078.9 4369.28 1066.59 4382 1052.65C4394.72 1038.7 4404.45 1023.11 4411.19 1006.7C4417.92 990.291 4420.17 972.241 4418.67 954.191C4417.17 935.321 4410.44 916.45 4399.96 897.579C4389.49 878.709 4372.27 858.198 4351.32 837.686C4334.86 825.38 4319.89 813.073 4307.17 802.407C4294.45 791.741 4281.73 781.896 4270.5 772.871C4259.28 763.846 4248.05 754.82 4237.58 746.616C4227.1 738.411 4217.37 729.386 4207.65 722.002C4197.92 713.797 4188.94 705.593 4179.96 697.389C4170.98 689.184 4161.25 680.159 4152.27 670.314C4142.54 660.468 4132.82 649.802 4122.34 638.316C4111.86 626.829 4100.64 614.522 4088.67 601.394C4072.2 586.626 4057.98 566.935 4046.01 541.501C4034.04 516.067 4025.06 488.171 4019.82 457.814C4014.58 427.457 4010.84 394.639 4010.84 359.36C4010.84 324.08 4014.58 290.441 4021.32 256.802C4028.05 223.164 4039.28 190.345 4053.5 159.168C4067.71 127.99 4086.42 100.915 4108.12 77.122C4129.82 53.3287 4156.76 35.2792 4187.44 21.3314C4218.12 7.38367 4253.29 0 4292.95 0H4774.86L4678.33 259.264H4376.01C4362.55 260.084 4350.57 262.546 4339.35 265.827C4328.12 269.109 4317.65 274.032 4307.92 279.775C4298.19 285.518 4289.96 291.262 4282.48 298.646C4274.99 306.031 4269.01 314.234 4265.26 323.259C4261.52 332.284 4258.53 341.31 4257.03 351.156C4255.54 361.001 4257.03 370.847 4258.53 380.692C4260.03 390.538 4266.01 401.203 4272.75 411.869C4279.48 422.535 4289.21 433.201 4300.44 443.867L4557.11 665.39C4588.53 698.208 4613.23 731.027 4632.68 765.486C4652.14 799.945 4664.86 834.405 4673.09 868.864C4681.32 903.323 4685.07 938.602 4683.57 973.061C4682.07 1007.52 4676.83 1041.98 4666.36 1074.8C4655.88 1107.62 4641.66 1139.62 4623.7 1169.97C4605.74 1200.33 4584.04 1229.05 4558.6 1256.12C4533.16 1282.37 4505.47 1306.99 4474.04 1329.14C4442.61 1351.29 4409.69 1370.16 4374.52 1384.93H3643.42L3644.17 1385.75Z" fill="white"/>
<path d="M5199.2 260.898H5351.1C5370.56 260.898 5390.02 263.36 5407.98 267.462C5425.94 272.385 5442.4 278.129 5458.11 287.154C5473.08 295.358 5487.3 306.023 5499.27 318.33C5511.24 330.637 5522.47 344.585 5531.45 359.353C5540.43 374.942 5547.91 391.351 5553.89 408.581C5559.88 425.811 5562.88 444.681 5564.37 464.372C5565.87 484.063 5564.37 503.754 5562.13 525.086C5559.13 546.418 5553.9 567.75 5546.41 589.081L5383.28 1060.02C5375.8 1081.36 5366.82 1102.69 5355.59 1123.2C5344.37 1143.71 5332.4 1164.22 5318.18 1183.09C5304.71 1202.78 5289.74 1220.83 5273.28 1238.06C5256.82 1255.29 5239.61 1270.88 5222.4 1286.47C5204.44 1301.24 5185.73 1314.37 5166.27 1326.67C5146.82 1338.16 5126.61 1348.01 5106.41 1356.21C5086.2 1364.41 5066 1370.98 5045.05 1375.08C5024.84 1379.18 5004.64 1381.64 4984.43 1381.64H4832.53C4813.07 1381.64 4793.62 1379.18 4775.66 1375.08C4757.7 1370.16 4741.24 1364.41 4725.52 1356.21C4710.56 1348.01 4697.09 1338.16 4685.11 1325.85C4673.14 1313.55 4662.66 1300.42 4654.43 1285.65C4645.45 1270.88 4638.72 1254.47 4634.23 1238.06C4628.99 1220.83 4626.75 1202.78 4625.25 1183.91C4624.5 1165.04 4625.25 1145.35 4628.24 1124.02C4631.23 1103.51 4636.47 1082.18 4643.96 1060.84L4783.14 685.075H4950.76L4840.76 1009.98C4833.28 1040.33 4830.28 1065.77 4831.03 1085.46C4831.78 1105.15 4835.52 1122.38 4842.26 1135.51C4848.99 1149.45 4857.97 1160.12 4869.19 1169.15C4880.42 1178.17 4893.14 1186.37 4907.36 1193.76C4926.07 1194.58 4944.78 1195.4 4964.23 1195.4C4982.94 1195.4 5001.65 1196.22 5021.1 1197.04C5037.56 1195.4 5052.53 1192.12 5065.25 1188.02C5078.72 1183.91 5089.95 1178.99 5099.67 1173.25C5109.4 1167.5 5118.38 1160.94 5125.86 1154.38C5133.35 1147.81 5140.83 1140.43 5146.07 1132.22C5152.06 1124.02 5157.29 1115.82 5161.78 1106.79C5166.27 1097.77 5170.76 1088.74 5174.51 1079.71C5178.25 1070.69 5181.99 1061.66 5184.98 1052.64L5194.71 1025.57L5326.41 670.307C5336.89 639.95 5342.12 613.695 5342.12 591.543C5342.12 569.39 5337.63 551.341 5329.4 535.752C5321.17 520.164 5309.95 507.036 5296.48 498.011C5283.01 488.165 5268.04 480.782 5251.58 474.218C5243.35 473.397 5235.12 472.577 5227.63 472.577C5220.15 472.577 5211.92 472.577 5205.19 472.577C5197.7 472.577 5190.22 472.577 5182.74 472.577C5175.25 472.577 5167.77 473.397 5160.29 474.218C5151.31 474.218 5143.82 474.217 5137.84 475.858C5131.85 476.678 5126.61 477.5 5120.63 479.14C5114.64 480.781 5109.4 482.422 5104.16 484.883C5098.93 487.344 5092.19 490.627 5084.71 494.729L4854.23 496.369C4860.22 487.344 4866.2 476.679 4873.68 465.193C4880.42 453.706 4888.65 441.399 4898.38 428.271C4908.11 415.964 4917.84 402.838 4929.06 389.711C4940.29 376.584 4953.01 364.276 4966.48 351.969C4980.69 339.662 4995.66 328.175 5012.12 316.689C5028.58 305.203 5046.54 295.358 5066 287.974C5085.46 279.769 5105.66 273.206 5127.36 269.104C5149.06 265.001 5173.01 262.54 5198.45 262.54L5199.2 260.898Z" fill="white"/>
<path d="M5322.72 1385.75L5298.03 1352.93L5556.94 682.614H6093.48L6007.42 893.472L5689.39 891.009L5504.56 1385.75H5323.47H5322.72ZM5631.03 471.757L5711.09 260.898H6245.39L6169.06 471.757H5631.03Z" fill="white"/>
<path d="M5999.22 1385.75L6265.62 682.614H6486.37L6217.73 1385.75H5999.22ZM6735.56 471.757H6148.14L6224.47 260.898H6817.87L6735.56 471.757Z" fill="white"/>
</svg>
