<?xml version="1.0" encoding="UTF-8"?>
<svg id="Layer_1" data-name="Layer 1" xmlns="http://www.w3.org/2000/svg" version="1.1" viewBox="0 0 125 96">
  <defs>
    <style>
      .cls-1 {
        fill: #fff;
        stroke-width: 0px;
      }
    </style>
  </defs>
  <path class="cls-1" d="M35.6,41.6c-1.7-2.3-4.5-3.6-7.4-3.5H0v4.7h28.1c1,0,1.9.2,2.7.8.7.6,1,1.6.6,2.5-.5,1.4-1.9,1.7-3.3,1.7H0v4.6h28.1c1.7,0,3.4.6,3.4,2.5s-1.8,2.5-3.4,2.5H0v4.6h28.2c2.9.1,5.7-1.2,7.4-3.5,1.8-2.7,1.4-6.3-1-8.5,2.3-2.2,2.7-5.7,1-8.4Z"/>
  <path class="cls-1" d="M120.3,40.8c-2.8-1.9-6.1-2.8-9.4-2.7-2.7,0-6.9,0-10.5-.1h-12.1v4.7c9.1,0,15.3,0,22.4.1,2.2,0,4.3.5,6.1,1.6,3.1,2.1,3.9,6.3,1.8,9.4-.5.7-1.1,1.3-1.8,1.8-1.9,1.2-4,1.7-6.2,1.7-7,.2-13.4.1-22.4.1v4.6c9.1,0,15.7,0,22.6-.1,3.3.1,6.6-.8,9.4-2.6,5.1-3.6,6.3-10.7,2.7-15.8-.7-1.1-1.7-2-2.7-2.7h0Z"/>
  <path class="cls-1" d="M50.8,48.5c-2.4,0-3.2-.8-3.2-3.2s0-4.9,0-7.2h-5.4v9.2c.2,4.4,1.6,5.7,6.1,5.9h9.8v-4.7h-7.3Z"/>
  <path class="cls-1" d="M77.4,45.2c0,2.4-.8,3.1-3.2,3.2h-13.6v13.7h6.3v-8.9h9.5c4.7-.1,6.2-1.5,6.3-5.9v-9.2h-5.3c0,2.3,0,4.9,0,7.2Z"/>
</svg>