<?xml version="1.0" encoding="UTF-8"?>
<svg id="Layer_1" data-name="Layer 1" xmlns="http://www.w3.org/2000/svg" version="1.1" viewBox="0 0 125 96">
  <defs>
    <style>
      .cls-1 {
        fill: #fff;
        stroke-width: 0px;
      }
    </style>
  </defs>
  <path class="cls-1" d="M124.9,36.8v5.8h-29.4v-7.5c0-.6-.3-.9-.9-1v-.2c1.1,0,2.1-.4,2.9-1.2h.2l-.2,2v5.9h25.2v-1.7h-8.1v-3.5l6.4-2.7.3.6-4.7,3.2v.3h8.2ZM54.5,40.6v-.5c-.1-.5-.2-.9-.4-1.4-.8.1-1.3.7-1.5,1.8h2ZM82.1,37.8v-2c-1.3.2-2,.7-2,1.4s.3.7.8.7h1.2ZM84.3,42.6h-27.8v.5c-.3.8-.7,1.5-1.4,1.9-.7.5-1.4.7-2.2.7-.9,0-1.7-.2-2.4-.8-.7-.5-1.2-1.4-1.4-2.4h.4c.2.5.5,1,1,1.3.9.7,2.2.7,3.1,0,.5-.3.7-.8.8-1.4h-3.9v-1.3s.1-1.3.1-1.3c.1-.7.4-1.3.8-1.9.4-.4.9-.7,1.4-1,.7-.3,1.4-.5,2.1-.7.8.7,1.3,2.1,1.6,3.9h0c0,.1,25.7.1,25.7.1v-.7h-1.7c-.6,0-1.2-.2-1.7-.6-.5-.4-.8-1-.8-1.6,0-1,.7-1.9,2-2.7,1.3-.7,2.7-1.1,4.4-1.1v8.8ZM91.6,38v-.7c-.7,1.1-1.7,1.9-2.9,2.1v.2c.5,0,1,.3,1.4.7.3.4.5.9.5,1.5,0,.8-.3,1.4-.8,1.9-.5.5-1.2.8-1.9.7-.8,0-1.6-.2-2.2-.7.3.6.7,1.1,1.3,1.4.6.4,1.4.6,2.1.6s1.9-.4,2.6-1.1c.8-.8,1.2-1.9,1.2-3.1s-.2-1.5-.6-2.3l-.7-1.4ZM46.9,38v-.7c-.7,1.1-1.7,1.9-2.9,2.1v.2c.5,0,1,.3,1.4.7.4.4.5.9.5,1.5,0,.7-.3,1.4-.8,1.9s-1.2.8-1.9.7c-.8,0-1.5-.2-2.1-.7.2.6.7,1.1,1.2,1.4.6.4,1.4.6,2.1.6s1.9-.4,2.6-1.1c.8-.9,1.2-2,1.2-3.1,0-.7-.2-1.4-.7-2.3l-.6-1.4ZM95.6,42.6h29.4M79.1,33.6h0c.3,0,.6-.1.8-.3.2-.2.3-.5.3-.7,0-.3-.1-.5-.3-.7-.2-.2-.5-.3-.8-.3-.3,0-.5.1-.7.3-.2.2-.3.4-.4.7,0,.3.1.6.4.8.2.2.5.3.7.3M100.4,53c1.4,0,2.6.5,3.5,1.3.9.8,1.4,2,1.4,3.4,0,1.3-.5,2.6-1.4,3.5-1,.9-2.2,1.4-3.5,1.3h0c-1.3,0-2.5-.5-3.5-1.3-.9-.9-1.5-2.2-1.4-3.5,0-2.8,2.3-4.7,5-4.7M100.4,61.1c1.3,0,2.2-1.1,2.2-3.2,0-1.1-.2-2-.7-2.6-.4-.6-1-.9-1.6-.9-1.3,0-2.2,1.1-2.2,3.1,0,2.5,1.1,3.6,2.2,3.6M123.4,53.1c-.8,0-1.6.5-2.2,1.4-.2-.7-.6-1.2-1.4-1.2s-.4,0-.7.1c-.6.2-1.5.6-1.5,1.3,0,.1,0,.3,0,.4h0c0,0,0,0,0,0,.1,0,.3,0,.4,0,.6,0,.7.2.7.9v3.8c0,.7-.1,1-.3,1.2-.2.1-.4.2-.6.3h0c0,.2-.1.3-.1.5,0,.3.3.5.7.6.6.1,1.2.2,1.8.2.8,0,1.4,0,1.7-.1s.6-.3.6-.6,0-.3-.1-.5h0s0,0,0,0c-.2,0-.6-.1-.9-.3s-.3-.5-.3-1.2v-2.3c0-1.9.6-2.4,1.1-2.6.1.6.7.9,1.2.9.7,0,1.3-.6,1.3-1.3h0c0-.9-.8-1.4-1.6-1.4M69.7,53.1c-.8,0-1.6.5-2.2,1.4-.2-.7-.6-1.2-1.4-1.2s-.4,0-.6.1c-.6.2-1.5.6-1.5,1.3,0,.1,0,.3,0,.4h0c0,0,0,0,0,0,.1,0,.3,0,.4,0,.6,0,.7.2.7.9v3.8c0,.7-.1,1-.3,1.2-.2.1-.4.2-.7.3h0c0,.2-.1.3-.1.5,0,.3.3.5.7.6.6.1,1.2.2,1.8.2.8,0,1.4,0,1.7-.1s.6-.3.6-.6c0-.1,0-.3-.1-.4h0s0,0,0,0c-.2,0-.6-.1-.9-.3s-.4-.5-.4-1.2v-2.3c0-1.9.7-2.4,1.1-2.6.1.6.6.9,1.2.9.7,0,1.3-.6,1.3-1.3h0c0-.9-.7-1.4-1.5-1.4M116.8,60.8h-.3c-.7,0-.9-.3-1-1,0-.2,0-.7,0-1.7,0-2.5,0-3,0-3.4,0-.4-.1-.8-.3-1.1-.2-.3-.6-.4-1.1-.4s-.4,0-.6,0c-.6.1-1.7.6-1.7,1.4,0,.1,0,.2,0,.4h0c0,0,0,0,0,0,0,0,.2,0,.3,0,.7,0,.9.2.9.9v2.4c0,.6-.1,1.2-.4,1.7s-.7.8-1.5.8-1.1-.2-1.3-.7c-.2-.5-.3-1.3-.3-2.4v-2.9c0-.4,0-.8-.3-1.1-.2-.3-.6-.4-1.1-.4s-.4,0-.6,0c-.6.1-1.7.6-1.7,1.4,0,.1,0,.2,0,.4h0c0,0,0,0,0,0,0,0,.2,0,.3,0,.7,0,.9.2.9.9v1.7c0,1.7,0,3,.9,4,.6.6,1.4,1,2.5,1s1.7-.3,2.4-.9c.2-.1.3-.3.4-.4,0,.3.2.6.4.9.2.3.5.4,1,.4h0c.2,0,.4,0,.6,0,.6-.1,1.7-.4,1.7-1.2,0-.1,0-.2,0-.4h0ZM87.7,57.8h-6c.1,1.6,1.2,2.8,3.1,2.8s2.1-.6,2.4-1h0c0,0,0,0,0,0,.2.2.4.5.4.7,0,1-1.2,2.2-3.8,2.2-2.6,0-4.8-2-4.8-4.6,0-1.4.5-2.7,1.4-3.6s2.1-1.4,3.6-1.4,2.3.5,3,1.1c.6.6,1,1.5,1,2.4s-.1.9-.3,1.3h0ZM85.6,56.4c0-.1,0-.2,0-.3,0-.9-.7-1.7-1.8-1.7s-1.9,1-2,2.1h3.5c.2,0,.2,0,.3,0M95,53.3h-2.4v-1.4c0-.5,0-1,.3-1.3.2-.3.5-.5,1.1-.5.3,0,.6,0,.9.2-.1.2-.2.4-.2.7,0,.6.6,1.2,1.2,1.2.7,0,1.2-.5,1.3-1.2h0c0-1.4-1.5-2.2-3.4-2.2s-2.4.6-3,1.4c-.4.5-.6,1.3-.6,2.6v.6h-.6c-.5,0-.9.3-.9.8s0,.3.1.5h0c0,0,1.4.1,1.4.1v5c0,.7-.1,1-.3,1.2-.2.1-.4.2-.6.3h0c0,.2-.1.3-.1.5,0,.3.3.5.7.6.6.1,1.2.2,1.8.2.6,0,1.3,0,1.9-.2.4-.1.7-.3.7-.7s0-.3-.1-.4h0s0,0,0,0c-.2,0-.8-.1-1-.3-.2-.2-.4-.5-.4-1.2v-5c.3,0,.7,0,1.1,0s.4,0,.5,0c.5,0,.9-.4.9-.9s0-.3-.1-.5h0ZM77.7,53.1c-.8,0-1.7.5-2.2,1.4-.2-.7-.6-1.2-1.4-1.2s-.4,0-.6.1c-.6.2-1.5.6-1.5,1.3,0,.1,0,.3,0,.4h0c0,0,0,0,0,0,.1,0,.3,0,.4,0,.6,0,.7.2.7.9v3.8c0,.7-.1,1-.3,1.2-.2.1-.4.2-.6.3h0c0,.2-.1.3-.1.5,0,.3.3.5.7.6.6.1,1.2.2,1.8.2.8,0,1.4,0,1.7-.1s.6-.3.6-.6,0-.3-.1-.4h0s0,0,0,0c-.2,0-.6-.1-.9-.3-.2-.2-.4-.5-.4-1.2v-2.3c0-1.9.7-2.4,1.1-2.6.1.6.6.9,1.2.9.7,0,1.3-.6,1.3-1.3h0c0-1-.8-1.4-1.6-1.4M50.9,57.2c-.4,0-.8.1-1.1.4-.3.3-.5.7-.4,1.1,0,.4.2.8.5,1.1-.4.6-1.1,1.2-2.4,1.2s-1.9-.5-2.5-1.4c-.6-.9-1-2.2-1-3.7s.4-2.8,1-3.7c.6-.9,1.5-1.4,2.5-1.4s2,.5,2.4,1.2c-.3.3-.5.7-.5,1.1,0,.4.1.8.4,1.1.3.2.7.4,1.1.4.8,0,1.4-.7,1.4-1.6,0-1.7-2.1-3.7-5-3.7s-3.2.7-4.3,1.9c-1.1,1.2-1.9,2.9-1.9,4.8s.7,3.7,1.9,4.9,2.7,1.8,4.4,1.7c2.9,0,5-2,5-3.7,0-.9-.6-1.6-1.4-1.6M61.9,60.1c0,.6.4.8,1.2.9h.1c0,1-.7,1.4-1.5,1.4h-.2c-.7,0-1.4-.4-1.7-1-.5.4-1.5,1-2.8,1-2,0-3.4-1.3-3.4-3,0-.9.4-1.7,1.1-2.1.7-.5,1.7-.8,2.8-.8s1.3.1,2,.3v-1c0-1-.4-1.6-1.6-1.6-.4,0-.8,0-1.1.2,0,.1,0,.3,0,.4,0,.3-.1.6-.3.9-.2.2-.6.4-.9.4-.7,0-1.2-.5-1.2-1.2h0c0-1.3,1.6-2.1,3.7-2.1s2.7.4,3.3,1.1c.5.6.5,1.5.5,2.8v3.4M59.6,58.7c0-.2-.1-.4-.4-.5-.4-.2-.7-.3-1.2-.3-1.1,0-1.8.5-1.8,1.4s.6,1.5,1.6,1.5c.7,0,1.3-.3,1.7-.8v-1.3h0ZM15.6,34.5c-.8.2-1.5.6-2.2,1.1-3.9,2.4-5.6,6.8-5.7,11,0,.2,0,.5,0,.7h0v15.3h5v-15.1c0-.9.4-1.8,1.1-2.4l2,2.4,2-2.4c.7.6,1.1,1.5,1.1,2.4v15.1h5v-15.1c0-4.5-3.6-8.1-8.1-8.1-1,0-2,.2-3,.6h0c1-1.2,2.6-1.8,4.3-1.8h0c.5,0,1.1,0,1.6.1,4.4.7,7.8,4.4,7.8,8.9s0,.3,0,.5v14.9h5v-15c0-6.5-3.9-11.7-10.6-13.3-.2,0-.6-.1-1-.2-.5,0-1-.1-1.5-.1-.9,0-1.9.2-2.7.5"/>
  <path class="cls-1" d="M14.7,33.8c-8.6,0-14.7,5.8-14.7,13.5v15.2h5v-15.3c0-7.2,5.4-12.3,10.9-13.4.2,0,.5-.1.2-.1h-1.5Z"/>
</svg>