<svg width="514" height="89" viewBox="0 0 514 89" fill="none" xmlns="http://www.w3.org/2000/svg">
<g clip-path="url(#clip0_6_15532)">
<path d="M160.727 81.9596C156.394 85.5513 150.329 87.778 142.777 87.778C124.454 87.778 111.578 74.902 111.578 55.7151C111.578 36.5282 124.454 23.8984 142.777 23.8984C150.576 23.8984 156.52 26.1279 160.727 29.9658V24.7656H175.584V86.6647H160.727V81.9596ZM143.518 74.1607C153.916 74.1607 160.727 67.352 160.727 55.8382C160.727 44.3245 153.918 37.5158 143.518 37.5158C133.118 37.5158 126.435 44.3245 126.435 55.8382C126.435 67.352 133.243 74.1607 143.518 74.1607Z" fill="white"/>
<path d="M204.98 29.8218C210.181 26.3211 216.494 24.2656 223.675 24.2656C241.007 24.2656 250.663 36.2236 250.663 53.7351V86.7053H235.807V53.7351C235.807 44.9192 232.587 38.156 223.054 38.156C220.206 38.156 217.731 38.7582 215.378 39.8475C220.455 47.2128 223.3 56.5132 223.3 66.0545C223.3 79.4604 217.605 88.5172 205.227 88.5172C192.848 88.5172 187.027 79.5808 187.027 66.1749C187.027 57.2385 189.626 47.8177 194.703 40.2088C192.597 39.2426 190.121 38.6377 187.646 38.6377V24.75C194.208 24.75 200.026 26.6824 204.978 29.8218H204.98ZM199.898 66.6406C199.898 71.1262 200.693 77.9322 205.066 77.9322C209.439 77.9322 210.435 70.6632 210.435 66.1776C210.435 60.2815 208.717 54.3828 205.596 48.9846C205.323 48.5109 204.445 48.5242 204.191 49.0033C201.274 54.5514 199.895 60.5973 199.895 66.6433L199.898 66.6406Z" fill="white"/>
<path d="M292.139 23.8946C299.938 23.8946 305.882 26.124 310.089 29.962V0H324.946V86.6609H310.089V81.5865C305.879 85.4244 299.938 87.7769 292.139 87.7769C273.816 87.7769 260.94 74.9009 260.94 55.714C260.94 36.5271 273.816 23.8973 292.139 23.8973V23.8946ZM292.883 74.1569C303.281 74.1569 310.092 67.3482 310.092 55.8344C310.092 44.3207 303.283 37.512 292.883 37.512C282.483 37.512 275.8 44.3207 275.8 55.8344C275.8 67.3482 282.608 74.1569 292.883 74.1569Z" fill="white"/>
<path d="M384.196 81.9596C379.863 85.5513 373.798 87.778 366.245 87.778C347.923 87.778 335.047 74.902 335.047 55.7151C335.047 36.5282 347.923 23.8984 366.245 23.8984C374.044 23.8984 379.988 26.1279 384.196 29.9658V24.7656H399.052V86.6647H384.196V81.9596ZM366.987 74.1607C377.387 74.1607 384.196 67.352 384.196 55.8382C384.196 44.3245 377.387 37.5158 366.987 37.5158C356.586 37.5158 349.903 44.3245 349.903 55.8382C349.903 67.352 356.712 74.1607 366.987 74.1607Z" fill="white"/>
<path d="M412.841 0H428.316V86.6609H412.841V0Z" fill="white"/>
<path d="M467.934 0H484.153L513.866 86.6609H497.647L490.466 63.7565H461.62L454.439 86.6609H438.221L467.934 0ZM485.884 49.5209L475.979 18.0762L466.074 49.5209H485.881H485.884Z" fill="white"/>
<path d="M76.5684 0V14.2383H86.8002V57.1967C86.8002 67.8433 79.7426 74.0337 68.724 74.0337C67.1262 74.0337 65.6221 73.8785 64.1982 73.6055V88.0499C65.6274 88.1917 67.0914 88.272 68.5982 88.272H69.2164C89.0243 88.272 102.27 75.8911 102.27 56.0833V0H76.5631H76.5684Z" fill="white"/>
<path d="M62.8545 51.4345V11.4201C62.8545 5.11294 57.7416 0 51.4344 0L11.42 0C5.11289 0 -5.34058e-05 5.11294 -5.34058e-05 11.4201V51.4345C-5.34058e-05 57.7416 5.11289 62.8545 11.42 62.8545H51.4344C57.7416 62.8545 62.8545 57.7416 62.8545 51.4345Z" fill="white"/>
<path d="M39.1335 80.4077L10.9941 55.8359H44.3765V78.5101C44.3765 80.9001 41.0658 82.0992 39.1308 80.4077H39.1335Z" fill="white"/>
</g>
<defs>
<clipPath id="clip0_6_15532">
<rect width="513.863" height="88.5183" fill="white"/>
</clipPath>
</defs>
</svg>
