<svg width="3212" height="586" viewBox="0 0 3212 586" fill="none" xmlns="http://www.w3.org/2000/svg">
<mask id="mask0_588_478" style="mask-type:luminance" maskUnits="userSpaceOnUse" x="0" y="0" width="563" height="586">
<path d="M562.062 0H0V585.649H562.062V0Z" fill="white"/>
</mask>
<g mask="url(#mask0_588_478)">
<mask id="mask1_588_478" style="mask-type:alpha" maskUnits="userSpaceOnUse" x="11" y="7" width="544" height="571">
<mask id="mask2_588_478" style="mask-type:luminance" maskUnits="userSpaceOnUse" x="8" y="-7" width="554" height="599">
<path d="M561.054 -6.30859H8.77051V591.118H561.054V-6.30859Z" fill="white"/>
</mask>
<g mask="url(#mask2_588_478)">
<path fill-rule="evenodd" clip-rule="evenodd" d="M18.7541 57.028C14.9626 52.6268 12.5199 47.237 11.7152 41.4976C10.9104 35.7581 11.7776 29.9097 14.2138 24.6451C16.65 19.3808 20.5534 14.921 25.4607 11.7948C30.3683 8.6684 36.0744 7.00655 41.9029 7.00586H418.503C436.338 7.00586 453.998 10.4985 470.475 17.2846C486.955 24.0707 501.927 34.0171 514.538 46.5561C527.149 59.0952 537.154 73.9811 543.978 90.3639C550.804 106.747 554.317 124.306 554.317 142.039C554.317 159.772 550.804 177.331 543.978 193.714C537.154 210.097 527.149 224.983 514.538 237.523C501.927 250.06 486.955 260.007 470.475 266.793C453.998 273.58 436.338 277.072 418.503 277.072H41.9029C36.0744 277.072 30.3683 275.411 25.4607 272.284C20.5534 269.158 16.65 264.697 14.2138 259.433C11.7776 254.169 10.9104 248.319 11.7152 242.581C12.5199 236.841 14.9626 231.451 18.7541 227.05L41.5106 200.644C55.5786 184.328 63.3115 163.544 63.3115 142.054C63.3115 120.563 55.5786 99.7809 41.5106 83.4645L18.7541 57.028ZM11.0579 442.113C11.0579 406.299 25.3668 371.954 50.8371 346.629C76.3074 321.307 110.852 307.08 146.873 307.08H523.472C529.3 307.08 535.006 308.741 539.913 311.868C544.821 314.994 548.726 319.455 551.16 324.719C553.598 329.983 554.465 335.831 553.66 341.571C552.854 347.311 550.413 352.701 546.621 357.102L523.833 383.508C509.766 399.824 502.032 420.606 502.032 442.097C502.032 463.588 509.766 484.37 523.833 500.686L546.621 527.094C550.422 531.495 552.871 536.887 553.681 542.632C554.491 548.374 553.626 554.229 551.189 559.5C548.752 564.771 544.845 569.234 539.933 572.363C535.018 575.489 529.307 577.151 523.472 577.146H146.873C110.852 577.146 76.3074 562.919 50.8371 537.594C25.3668 512.272 11.0579 477.925 11.0579 442.113Z" fill="white"/>
</g>
</mask>
<g mask="url(#mask1_588_478)">
<path d="M567.561 -0.311523H-0.361572V596.919H567.561V-0.311523Z" fill="white"/>
</g>
</g>
<path d="M721.487 473.171V122.036H796.1L860.518 285.396C865.152 297.529 871.022 314.102 878.128 335.114C885.235 355.83 889.869 369.295 892.032 375.51H893.885C909.333 332.599 920.301 302.56 926.789 285.396L989.817 122.036H1065.36V473.171H1005.11V313.806C1005.11 287.171 1007.27 251.067 1011.6 205.492H1009.74L983.329 280.069L916.13 453.195H870.713L804.442 280.069L777.099 205.048H774.782C779.725 247.663 782.197 283.916 782.197 313.806V473.171H721.487Z" fill="white"/>
<path d="M1181.68 401.257C1181.68 410.727 1185.54 418.718 1193.27 425.228C1201.3 431.443 1211.8 434.551 1224.78 434.551C1243.32 434.551 1259.07 428.632 1272.05 416.794C1285.34 404.956 1291.98 389.419 1291.98 370.183V346.656C1277.77 349.911 1260.62 353.019 1240.54 355.978C1201.3 361.897 1181.68 376.99 1181.68 401.257ZM1122.36 406.14C1122.36 357.902 1159.74 328.455 1234.51 317.801C1261.7 313.954 1280.86 310.403 1291.98 307.148V293.386C1291.98 280.957 1287.34 271.191 1278.08 264.088C1268.81 256.985 1256.45 253.434 1241 253.434C1211.65 253.434 1186.31 264.976 1165 288.059L1129.31 258.761C1143.21 243.076 1159.74 230.943 1178.9 222.36C1198.36 213.482 1218.76 209.043 1240.07 209.043C1279.93 209.043 1308.35 218.365 1325.35 237.009C1342.34 255.358 1350.83 281.105 1350.83 314.25V473.171H1293.83V441.209C1288.27 452.159 1278.54 461.629 1264.64 469.62C1251.04 477.314 1234.98 481.161 1216.44 481.161C1187.09 481.161 1164.07 474.207 1147.39 460.298C1130.7 446.388 1122.36 428.336 1122.36 406.14Z" fill="white"/>
<path d="M1456.96 340.441C1456.96 366.484 1462.21 386.756 1472.72 401.257C1483.53 415.758 1497.74 423.009 1515.36 423.009C1532.66 423.009 1546.56 415.906 1557.06 401.701C1567.57 387.496 1572.82 366.928 1572.82 339.997C1572.82 313.658 1567.57 293.238 1557.06 278.737C1546.56 264.236 1532.81 256.985 1515.82 256.985C1497.9 256.985 1483.53 264.532 1472.72 279.625C1462.21 294.718 1456.96 314.99 1456.96 340.441ZM1397.18 340.885C1397.18 300.933 1407.53 268.971 1428.23 245C1448.93 221.028 1475.5 209.043 1507.94 209.043C1524.31 209.043 1538.06 213.038 1549.19 221.028C1560.62 228.723 1568.65 237.305 1573.28 246.775V217.033H1631.68V437.658C1631.68 485.896 1621.79 521.557 1602.02 544.641C1582.55 568.02 1552.43 579.71 1511.65 579.71C1466.85 579.71 1432.09 563.137 1407.37 529.992L1446.3 504.245C1464.22 524.369 1486.31 534.431 1512.57 534.431C1529.57 534.431 1543.62 528.216 1554.75 515.787C1565.87 503.357 1571.89 487.08 1572.82 466.956C1573.44 455.119 1573.75 445.352 1573.75 437.658C1567.88 447.128 1559.07 455.119 1547.33 461.629C1535.59 467.844 1523.08 470.951 1509.79 470.951C1476.12 470.951 1448.93 459.114 1428.23 435.438C1407.53 411.467 1397.18 379.949 1397.18 340.885Z" fill="white"/>
<path d="M1697.95 178.857V117.153H1760.98V178.857H1697.95ZM1700.73 473.171V217.033H1758.66V473.171H1700.73Z" fill="white"/>
<path d="M1812.88 345.324C1812.88 304.188 1824.31 271.191 1847.18 246.331C1870.35 221.472 1900.16 209.043 1936.62 209.043C1963.19 209.043 1985.59 216.737 2003.82 232.126C2022.05 247.515 2033.48 265.124 2038.11 284.952L1988.06 298.269C1984.35 287.024 1978.02 277.405 1969.06 269.415C1960.1 261.129 1949.44 256.985 1937.08 256.985C1917 256.985 1901.24 265.42 1889.81 282.288C1878.69 299.157 1873.13 320.169 1873.13 345.324C1873.13 373.143 1879.15 394.746 1891.2 410.135C1903.25 425.524 1918.55 433.219 1937.08 433.219C1950.68 433.219 1962.57 428.78 1972.77 419.901C1983.27 410.727 1990.53 400.369 1994.55 388.828L2044.6 402.589C2038.73 423.305 2025.91 441.653 2006.14 457.634C1986.36 473.319 1963.19 481.161 1936.62 481.161C1900.16 481.161 1870.35 468.88 1847.18 444.317C1824.31 419.458 1812.88 386.46 1812.88 345.324Z" fill="white"/>
<path d="M2094.65 473.171V122.036H2233.68C2272.61 122.036 2301.81 130.322 2321.27 146.895C2340.74 163.468 2350.47 186.107 2350.47 214.814C2350.47 231.978 2346.3 246.775 2337.96 259.205C2329.61 271.339 2318.65 280.809 2305.05 287.615C2320.5 292.942 2334.09 303.004 2345.84 317.801C2357.58 332.303 2363.45 350.059 2363.45 371.071C2363.45 400.369 2353.56 424.784 2333.79 444.317C2314.32 463.553 2286.98 473.171 2251.76 473.171H2094.65ZM2155.83 423.453H2241.1C2257.47 423.453 2271.38 418.866 2282.81 409.691C2294.55 400.517 2300.42 387.644 2300.42 371.071C2300.42 355.386 2295.01 342.513 2284.2 332.451C2273.69 322.389 2258.86 317.358 2239.71 317.358H2155.83V423.453ZM2155.83 268.083H2227.66C2245.27 268.083 2259.64 264.088 2270.76 256.098C2281.88 247.811 2287.44 235.53 2287.44 219.253C2287.44 204.752 2282.65 193.358 2273.08 185.072C2263.81 176.489 2249.29 172.198 2229.51 172.198H2155.83V268.083Z" fill="white"/>
<path d="M2460.77 345.324C2460.77 374.918 2467.1 396.966 2479.77 411.467C2492.44 425.968 2507.27 433.219 2524.26 433.219C2540.94 433.219 2555.62 425.968 2568.29 411.467C2580.95 396.966 2587.29 374.918 2587.29 345.324C2587.29 315.138 2580.95 292.942 2568.29 278.737C2555.62 264.236 2540.94 256.985 2524.26 256.985C2507.57 256.985 2492.74 264.236 2479.77 278.737C2467.1 292.942 2460.77 315.138 2460.77 345.324ZM2400.52 345.324C2400.52 307.148 2411.03 274.89 2432.03 248.551C2453.04 222.212 2483.79 209.043 2524.26 209.043C2564.42 209.043 2595.01 222.212 2616.02 248.551C2637.03 274.89 2647.53 307.148 2647.53 345.324C2647.53 357.162 2646.3 368.999 2643.83 380.837C2641.66 392.675 2637.65 404.808 2631.78 417.238C2625.91 429.372 2618.49 440.173 2609.53 449.644C2600.57 458.818 2588.68 466.364 2573.85 472.283C2559.33 478.202 2542.8 481.161 2524.26 481.161C2506.03 481.161 2489.5 478.35 2474.67 472.727C2460.15 466.808 2448.25 459.41 2438.99 450.531C2430.03 441.357 2422.46 430.703 2416.28 418.57C2410.41 406.14 2406.24 394.007 2403.76 382.169C2401.6 370.035 2400.52 357.754 2400.52 345.324Z" fill="white"/>
<path d="M2740.68 345.324C2740.68 374.918 2747.02 396.966 2759.68 411.467C2772.35 425.968 2787.18 433.219 2804.17 433.219C2820.86 433.219 2835.53 425.968 2848.2 411.467C2860.87 396.966 2867.2 374.918 2867.2 345.324C2867.2 315.138 2860.87 292.942 2848.2 278.737C2835.53 264.236 2820.86 256.985 2804.17 256.985C2787.49 256.985 2772.66 264.236 2759.68 278.737C2747.02 292.942 2740.68 315.138 2740.68 345.324ZM2680.44 345.324C2680.44 307.148 2690.94 274.89 2711.95 248.551C2732.96 222.212 2763.7 209.043 2804.17 209.043C2844.34 209.043 2874.93 222.212 2895.94 248.551C2916.94 274.89 2927.45 307.148 2927.45 345.324C2927.45 357.162 2926.21 368.999 2923.74 380.837C2921.58 392.675 2917.56 404.808 2911.69 417.238C2905.82 429.372 2898.41 440.173 2889.45 449.644C2880.49 458.818 2868.59 466.364 2853.76 472.283C2839.24 478.202 2822.71 481.161 2804.17 481.161C2785.95 481.161 2769.42 478.35 2754.59 472.727C2740.07 466.808 2728.17 459.41 2718.9 450.531C2709.94 441.357 2702.37 430.703 2696.19 418.57C2690.32 406.14 2686.15 394.007 2683.68 382.169C2681.52 370.035 2680.44 357.754 2680.44 345.324Z" fill="white"/>
<path d="M2978.89 473.171V110.494H3037.28V319.133L3132.29 217.033H3205.98L3107.26 321.353L3212 473.171H3143.41L3069.26 360.861L3037.28 394.598V473.171H2978.89Z" fill="white"/>
</svg>
