<?xml version="1.0" encoding="UTF-8"?>
<svg id="Layer_1" data-name="Layer 1" xmlns="http://www.w3.org/2000/svg" version="1.1" viewBox="0 0 125 96">
  <defs>
    <style>
      .cls-1 {
        fill: #fff;
        stroke-width: 0px;
      }
    </style>
  </defs>
  <path class="cls-1" d="M14.2,54.8h0c-.6.6-1.4.8-1.9.9-1,0-2.1-.3-2.9-1.1-.6-.8-.8-1.7-1.4-2.5-.9-1.1-2.3-2-3.7-1.7-2.9.6-4.1,4.2-2.6,6.6,2.3,3.5,7.5,2.9,10.2.5.8-.8,1.7-1.6,2.3-2.6"/>
  <path class="cls-1" d="M111.2,54.8h0c.6.6,1.4.8,1.8.9,1.1,0,2.1-.3,2.9-1.1.6-.8.8-1.7,1.4-2.5.9-1.1,2.3-2,3.8-1.7,2.9.6,4.2,4.2,2.5,6.6-2.3,3.5-7.5,2.9-10.2.5-.8-.8-1.6-1.6-2.2-2.6"/>
  <path class="cls-1" d="M101.7,36h-7c-.7,0-1.4.8-1.4,1.5s.6,1.6,1.4,1.7h7c.7,0,1.3-.8,1.4-1.6,0-.8-.6-1.6-1.4-1.6"/>
  <path class="cls-1" d="M58.2,51.9h0c0-.5-.2-.9-.2-1.3v-2.2c0-2.7.6-7.5-2.9-7.5s-3.7,2.1-4.1,2.7c0-1.9-1.5-3.2-3.6-3.2s-2.2,1.1-2.2,1.1c0,0,1.4.5,1.4,2.4v8.1c0,1.1.8,2.3,2.2,2.3s2.2-1.1,2.2-2.3v-6c.2-.9.6-2,1.5-2s1,1.2,1,1.2v5.7c0,.2,0,.4,0,.6,0,.3,0,.6.2.9.6,1.1,1.8,1.9,3.3,1.9s2.2-1.1,2.2-1.1c0,0-.8-.3-1.2-1.3"/>
  <path class="cls-1" d="M91.1,51.9h0c0-.5,0-.9,0-1.3v-14.1c0-1.4-1.1-2.5-2.4-2.5s-2.3,1-2.3,2.5v12.5c0,1.1,0,2.3.4,3.3.6,1.2,1.8,2.1,3.4,2.1s2.2-1.1,2.2-1.1c0,0-.8-.3-1.2-1.3"/>
  <path class="cls-1" d="M38.9,40.8h0c-3.5,0-6.4,3-6.4,6.7s2.9,6.8,6.4,6.8,6.4-3,6.4-6.8-2.9-6.7-6.4-6.7M39,51.5h0c-1.2,0-1.8-1.5-1.8-4s.7-3.9,1.8-3.9h0c1,0,1.8,1.5,1.8,3.9s-.6,3.9-1.8,4"/>
  <path class="cls-1" d="M72.4,51.9h0c0-.5,0-.9-.2-1.3v-14.1c0-1.4-1-2.5-2.3-2.5s-2.3,1-2.3,2.5v6.7c-.6-.9-1.8-2.3-3.8-2.3-5.4,0-5.6,10.2-2,12.7,1.1.8,2.7.9,3.8.6.8-.2,2.1-1,2.3-2.1,0,0,0,.2,0,.2.6,1.2,1.8,2.1,3.4,2.1s2.2-1.1,2.2-1.1c0,0-.8-.3-1.2-1.3M65.5,51h0c-1.2,0-1.8-1.3-1.8-3.4s.8-3.4,1.8-3.4,1.8,1.3,1.8,3.4-.6,3.4-1.8,3.4"/>
  <path class="cls-1" d="M84.6,50.2h0s-.7.9-3.3.9-3.2-2.2-3.2-2.2c3.9,0,7.1-.3,7.1-3.6s-3.6-4.5-5.6-4.5c-3.5,0-6,3-6,6.9s3.2,6.6,6,6.6c4.8,0,5.1-4.2,5.1-4.2M77.8,46.8h0c0-1,.4-2.4,1.3-3,.7-.5,1.8,0,1.8,1,0,1.1-.6,1.8-1.5,2,0,0-1.6,0-1.6,0"/>
  <path class="cls-1" d="M103.3,50.2h0s-.7.9-3.3.9-3.2-2.2-3.2-2.2c3.9,0,7.1-.3,7.1-3.6s-3.6-4.5-5.6-4.5c-3.5,0-6,3-6,6.9s3.2,6.6,6,6.6c4.8,0,5.1-4.2,5.1-4.2M96.4,46.8h0c0-1,.4-2.4,1.3-3,.7-.5,1.8,0,1.8,1,0,1.1-.6,1.8-1.5,2,0,0-1.6,0-1.6,0"/>
  <path class="cls-1" d="M112.1,50.5h-2.7c.2,0,2.1-1.7,2.8-2.4,1.8-1.5,4.8-3.8,3.9-6.6-.2-.7-.6-1-.6-1,0,0-.2.5-.8.8-.3,0-.5,0-.7.2h-7.5c-.9,0-1.8.8-1.8,1.8s.7,1.8,1.8,1.8h4.2c-1.9,1.2-4.3,2.6-5.5,4.7-.6,1.1-1.4,3-1.1,4.4.9-.9,3.4-1.7,5.3-1.3.7.2,1.5.6,2,.9,3.5,2.4,5.6-2.3,4-4.3,0,0-1,.9-3.1.9"/>
  <path class="cls-1" d="M32.9,53.4h0c-2.1-2.6-2.8-6.7-3-9.5,0-2.4,0-6.5,1.8-7.8-.6-.8-1.8-1.1-2.6-1.1-2,0-3,1.4-3.7,2.5-.2.3-3.6,5.3-3.6,5.3,0,0-2.8-4.7-3.1-5.3-.5-.8-1.4-2.2-3-2.4-.6-.2-2.5-.3-3.4,1.1,1.7,1.4,1.7,5.1,1.3,7.6-1.1,7.4-4.1,8-4.1,8,1.5,4.3,5.4,2.6,6.5-.9.7-2.3,1.2-5.1,1.3-7.5l4.3,7,4.9-7c-.8,12.4,3.1,15.9,6.6,15.9s4.7-3.4,4.7-3.4c-1.9,0-3.5-1.1-4.8-2.6"/>
  <path class="cls-1" d="M43.7,57.4h0c0,.2,0,.4,0,.6v6.5c0,.5.5.9.9.9.6,0,1-.4,1.1-.9v-5.9c0-.5,0-.9-.2-1.4-.3-.5-.8-.9-1.5-.9s-.9.5-.9.5c0,0,.4,0,.5.6"/>
  <path class="cls-1" d="M107.1,64.3h0c0-.2,0-.4,0-.6v-6.5c0-.5-.5-.9-1-.9s-1,.5-1,.9v5.9c0,.5,0,.9.2,1.4.2.5.8.9,1.5.9s.9-.5.9-.5c0,0-.4,0-.5-.6"/>
  <path class="cls-1" d="M70.9,59.6h0c-1,0-1.7.9-1.8,1.2v-.6c0-.6-.5-.9-.9-.9-.6,0-1,.4-1,.9v4.2c0,.5.5.9.9.9.5,0,1-.4,1-.9v-2.5h0c0-.5.4-.9.6-.9.5,0,.5.6.5.6v2.8c0,.5.6.9,1,.9.5,0,1-.4,1-.9v-1.5c0-1.5.2-3.3-1.3-3.3"/>
  <path class="cls-1" d="M96.4,59.6h0c-1,0-1.7.9-1.8,1.2v-.6c0-.6-.5-.9-.9-.9-.6,0-1,.4-1.1.9v4.2c0,.5.6.9,1,.9.5,0,1-.4,1-.9v-2.5h0c0-.5.4-.9.6-.9.5,0,.5.6.5.6v2.8c0,.5.6.9,1,.9.5,0,1-.4,1-.9v-1.5c0-1.5,0-3.3-1.3-3.3"/>
  <path class="cls-1" d="M50.7,59.6h0c-1,0-1.7.9-1.8,1.2v-.6c0-.6-.5-.9-.9-.9-.6,0-1,.4-1.1.9v4.2c0,.5.6.9,1,.9.5,0,1-.4,1-.9v-2.5h0c0-.5.3-.9.6-.9s.5.6.5.6v2.8c0,.5.5.9,1,.9.5,0,1-.4,1-.9v-1.5c0-1.5,0-3.3-1.3-3.3"/>
  <path class="cls-1" d="M89.2,59.3h0c-1.6,0-2.9,1.3-2.9,3s1.3,3,2.9,3,2.8-1.3,2.8-3-1.2-3-2.8-3M89.2,64.2h0c-.6,0-.8-.8-.8-1.8s.4-1.7.8-1.7.8.7.8,1.7-.3,1.7-.8,1.8"/>
  <path class="cls-1" d="M78.6,60.2h0c0-.6-.6-1-1-1s-1.1.5-1.1,1v.2c-.3-.4-.8-1-1.7-1-2.4,0-2.6,4.5-.9,5.7.5.4,1.2.5,1.7.3.4,0,.7-.4,1-.7,0,.4.5.8.9.8.6,0,1.1-.5,1.1-1v-4.2ZM75.5,63.9h0c-.6,0-.8-.6-.8-1.5s.4-1.5.8-1.5.8.6.8,1.5-.3,1.5-.8,1.5"/>
  <path class="cls-1" d="M104,60.2h0c0-.6-.5-1-.9-1s-1.1.5-1.1,1v.2c-.3-.4-.8-1-1.7-1-2.4,0-2.6,4.5-.9,5.7.5.4,1.1.5,1.7.3.3,0,.7-.4.9-.7.2.4.6.8,1,.8.5,0,1-.5,1-1v-4.2ZM101,63.9h0c-.5,0-.7-.6-.7-1.5s.3-1.5.7-1.5.8.6.8,1.5-.3,1.5-.8,1.5"/>
  <path class="cls-1" d="M85.7,60.8h0c0-.5-.4-.9-.9-.9h0c-.4,0-.9.4-.9.9v3.7c0,.5.4.9.8.9h0c.5,0,1-.4,1-.9v-3.7Z"/>
  <path class="cls-1" d="M85.7,58.1h0c0,.6-.5,1-1,1s-.9-.5-.9-1,.4-1,.9-1,1,.5,1,1"/>
  <path class="cls-1" d="M65.5,59.5h0c-.6,0-.8.5-1.3,1.1v-.3c0-.6-.5-1-.9-1s-1,.5-1,1v4.1c0,.6.5.9.9.9.6,0,1-.4,1-.9v-2.6c0-.4.2-.9.6-.9s0,1,.8,1c1.4,0,1.5-2.6,0-2.6"/>
  <path class="cls-1" d="M61.4,63.5h0s-.3.5-1.5.5-1.5-.9-1.5-.9c1.8,0,3.2-.2,3.2-1.7s-1.6-2-2.5-2c-1.6,0-2.7,1.3-2.7,3.1s1.5,2.9,2.7,2.9c2.1,0,2.2-1.9,2.2-1.9M58.3,62h0c0-.5.2-1,.6-1.3.4-.2.8,0,.8.5s-.3.8-.6.9c0,0-.7,0-.7,0"/>
  <path class="cls-1" d="M56.3,64.3h0s-.5,1.1-1.5,1.1-1.8-.8-1.8-1.8v-2.8h-.3c-.2,0-.4,0-.4-.5s.3-.5.4-.5h.3v-.9c0-.6.5-1,1-.9.5,0,.9.5.9.9v.9h.8c.2,0,.5,0,.5.5s-.3.5-.5.5h-.8v2.4c0,.8.6,1.1,1.3,1.1"/>
  <path class="cls-1" d="M83,64.3h0s-.6,1.1-1.5,1.1-1.8-.8-1.8-1.8c0,0,0-1.6,0-2.8h-.3c0,0-.4,0-.4-.5s.3-.5.5-.5h.2v-.9c0-.6.6-1,1.1-.9.5,0,.9.5.9.9v.9h.8c0,0,.4,0,.4.5s-.3.5-.4.5h-.8v2.4c0,.8.6,1.1,1.3,1.1"/>
</svg>