<svg width="3212" height="612" viewBox="0 0 3212 612" fill="none" xmlns="http://www.w3.org/2000/svg">
<mask id="mask0_587_476" style="mask-type:luminance" maskUnits="userSpaceOnUse" x="0" y="0" width="3212" height="612">
<path d="M3212 0H0V612H3212V0Z" fill="white"/>
</mask>
<g mask="url(#mask0_587_476)">
<path d="M0 588.588V211.404H99.5211V230.306C99.5211 230.306 168.506 202.363 216.5 202.363C337.855 202.363 368.391 264.322 368.391 391.298V588.588H268.87V392.074C268.87 320.253 258.375 283.224 197.302 283.224C158.907 283.224 99.5211 300.62 99.5211 300.62V588.588H0Z" fill="white"/>
<path d="M820.641 511.517L822.38 578.772C822.38 578.772 722.86 596.898 645.172 596.898C513.322 596.898 461.847 537.177 461.847 404.174C461.847 271.171 529.934 202.363 651.291 202.363C772.647 202.363 837.254 257.519 837.254 374.678L830.292 436.637H562.264C563.162 491.792 589.321 518.274 660.046 518.274C730.77 518.274 820.692 511.471 820.692 511.471L820.641 511.517ZM738.575 369.428C738.575 303.679 713.26 279.48 651.291 279.48C589.321 279.48 562.213 306.693 562.213 369.428H738.575Z" fill="white"/>
<path d="M1040.68 289.299V443.488C1040.68 495.63 1042.42 515.309 1086.09 515.309C1110.56 515.309 1156.81 513.026 1156.81 513.026L1161.19 587.084C1161.19 587.084 1102.7 597.677 1072.11 597.677C971.692 597.677 941.154 564.437 941.154 455.587V289.299H886.147V211.452H941.154V101.871H1040.68V211.452H1158.55V289.299H1040.68Z" fill="white"/>
<path d="M1299.96 588.586H1269.42V234.87H1209.19V210.671H1269.42V164.555C1269.42 55.7056 1300.85 30 1380.28 30C1410.82 30 1460.6 32.2829 1460.6 32.2829V55.7058C1460.6 55.7058 1404.75 54.199 1380.28 54.199C1320.89 54.199 1299.96 74.6084 1299.96 165.286V210.625H1441.4V234.824H1299.96V588.54V588.586Z" fill="white"/>
<path d="M1841.28 564.428L1843.02 588.627C1843.02 588.627 1745.23 595.43 1681.53 595.43C1551.42 594.654 1517.4 522.879 1517.4 399.647C1517.4 249.978 1594.24 203.863 1693.76 203.863C1801.14 203.863 1859.64 254.498 1859.64 385.264V410.194H1549.68C1549.68 514.478 1581.11 571.186 1682.38 571.186C1743.5 571.186 1841.28 564.382 1841.28 564.382V564.428ZM1827.31 386.041C1827.31 270.388 1784.52 228.062 1693.71 228.062C1602.89 228.062 1549.68 271.164 1549.68 386.041H1827.31Z" fill="white"/>
<path d="M2272.54 538.722C2275.17 560.638 2308.35 568.218 2338.04 570.455L2336.31 594.654C2298.74 594.654 2265.58 587.851 2246.37 564.428C2246.37 564.428 2165.16 595.43 2066.54 595.43C1998.45 595.43 1955.67 558.401 1955.67 485.074C1955.67 420.832 1989.75 383.803 2076.19 376.224L2242.05 361.111V321.799C2242.05 256.051 2208.88 229.569 2145.11 229.569C2081.36 229.569 1980.09 242.399 1980.09 242.399L1977.45 217.469C1977.45 217.469 2075.23 203.863 2145.06 203.863C2233.25 203.863 2272.54 243.906 2272.54 321.753V538.677V538.722ZM2079.62 399.647C2011.53 405.674 1987.95 438.182 1987.95 485.074C1987.95 540.229 2018.49 571.231 2067.37 571.231C2153.82 571.231 2242.01 541.005 2242.01 541.005V386.041L2079.62 399.647Z" fill="white"/>
<path d="M2709.96 240.162C2709.96 240.162 2620.87 228.062 2561.54 228.062C2505.7 228.062 2444.56 242.445 2444.56 303.627C2444.56 350.473 2468.14 364.855 2568.55 378.461C2682.96 394.35 2727.47 408.687 2727.47 479.732C2727.47 568.172 2664.6 595.384 2561.59 595.384C2511.81 595.384 2417.56 583.285 2417.56 583.285L2421.05 558.355C2421.05 558.355 2515.34 571.185 2559.86 571.185C2641.92 571.185 2695.19 554.566 2695.19 482.014C2695.19 427.59 2663.75 416.997 2559.86 403.391C2457.7 389.784 2412.29 375.448 2412.29 305.134C2412.29 225.003 2490.88 203.863 2561.59 203.863C2632.32 203.863 2711.75 215.187 2711.75 215.187L2710.01 240.116L2709.96 240.162Z" fill="white"/>
<path d="M3146.49 538.722C3149.13 560.638 3182.29 568.218 3212 570.455L3210.26 594.654C3172.71 594.654 3139.53 587.851 3120.34 564.428C3120.34 564.428 3039.11 595.43 2940.49 595.43C2872.4 595.43 2829.62 558.401 2829.62 485.074C2829.62 420.832 2863.69 383.803 2950.14 376.224L3116 361.111V321.799C3116 256.051 3082.84 229.569 3019.07 229.569C2955.31 229.569 2854.04 242.399 2854.04 242.399L2851.4 217.469C2851.4 217.469 2949.19 203.863 3019.02 203.863C3107.2 203.863 3146.49 243.906 3146.49 321.753V538.677V538.722ZM2953.51 399.647C2885.43 405.674 2861.85 438.182 2861.85 485.074C2861.85 540.229 2892.39 571.231 2941.28 571.231C3027.71 571.231 3115.9 541.005 3115.9 541.005V386.041L2953.51 399.647Z" fill="white"/>
</g>
</svg>
