<?xml version="1.0" encoding="UTF-8"?>
<svg id="Layer_1" data-name="Layer 1" xmlns="http://www.w3.org/2000/svg" version="1.1" viewBox="0 0 125 96">
  <defs>
    <style>
      .cls-1 {
        stroke: #fff;
        stroke-miterlimit: 10;
        stroke-width: .2px;
      }

      .cls-1, .cls-2 {
        fill: #fff;
      }

      .cls-2 {
        stroke-width: 0px;
      }
    </style>
  </defs>
  <g>
    <path class="cls-1" d="M32.7,47.1h-2.5l-.7,1.7h-1l2.7-6.2h.7c.5,1.2,2.7,6.2,2.7,6.2h-1.1s-.8-1.7-.8-1.7ZM32.3,46.2l-.9-2.2-.9,2.2h1.8Z"/>
    <path class="cls-1" d="M103.1,47.1h-2.5l-.7,1.7h-1l2.7-6.2h.7c.5,1.2,2.7,6.2,2.7,6.2h-1.1s-.8-1.7-.8-1.7ZM102.8,46.2l-.9-2.2-.9,2.2h1.8Z"/>
    <polygon class="cls-1" points="49.6 43.5 47.1 43.5 47.1 45 49.5 45 49.5 45.8 47.1 45.8 47.1 47.9 49.6 47.9 49.6 48.8 46.2 48.8 46.2 42.6 49.6 42.6 49.6 43.5"/>
    <path class="cls-1" d="M54.7,46.1l1.9,2.6h-1.1l-1.8-2.5h-.2v2.5h-.9v-6.2h1.1c.8,0,1.4.2,1.8.5.4.3.6.8.6,1.3s0,.8-.4,1.1-.6.5-1,.6M53.6,45.4h.3c.9,0,1.3-.3,1.3-1s-.4-.9-1.3-.9h-.3v2h0Z"/>
    <rect class="cls-1" x="59.5" y="42.6" width=".9" height="6.2"/>
    <path class="cls-1" d="M68,43.1v.9c-.4-.4-1-.7-1.6-.7s-1.2.2-1.6.7-.7,1-.7,1.7.2,1.2.7,1.6c.4.4,1,.7,1.6.7s.6,0,.8-.2c.1,0,.3-.1.4-.2,0,0,.3-.2.4-.3v1.1c-.5.3-1.1.5-1.7.5-.9,0-1.6-.3-2.3-.9-.6-.6-.9-1.4-.9-2.2s.3-1.5.8-2.1c.6-.8,1.5-1.1,2.5-1.1s1.1.2,1.6.5"/>
    <polygon class="cls-1" points="96.4 43.5 94 43.5 94 45 96.4 45 96.4 45.8 94 45.8 94 47.9 96.4 47.9 96.4 48.8 93 48.8 93 42.6 96.4 42.6 96.4 43.5"/>
    <path class="cls-1" d="M109.9,45.6h2.5v.2c0,.5,0,.9-.2,1.2,0,.3-.3.6-.5.9-.6.6-1.3,1-2.2,1s-1.6-.3-2.2-.9c-.6-.6-.9-1.4-.9-2.2s.3-1.7.9-2.3,1.4-.9,2.3-.9.9,0,1.3.3c.4.2.8.5,1.2,1l-.7.6c-.5-.7-1.1-1-1.8-1s-1.2.2-1.6.7c-.4.4-.7,1-.7,1.7s.2,1.3.7,1.7,1,.6,1.5.6.9-.2,1.2-.5c.4-.3.6-.7.6-1.1h-1.5v-.9h0Z"/>
    <polygon class="cls-1" points="116.2 42.6 116.2 47.9 118 47.9 118 48.8 115.3 48.8 115.3 42.6 116.2 42.6"/>
    <polygon class="cls-1" points="120.8 42.6 120.8 48.8 124.2 48.8 124.2 47.9 121.8 47.9 121.8 45.8 124.2 45.8 124.2 45 121.8 45 121.8 43.5 124.2 43.5 124.2 42.6 120.8 42.6"/>
    <path class="cls-1" d="M74.8,47.1h-2.5l-.7,1.7h-1l2.7-6.2h.7c.5,1.2,2.7,6.2,2.7,6.2h-1.1s-.8-1.7-.8-1.7ZM74.4,46.2l-.9-2.2-.9,2.2h1.8Z"/>
    <polygon class="cls-1" points="38.2 45.1 39.9 48.8 40.1 48.8 41.8 45.1 42.4 48.8 43.3 48.8 42.3 42.6 42 42.6 40 46.9 38.1 42.6 37.8 42.6 36.6 48.8 37.5 48.8 38.2 45.1"/>
    <polygon class="cls-1" points="84.6 48.8 84.6 42.6 83.7 42.6 83.7 46.9 79.3 42.6 79 42.6 79 48.8 79.9 48.8 79.9 44.4 84.2 48.8 84.6 48.8"/>
  </g>
  <path class="cls-2" d="M24.4,34.7l-.3.3c-.7.8-1.1,1.6-1.5,2.5h0s-.1.3-.2.5h-.1c-.2,0,.2-1.2.3-1.4.4-1.1.8-2.1,1.3-3.1,0,0,0-.2-.1,0-.4.2-.7.6-1,1-.5.7-.9,1.4-1.3,2.1,0,.2-.1.4-.2.5s-.2,0-.2-.2v-.9c0-.2.2-.7.2-.9h0c-.2.2-.7.7-1,1.3-.2.3-.3.6-.4,1.1h0c0,.2-.2.5-.3.5h0c-.2-.3,0-.8-.1-1.1h0c-.1,0-.4.4-.5.8,0,.2-.2.4-.3.8,0,0,0,.2-.1.2s-.3-.2-.3-.2h0s-.2.2-.3.7h0c0,.2,0,.4-.1.5h0s-.1,0-.2-.2h0c0,0-.3.7-.3.9,0,.3-.1.6-.2,1,0,.4,0,.7-.2,1,0,0,0,.3-.2.4,0,0-.1.3-.2.4-.1.3-.3.5-.4.8-.3.6-.7,1.2-.9,1.8,0,.2-.1.4,0,.6.1.4.7.4,1,.4s.5,0,.7-.2c.6-.2,2.8-1.1,3-1.2.6-.2,1.3-.4,1.3,0,0,.6-.7.9-.7,1.4v.4s.2,0,.3-.2c.2-.2.4-.3.6-.5.1,0,.2-.2.4-.3h0c0,0,.2-.2.3-.2,0,0,.1,0,.2,0h.3s.1-.3,0-.4c0-.2,0-.3-.2-.4-.1,0-.3,0-.7,0-.2,0-.3,0-.4-.2-.4-.3-.9-.2-1.4,0,.1-.2.3-.4.4-.5.4-.5.8-1.1,1.2-1.6.4-.5.7-.9.9-1.4.1-.4.2-.7.3-1.1h0c.2-1.1.4-2,.7-2.9.2-.7.6-1.3.9-2,0,0,.2-.5.3-.6h0"/>
  <path class="cls-2" d="M18,50.2s.6-.9.5-.9-.6.3-.7.2c-.1,0,0-.2-.2-.2,0,0-.4,0-.6,0,0,0-.5,0-.5,0,0,0,.1-.6,0-.6,0,0-.3,0-.8.2-.3,0-.9.2-1,0,0,0,.1-.2.2-.4,0-.2.3-.5,0-.7-.2,0-.5,0-.7-.3-.2,0-.1-.4,0-.5h0c0-.3-.2-.9-.3-1.4-.2-.7-.4-1.5-.6-2.2-.4-1.2-.5-2-1.1-3.1-1-2-2.9-2.8-4.6-4-.6-.4-1-.7-1.5-1-.5-.4-1.6-1.1-1.9-1.3h0s0,.2,0,.3c.2.5.6.8,1,1.2,0,0,.7.6.6.7,0,0-2.1-1.2-2.4-1.3-.4-.3-2.1-1.4-2.9-1.9h0s0,.2.1.4c.3.6.7,1.1,1.3,1.7.2.2.5.4.8.7h0c0,0,.2.2.3.2s.9.5.9.6-.3,0-.4,0h0c-.5-.2-1-.4-1.5-.7,0,0-.2,0-.3-.2-.3,0-.5-.3-.8-.4-.2,0-.6-.4-.8-.5H0c0,0,0,.2,0,.3.3.5.7.9,1.2,1.3.2.2.5.4.7.5s.4.3.9.5c.2,0,.3,0,.3.2h-.5c-.3,0-.7-.2-1.2-.3-.3,0-.7-.3-.9-.3h0s.1.2.3.4h0c.3.3.7.6,1,.8.2,0,.3.2.5.3,0,0,.2,0,.3.2h0c0,0,.4,0,.3.2h-1.2s0,.2.2.4c.3.3.7.6,1,.8h.2c0,0,.3,0,.4.2h0c0,0-.2,0-.3,0h-.3c0,.2.3.3.5.4h0c.4.3.7.5,1,.6,0,0,0,0,.2,0,1.1.6,1.8,1.4,2.4,2.5s1,3.1,2.3,3.8c0,0,.2,0,.3.2,0,0,.1,0,0,.2h-.6c-.2,0-.3,0-.5-.2-.7-.2-1.4-.5-2-.8,0,0-1.2-.5-1.3-.4,0,0,0,.3,0,.4,0,0,0,0,0,.2h0c-.5,0-2.1-.7-2.2-.6,0,0,.5,1,1.9,1.8.3.2.5.2.5.3h-.3c-.3,0-.7,0-1.2-.2-.3,0,0,0,0,0s.2.3.3.3c.4.4.7.6,1.7,1,.7.3,1.1.4,1.7.6,0,0-.2,0-.5.2-.3,0-.8,0-.8,0,0,0,.3.5,1.6.6.2,0,.5,0,.5.3,0,0-.3.4,0,.4s1.1,0,1.9,0c.5,0,.7.2.7.4s0,.4-.1.6c0,.2-.1.4-.2.6v.6h0c-.1.3-.4.5-.2.8,0,.2,0,.3-.2.5h-.3c-.2,0-.3,0-.4.2,0,0-.5.7-.3.8h0s.3-.2.5-.2h0c0,.2-.2.5-.4.6-.1,0-.2,0-.3.2h-.5c0,.2.3.3.5.4.3,0,.6,0,.8,0,.1,0,.4,0,.5-.2h0c.2,0,.3-.4.4-.6.1-.3-.1-.6,0-.9,0,0,0,0,.1-.2.1,0,.3,0,.6,0,.3-.2.6-.4.9-.7.2,0,.3-.3.5-.5,0,0,.1-.2.2-.3,0,0,0,0,.1-.2h0v.2c-.1.2-.3.4-.2.6v.4h-.3c-.2,0-.3,0-.3.2,0,0-.4.6-.3.7h0s.3-.2.4-.2h0c0,.2-.2.4-.4.5,0,0-.2,0-.3.2h-.4c0,.2.3.3.4.4.2,0,.5,0,.7,0,.1,0,.4,0,.5-.2h0c.2,0,.3-.4.4-.5v-.8s.1,0,.2-.2c0,0,.2,0,.3,0,.3-.2.4-.4.6-.7,0,0,.1-.2.2-.3h0c.1,0,.3,0,.3,0,.1,0,.3-.5.3-.7.3-.7.4-1.4.7-2.2v-.3q0,0,.1-.2c.1,0,.3-.2.4-.2.2,0,.5-.3.7-.4.1,0,.2-.2.3-.3"/>
</svg>