<?xml version="1.0" encoding="UTF-8"?>
<svg xmlns="http://www.w3.org/2000/svg" version="1.1" viewBox="0 0 125 96">
  <defs>
    <style>
      .cls-1 {
        fill: #fff;
      }

      .cls-1, .cls-2 {
        fill-rule: evenodd;
        stroke-width: 0px;
      }

      .cls-3 {
        display: none;
      }

      .cls-2 {
        fill: #0096d6;
      }
    </style>
  </defs>
  <g id="Layer_3" data-name="Layer 3">
    <path class="cls-1" d="M21.4,49.5c.3-6-4.9-12.7-11.9-13.5h0c6.9,0,12.2,6.3,12.2,11.4,0,1.1,0,1.7-.2,2.2h-.1ZM20.9,50.3c-.5.6-1,1.1-1.7,1.7-1.2-7.2-6.5-13.4-10.2-15.3h0c3.7,3.1,8.2,9.1,10,15.6-.9.7-1.8,1.2-2.9,1.6-3.5-4-6.8-11.8-7.9-16.7h-.1c0,4.8,3.4,13,7.6,16.9-1,.4-1.9.6-3,.8-4-1.6-6.8-6.6-6.8-11.8s1-5.5,1.2-5.9h0c-.2.3-1.7,2.4-1.7,6.1,0,5.8,2.9,10.3,6.7,11.7-1.4.2-2.8,0-4.1-.2h0c.4.2,1.8.8,3.9.8,4.8,0,8-3,9.3-5.2h0Z"/>
    <g>
      <path class="cls-1" d="M11.2,33.8c-3.6,0-7.9,2.6-7.9,5s.8,1.7,2.6,1.7c4.1,0,7.9-2.8,7.9-5,0-1.1-1.1-1.8-2.6-1.8ZM12.7,35.5c0,1.8-3.5,4.1-6.5,4.1s-2-.5-2-1.4c0-1.9,3.6-4.1,6.3-4.1s2.1.9,2.1,1.3Z"/>
      <path class="cls-1" d="M1.9,40c-.1.2-.5,1-.5,1.8,0,1.5,1.5,2.9,4.4,2.9,5.4,0,11.7-4,11.7-7.7s-1.6-2.6-2.7-2.8h0c.3.2,1.6.8,1.6,2.2,0,3-5.5,7-11.1,7s-3.4-1-3.4-2.6.1-.8.1-.9h0Z"/>
      <path class="cls-1" d="M19.7,37.2c.1.1,1,.9,1,2.3,0,4.8-7.5,9.5-14.2,9.5s-5.8-2-5.7-3.7h0c.2.9,1.4,2.5,4.9,2.5,6.7,0,14.1-4.9,14.1-9.2s-.2-1.2-.3-1.4h0Z"/>
      <path class="cls-1" d="M22.2,41.7c0,.1.2.6.2,1.3,0,5.4-7.6,9.9-14.3,9.9s-5.2-1.7-5.6-2.3h0c.9.8,2.8,1.4,5,1.4,5.9,0,14.6-4.5,14.5-10.3h0Z"/>
    </g>
  </g>
  <g id="Layer_1" data-name="Layer 1">
    <g id="Layer_1-2" data-name="Layer 1">
      <g>
        <path class="cls-1" d="M32.3,42.5h2.8c1.1,0,1.5.4,1.5,1.3s-.4,1.3-1.5,1.3h-2.8v-2.6ZM27.9,51.9h4.4v-3.9h4.7c3.1,0,4.2-1.8,4.2-4.2s-1.2-4.3-4.3-4.3h-9.1v12.4h0ZM54.6,42.6h-7.5v1.7h6.9v3h-6.9v1.7h7.5v3h-11.9v-12.4h11.9v3ZM60.9,42.5h2.8c1.1,0,1.5.4,1.5,1.3s-.4,1.3-1.5,1.3h-2.8s0-2.6,0-2.6ZM56.5,51.9h4.4v-3.9h4.7c3.1,0,4.2-1.8,4.2-4.2s-1.2-4.3-4.3-4.3h-9.1v12.4h.1ZM74.1,46.7c-2.2-.4-3-1.8-3-3.5,0-3.2,2.8-4.1,6.5-4.1s7,1.4,7.2,4.1h-5.1c0-.5-.3-.8-.7-1-.4-.2-.9-.3-1.4-.3-1.3,0-1.8.4-1.8.9s0,.6.6.6l5.3.9c2.2.4,3.6,1.5,3.6,3.6,0,3-2.2,4.4-7.2,4.4s-7.1-.5-7.1-4.2h5.3c0,.4.2.7.5.9s.8.3,1.5.3c1.4,0,1.7-.4,1.7-1s-.2-.7-.8-.8l-5-.8h0ZM91,51.9h-4.4v-12.4h4.4v12.4ZM107.3,47.1c-.3,1.6-.8,3-1.9,3.9s-2.8,1.4-5.5,1.4-7.6-.2-7.6-6.6,5-6.6,7.6-6.6,6.7.4,7.3,5.3h-5c0-.9-.7-2.2-2.4-2.2s-2.9,1-2.9,3.5,1.1,3.5,2.7,3.5,2.2-.6,2.6-2.1h5.1ZM113.1,45.7c0-2.5,1.1-3.5,2.9-3.5s2.9,1,2.9,3.5-1.1,3.5-2.9,3.5-2.9-1-2.9-3.5ZM108.4,45.7c0,6.4,5,6.6,7.6,6.6s7.6-.2,7.6-6.6-5-6.6-7.6-6.6-7.6.2-7.6,6.6h0Z"/>
        <path class="cls-2" d="M6.2,29.7"/>
      </g>
    </g>
    <g id="Layer_1_copy" data-name="Layer 1 copy" class="cls-3">
      <g>
        <path class="cls-1" d="M21.3,49.7c.3-5.9-4.8-12.6-11.8-13.5h0c6.9,0,12.2,6.3,12.2,11.3s0,1.7-.2,2.2h-.2ZM20.9,50.4c-.5.6-1,1.1-1.7,1.7-1.2-7.2-6.5-13.4-10.2-15.2h0c3.7,3.1,8.2,9.1,9.9,15.5-.9.6-1.8,1.2-2.8,1.6-3.5-4-6.8-11.8-7.9-16.7h-.1c0,4.8,3.4,12.9,7.6,16.9-.9.4-1.9.6-2.9.8-4-1.6-6.8-6.6-6.8-11.8s1-5.4,1.2-5.9h0c-.2.3-1.7,2.4-1.7,6,0,5.8,2.9,10.3,6.7,11.7-1.4.2-2.7,0-4.1-.2h0c.4.2,1.8.8,3.9.8,4.8,0,8-3,9.3-5.2h-.4Z"/>
        <path class="cls-1" d="M11.2,34c-3.6,0-7.9,2.6-7.9,5s.8,1.7,2.6,1.7c4.1,0,7.8-2.8,7.8-5s-1.1-1.7-2.6-1.7h0ZM12.6,35.7c0,1.8-3.5,4.1-6.4,4.1s-2-.5-2-1.4c0-1.9,3.6-4.1,6.3-4.1s2.1.9,2.1,1.3h0Z"/>
        <path class="cls-1" d="M1.9,40.1c-.1.2-.5,1-.5,1.8,0,1.5,1.5,2.9,4.4,2.9,5.4,0,11.7-4,11.7-7.7s-1.6-2.6-2.7-2.8h0c.3.2,1.6.8,1.6,2.2,0,3-5.5,7-11,7s-3.4-1-3.4-2.6,0-.8,0-.9h-.2Z"/>
        <path class="cls-1" d="M19.6,37.4c.1,0,1,.9,1,2.3,0,4.8-7.5,9.5-14.2,9.5s-5.8-2-5.7-3.7h0c.2.9,1.4,2.5,4.9,2.5,6.7,0,14.1-4.9,14.1-9.2s-.2-1.2-.3-1.4h.2Z"/>
        <path class="cls-1" d="M22.1,41.9c0,0,.2.6.2,1.3,0,5.3-7.6,9.9-14.2,9.9s-5.2-1.7-5.6-2.3h0c.9.8,2.8,1.4,5,1.4,5.8,0,14.6-4.4,14.5-10.3h0Z"/>
      </g>
    </g>
  </g>
</svg>