<?xml version="1.0" encoding="UTF-8"?>
<svg version="1.1" xmlns="http://www.w3.org/2000/svg" width="125" height="96">
<path d="M0 0 C11.625 -0.25 11.625 -0.25 15 2 C15.99 1.34 16.98 0.68 18 0 C20.15625 -0.30078125 20.15625 -0.30078125 22.5 -0.3125 C23.2734375 -0.32925781 24.046875 -0.34601562 24.84375 -0.36328125 C27 0 27 0 28.78125 1.26953125 C30 3 30 3 30 7 C30.04125 7.86625 30.0825 8.7325 30.125 9.625 C30 12 30 12 28 14 C25.46875 14.265625 25.46875 14.265625 22.5 14.25 C21.5203125 14.25515625 20.540625 14.2603125 19.53125 14.265625 C17 14 17 14 15 12 C15.375 9.875 15.375 9.875 16 8 C15.01 8.66 14.02 9.32 13 10 C10.66800612 10.07905064 8.33167378 10.08798769 6 10 C6 11.32 6 12.64 6 14 C4.02 14 2.04 14 0 14 C0 9.38 0 4.76 0 0 Z M6 4 C5.67 4.66 5.34 5.32 5 6 C6.32 6 7.64 6 9 6 C9 5.34 9 4.68 9 4 C8.01 4 7.02 4 6 4 Z " fill="#FFFFFF" transform="translate(56,38)"/>
<path d="M0 0 C0.99 0.66 1.98 1.32 3 2 C3 2.66 3 3.32 3 4 C3.66 4 4.32 4 5 4 C5.33 3.01 5.66 2.02 6 1 C8.32686453 -0.16343227 9.84721413 -0.19895988 12.4375 -0.25 C13.21996094 -0.27578125 14.00242187 -0.3015625 14.80859375 -0.328125 C17 0 17 0 18.76171875 1.265625 C20.24644426 3.34517745 20.40380951 4.46476275 20.375 7 C20.38660156 8.0209375 20.38660156 8.0209375 20.3984375 9.0625 C19.86968681 11.63367981 19.14595327 12.49643621 17 14 C14.51953125 14.29296875 14.51953125 14.29296875 11.8125 14.1875 C10.91144531 14.16042969 10.01039062 14.13335937 9.08203125 14.10546875 C8.39496094 14.07066406 7.70789063 14.03585938 7 14 C6.34 12.68 5.68 11.36 5 10 C4.34 10 3.68 10 3 10 C2.34 11.32 1.68 12.64 1 14 C-0.60332791 14.08121924 -2.20784026 14.13929134 -3.8125 14.1875 C-4.70582031 14.22230469 -5.59914063 14.25710937 -6.51953125 14.29296875 C-9 14 -9 14 -10.796875 12.73828125 C-12.90930188 9.68623592 -12.6444623 6.55565409 -12 3 C-8.93883025 -1.08155967 -4.66648671 -0.37035609 0 0 Z M-5 4 C-5.66 5.32 -6.32 6.64 -7 8 C-6.67 8.66 -6.34 9.32 -6 10 C-1.05 9.01 -1.05 9.01 4 8 C4 7.34 4 6.68 4 6 C-0.455 5.01 -0.455 5.01 -5 4 Z M11 4 C9.70366379 5.06645115 9.70366379 5.06645115 9.9375 7.5625 C9.958125 8.366875 9.97875 9.17125 10 10 C11.65 9.67 13.3 9.34 15 9 C14.67 7.35 14.34 5.7 14 4 C13.01 4 12.02 4 11 4 Z " fill="#FFFFFF" transform="translate(105,38)"/>
<path d="M0 0 C3.125 1.75 3.125 1.75 5 4 C5 5.32 5 6.64 5 8 C5.66 8 6.32 8 7 8 C6.18276581 17.67338429 6.18276581 17.67338429 3.5546875 20.62109375 C-0.48590508 23.09437127 -4.2785692 23.63557722 -9 23 C-10.75 21.625 -10.75 21.625 -12 20 C-12.99 19.34 -13.98 18.68 -15 18 C-15.6875 14.875 -15.6875 14.875 -16 12 C-15.01 12 -14.02 12 -13 12 C-13.99 11.34 -14.98 10.68 -16 10 C-16 8.68 -16 7.36 -16 6 C-15.34 6 -14.68 6 -14 6 C-13.896875 5.38125 -13.79375 4.7625 -13.6875 4.125 C-11.81081756 -1.67565481 -4.92141066 -0.64260458 0 0 Z M-4 4 C-4 4.66 -4 5.32 -4 6 C-3.34 5.67 -2.68 5.34 -2 5 C-2.66 4.67 -3.32 4.34 -4 4 Z M-14 6 C-14 6.99 -14 7.98 -14 9 C-13.34 9 -12.68 9 -12 9 C-12.33 8.01 -12.66 7.02 -13 6 C-13.33 6 -13.66 6 -14 6 Z M-6 6 C-6.33 6.66 -6.66 7.32 -7 8 C-6.34 8 -5.68 8 -5 8 C-5.33 7.34 -5.66 6.68 -6 6 Z M-10 7 C-10 7.66 -10 8.32 -10 9 C-9.34 8.67 -8.68 8.34 -8 8 C-8.66 7.67 -9.32 7.34 -10 7 Z M-1 7 C-0.67 7.99 -0.34 8.98 0 10 C0.66 9.34 1.32 8.68 2 8 C1.01 7.67 0.02 7.34 -1 7 Z M-4 9 C-4.33 9.99 -4.66 10.98 -5 12 C-4.01 12 -3.02 12 -2 12 C-2.33 11.01 -2.66 10.02 -3 9 C-3.33 9 -3.66 9 -4 9 Z M-9 11 C-9.33 11.99 -9.66 12.98 -10 14 C-9.01 13.67 -8.02 13.34 -7 13 C-7 12.34 -7 11.68 -7 11 C-7.66 11 -8.32 11 -9 11 Z M2 11 C2 11.99 2 12.98 2 14 C2.66 13.01 3.32 12.02 4 11 C3.34 11 2.68 11 2 11 Z M-1 13 C-1.99 13.495 -1.99 13.495 -3 14 C-3 14.66 -3 15.32 -3 16 C-2.01 16 -1.02 16 0 16 C-0.33 15.01 -0.66 14.02 -1 13 Z M3 15 C4 17 4 17 4 17 Z M-14 16 C-12.02 16.99 -12.02 16.99 -10 18 C-10.33 17.34 -10.66 16.68 -11 16 C-11.99 16 -12.98 16 -14 16 Z M-9 16 C-8.67 16.66 -8.34 17.32 -8 18 C-7.01 17.67 -6.02 17.34 -5 17 C-6.32 16.67 -7.64 16.34 -9 16 Z M0 17 C0 17.99 0 18.98 0 20 C0.66 19.34 1.32 18.68 2 18 C1.34 17.67 0.68 17.34 0 17 Z M-4 19 C-4.33 19.66 -4.66 20.32 -5 21 C-4.34 21 -3.68 21 -3 21 C-3.33 20.34 -3.66 19.68 -4 19 Z " fill="#FFFFFF" transform="translate(16,34)"/>
<path d="M0 0 C9.1796875 -0.1953125 9.1796875 -0.1953125 12 0 C12.66 0.66 13.32 1.32 14 2 C14.33 1.34 14.66 0.68 15 0 C19.29 0 23.58 0 28 0 C28 4.62 28 9.24 28 14 C23.71 14 19.42 14 15 14 C14.67 12.35 14.34 10.7 14 9 C13.67 9.33 13.34 9.66 13 10 C10.66702567 10.04092937 8.33294775 10.04241723 6 10 C6 11.32 6 12.64 6 14 C4.02 14 2.04 14 0 14 C0 9.38 0 4.76 0 0 Z M6 4 C5.67 4.66 5.34 5.32 5 6 C6.32 6 7.64 6 9 6 C9 5.34 9 4.68 9 4 C8.01 4 7.02 4 6 4 Z " fill="#FFFFFF" transform="translate(27,38)"/>
<path d="M0 0 C1.65 0 3.3 0 5 0 C5 4.62 5 9.24 5 14 C3.35 14 1.7 14 0 14 C0 9.38 0 4.76 0 0 Z " fill="#FFFFFF" transform="translate(87,38)"/>
</svg>
