<?xml version="1.0" encoding="UTF-8"?>
<svg id="Layer_1" data-name="Layer 1" xmlns="http://www.w3.org/2000/svg" version="1.1" viewBox="0 0 125 96">
  <defs>
    <style>
      .cls-1 {
        fill: #fff;
        stroke-width: 0px;
      }
    </style>
  </defs>
  <path class="cls-1" d="M7.3,40.7c-3.2,2.1-6.4,3.5-7.1,3.7l15.6,10.9s0,0,0,0h0s0,0,0,0l-.7.5s0,0,0,0l-5.7-3.9c-2.2-1.5-4.6-1.2-6.2-.6-1.6.5-2.7,1.3-3,1.5.1,0,11.8,8.2,11.8,8.3.3-.2,2-1.8,5.5-4,3.8-2.3,6-3.1,6.5-3.3l-15.6-10.9s0,0,0,0h0s0,0,0,0l.7-.4s0,0,0,0c0,0,2.1,1.4,5.9,4,3.5,2.5,8.4-.5,9.1-.9-.1,0-11.9-8.3-12-8.4-.3.3-2.5,2.1-4.8,3.7Z"/>
  <path class="cls-1" d="M65.5,42.5v3.5h7.7s0,0,0,0c0,0,0,0,0,0l-8.1,7.5v2.9h16.3v-3.5h-8.1s0,0,0,0c0,0,0,0,0,0,0,0,8.1-7.5,8.2-7.5v-2.9c-.1,0-15.9,0-16,0h0ZM59,42.5v8.9c0,1.3-1.1,2.1-3.1,2.1s-3.1-.8-3.1-2.1v-8.9h-5v9.2c0,1.9.5,3.2,1.6,4,1.2.9,3.3,1.3,6.4,1.3s5.2-.4,6.4-1.3c1.1-.8,1.6-2,1.6-4v-9.2s-5,0-5,0ZM94.2,42.5v8.9c0,1.3-1.1,2.1-3.1,2.1s-3.1-.8-3.1-2.1v-8.9h-5v9.2c0,1.9.5,3.2,1.6,4,1.2.9,3.3,1.3,6.4,1.3s5.2-.4,6.4-1.3c1.1-.8,1.6-2,1.6-4v-9.2h-5ZM119.4,42.5v14h5.2v-14h-5.2ZM111.6,42.5s-5.7,4.9-5.7,4.9c0,0,0,0,0,0,0,0,0,0,0,0v-4.8h-5.2v14h5.2v-5s0,0,0,0c0,0,0,0,0,0,0,0,5.2,5,5.3,5h7l-7.7-7.2s0,0,0,0h0s0,0,0,0l7.9-6.8h-6.8ZM29.9,46.7c0,1.5.6,2.6,1.9,3.3,1.2.6,2.9,1,5.9,1.3h.6c1.3.1,2.7.3,2.7,1.3s-.8,1.1-2.2,1.1-1.7-.2-2.5-1.7h-6.6c0,1.6.6,2.7,1.9,3.5,1.4.9,3.8,1.3,7.2,1.3,7.6,0,8.2-3.5,8.2-4.6,0-2.5-2.2-4-6.8-4.6h-.7c-2.1-.4-3.8-.6-3.8-1.3s0-.5.3-.7c.5-.5,1.5-.5,1.9-.5h0c.4,0,1.7.1,2.7,1.6h5.9c0-3-3.2-4.7-8.6-4.7-7.1,0-7.9,3.2-7.9,4.6h0Z"/>
</svg>