<svg width="4413" height="735" viewBox="0 0 4413 735" fill="none" xmlns="http://www.w3.org/2000/svg">
<path d="M161.305 634.968C161.305 634.968 193.41 664.422 232.182 673.314C241.069 660.866 232.182 651.418 338.164 480.587C444.146 309.756 450.59 226.397 450.59 225.396C450.59 224.396 455.144 184.717 457.144 161.599C458.744 143.104 456.477 120.327 455.144 111.25C452.515 104.322 446.857 97.9566 445.257 127.921C443.257 165.378 403.042 238.4 394.488 255.072C385.934 271.744 394.377 323.76 395.265 332.652C395.976 339.765 391.562 337.616 389.266 335.653C387.008 322.463 382.112 294.284 380.601 287.082C379.09 279.88 376.121 282.525 374.824 284.748C360.692 307.846 331.054 349.435 313.835 370.33C304.95 381.111 305.392 431.386 308.169 449.688C308.169 449.688 305.058 456.802 302.17 449.688C300.541 438.203 293.738 410.001 293.06 409.12C289.728 404.785 285.136 407.082 283.284 409.12C258.288 438.092 209.174 505.15 210.63 520.266C212.496 539.65 219.85 564.65 223.294 574.727C223.294 574.727 222.961 581.285 217.629 576.617C215.185 572.06 205.075 546.163 202.964 543.829C195.966 539.161 191.855 548.83 191.855 548.83C186.745 554.832 169.118 608.516 161.305 634.968Z" fill="white"/>
<path d="M412.709 688.34C304.816 710.747 250.81 686.94 238.849 674.417C245.403 650.41 270.325 605.759 303.282 549.823C334.388 497.029 377.688 428.341 380.936 421.561C406.598 367.989 421.291 345.552 439.148 288.186C453.368 242.505 457.59 208.828 460.145 166.482C460.423 161.879 458.405 113.798 457.59 109.908C457.59 105.018 459.283 106.241 460.145 109.908C486.141 220.498 485.696 323.894 469.477 348.124C453.257 372.353 469.773 354.792 471.81 354.236C479.697 345.715 495.695 332.563 498.028 339.232C501.615 349.486 503.36 432.483 495.472 480.72C487.585 528.957 480.919 536.182 470.699 543.74C460.478 551.298 387.824 589.643 383.38 593.199C379.825 596.045 381.899 597.719 383.38 598.201C401.933 592.903 442.837 580.44 458.034 572.971C477.031 563.635 474.809 573.971 474.809 576.639C461.145 624.765 418.819 688.34 412.709 688.34Z" fill="white"/>
<path d="M660.333 367.325C660.333 549.758 512.513 697.65 330.167 697.65C147.821 697.65 0 549.758 0 367.325C0 184.892 147.821 37 330.167 37C512.513 37 660.333 184.892 660.333 367.325ZM19.265 367.325C19.265 539.114 158.46 678.376 330.167 678.376C501.873 678.376 641.068 539.114 641.068 367.325C641.068 195.536 501.873 56.2743 330.167 56.2743C158.46 56.2743 19.265 195.536 19.265 367.325Z" fill="white"/>
<mask id="path-4-outside-1_65_777" maskUnits="userSpaceOnUse" x="2583.48" y="151" width="1830" height="518" fill="black">
<rect fill="white" x="2583.48" y="151" width="1830" height="518"/>
<path d="M2590.78 549V186.791H2807.69V238.46H2652.42V334.192H2783.82V386.649H2652.42V497.331H2813.2V549H2590.78ZM2970.96 555.557C2939.84 555.557 2917.89 546.639 2905.13 528.804C2892.54 510.969 2886.25 487.539 2886.25 458.513V326.586H2847.43V280.163L2889.66 277.54L2896.74 192.037H2947.36V277.54H3017.39V326.586H2947.36V458.513C2947.36 490.861 2960.38 507.035 2986.44 507.035C2990.98 507.035 2995.62 506.598 3000.34 505.724C3005.23 504.849 3010.04 503.451 3014.76 501.527L3026.3 544.541C3018.96 547.339 3010.57 549.874 3001.12 552.147C2991.68 554.42 2981.63 555.557 2970.96 555.557ZM3184.86 555.557C3160.03 555.557 3137.56 549.962 3117.45 538.771C3097.34 527.406 3081.34 511.144 3069.45 489.987C3057.56 468.83 3051.62 443.301 3051.62 413.401C3051.62 384.026 3057.56 358.672 3069.45 337.34C3081.52 316.008 3097.08 299.571 3116.14 288.031C3135.2 276.491 3155.31 270.721 3176.46 270.721C3212.66 270.721 3240.29 282.698 3259.34 306.653C3278.4 330.433 3287.93 361.47 3287.93 399.763C3287.93 405.533 3287.67 411.128 3287.15 416.548C3286.62 421.969 3286.01 426.428 3285.31 429.925H3111.42C3113.87 454.579 3122.43 473.813 3137.12 487.626C3151.81 501.44 3170.34 508.347 3192.73 508.347C3204.79 508.347 3216.07 506.685 3226.56 503.363C3237.23 500.041 3247.54 495.32 3257.51 489.2L3277.7 526.444C3264.77 535.536 3250.43 542.705 3234.69 547.951C3218.95 553.022 3202.34 555.557 3184.86 555.557ZM3110.63 388.222H3234.95C3234.95 366.191 3230.14 349.055 3220.53 336.815C3210.91 324.401 3196.66 318.193 3177.78 318.193C3161.34 318.193 3146.74 324.226 3133.97 336.291C3121.21 348.356 3113.43 365.666 3110.63 388.222ZM3344.46 549V277.54H3394.82L3399.8 325.799H3401.11C3410.9 308.314 3422.53 294.763 3436 285.146C3449.63 275.529 3463.8 270.721 3478.49 270.721C3485.13 270.721 3490.81 271.245 3495.53 272.294C3500.25 273.169 3504.71 274.48 3508.91 276.229L3496.32 328.422C3492.12 327.373 3488.19 326.586 3484.52 326.062C3480.85 325.362 3476.12 325.013 3470.35 325.013C3459.51 325.013 3448.06 329.297 3436 337.864C3424.11 346.432 3414.05 361.207 3405.83 382.19V549H3344.46ZM3543.67 549V277.54H3594.03L3599.01 314.259H3600.32C3612.73 302.369 3626.11 292.14 3640.45 283.572C3654.96 275.005 3671.49 270.721 3690.02 270.721C3718.87 270.721 3739.94 280.163 3753.23 299.047C3766.52 317.756 3773.16 344.247 3773.16 378.518V549H3712.31V386.124C3712.31 363.568 3708.82 347.481 3701.82 337.864C3695 328.073 3683.9 323.177 3668.51 323.177C3656.45 323.177 3645.69 326.237 3636.25 332.356C3626.98 338.476 3616.58 347.219 3605.04 358.585V549H3543.67ZM3847.26 549V277.54H3908.64V549H3847.26ZM3878.47 229.018C3867.46 229.018 3858.54 225.783 3851.72 219.314C3844.9 212.669 3841.49 203.927 3841.49 193.086C3841.49 182.769 3844.9 174.376 3851.72 167.907C3858.54 161.437 3867.46 158.202 3878.47 158.202C3889.49 158.202 3898.41 161.437 3905.23 167.907C3912.05 174.376 3915.45 182.769 3915.45 193.086C3915.45 203.927 3912.05 212.669 3905.23 219.314C3898.41 225.783 3889.49 229.018 3878.47 229.018ZM4079.78 555.557C4048.65 555.557 4026.71 546.639 4013.95 528.804C4001.36 510.969 3995.06 487.539 3995.06 458.513V326.586H3956.24V280.163L3998.47 277.54L4005.55 192.037H4056.17V277.54H4126.2V326.586H4056.17V458.513C4056.17 490.861 4069.2 507.035 4095.25 507.035C4099.8 507.035 4104.43 506.598 4109.15 505.724C4114.05 504.849 4118.86 503.451 4123.58 501.527L4135.12 544.541C4127.78 547.339 4119.38 549.874 4109.94 552.147C4100.5 554.42 4090.44 555.557 4079.78 555.557ZM4194.79 661.256C4187.62 661.256 4181.24 660.731 4175.65 659.682C4170.05 658.633 4164.81 657.059 4159.91 654.961L4171.71 608.538C4179.23 610.811 4185.53 611.947 4190.6 611.947C4205.11 611.947 4216.74 607.401 4225.48 598.309C4234.4 589.216 4241.22 577.589 4245.94 563.425L4251.71 546.115L4144.17 277.54H4206.33L4254.33 413.139C4258.35 425.204 4262.37 437.793 4266.4 450.907C4270.42 464.021 4274.53 477.048 4278.72 489.987H4281.08C4284.41 477.397 4287.82 464.633 4291.31 451.694C4294.81 438.58 4298.31 425.728 4301.8 413.139L4343.77 277.54H4402.78L4303.9 562.639C4292.89 592.713 4279.25 616.668 4262.99 634.503C4246.73 652.338 4223.99 661.256 4194.79 661.256Z"/>
</mask>
<path d="M2590.78 549V186.791H2807.69V238.46H2652.42V334.192H2783.82V386.649H2652.42V497.331H2813.2V549H2590.78ZM2970.96 555.557C2939.84 555.557 2917.89 546.639 2905.13 528.804C2892.54 510.969 2886.25 487.539 2886.25 458.513V326.586H2847.43V280.163L2889.66 277.54L2896.74 192.037H2947.36V277.54H3017.39V326.586H2947.36V458.513C2947.36 490.861 2960.38 507.035 2986.44 507.035C2990.98 507.035 2995.62 506.598 3000.34 505.724C3005.23 504.849 3010.04 503.451 3014.76 501.527L3026.3 544.541C3018.96 547.339 3010.57 549.874 3001.12 552.147C2991.68 554.42 2981.63 555.557 2970.96 555.557ZM3184.86 555.557C3160.03 555.557 3137.56 549.962 3117.45 538.771C3097.34 527.406 3081.34 511.144 3069.45 489.987C3057.56 468.83 3051.62 443.301 3051.62 413.401C3051.62 384.026 3057.56 358.672 3069.45 337.34C3081.52 316.008 3097.08 299.571 3116.14 288.031C3135.2 276.491 3155.31 270.721 3176.46 270.721C3212.66 270.721 3240.29 282.698 3259.34 306.653C3278.4 330.433 3287.93 361.47 3287.93 399.763C3287.93 405.533 3287.67 411.128 3287.15 416.548C3286.62 421.969 3286.01 426.428 3285.31 429.925H3111.42C3113.87 454.579 3122.43 473.813 3137.12 487.626C3151.81 501.44 3170.34 508.347 3192.73 508.347C3204.79 508.347 3216.07 506.685 3226.56 503.363C3237.23 500.041 3247.54 495.32 3257.51 489.2L3277.7 526.444C3264.77 535.536 3250.43 542.705 3234.69 547.951C3218.95 553.022 3202.34 555.557 3184.86 555.557ZM3110.63 388.222H3234.95C3234.95 366.191 3230.14 349.055 3220.53 336.815C3210.91 324.401 3196.66 318.193 3177.78 318.193C3161.34 318.193 3146.74 324.226 3133.97 336.291C3121.21 348.356 3113.43 365.666 3110.63 388.222ZM3344.46 549V277.54H3394.82L3399.8 325.799H3401.11C3410.9 308.314 3422.53 294.763 3436 285.146C3449.63 275.529 3463.8 270.721 3478.49 270.721C3485.13 270.721 3490.81 271.245 3495.53 272.294C3500.25 273.169 3504.71 274.48 3508.91 276.229L3496.32 328.422C3492.12 327.373 3488.19 326.586 3484.52 326.062C3480.85 325.362 3476.12 325.013 3470.35 325.013C3459.51 325.013 3448.06 329.297 3436 337.864C3424.11 346.432 3414.05 361.207 3405.83 382.19V549H3344.46ZM3543.67 549V277.54H3594.03L3599.01 314.259H3600.32C3612.73 302.369 3626.11 292.14 3640.45 283.572C3654.96 275.005 3671.49 270.721 3690.02 270.721C3718.87 270.721 3739.94 280.163 3753.23 299.047C3766.52 317.756 3773.16 344.247 3773.16 378.518V549H3712.31V386.124C3712.31 363.568 3708.82 347.481 3701.82 337.864C3695 328.073 3683.9 323.177 3668.51 323.177C3656.45 323.177 3645.69 326.237 3636.25 332.356C3626.98 338.476 3616.58 347.219 3605.04 358.585V549H3543.67ZM3847.26 549V277.54H3908.64V549H3847.26ZM3878.47 229.018C3867.46 229.018 3858.54 225.783 3851.72 219.314C3844.9 212.669 3841.49 203.927 3841.49 193.086C3841.49 182.769 3844.9 174.376 3851.72 167.907C3858.54 161.437 3867.46 158.202 3878.47 158.202C3889.49 158.202 3898.41 161.437 3905.23 167.907C3912.05 174.376 3915.45 182.769 3915.45 193.086C3915.45 203.927 3912.05 212.669 3905.23 219.314C3898.41 225.783 3889.49 229.018 3878.47 229.018ZM4079.78 555.557C4048.65 555.557 4026.71 546.639 4013.95 528.804C4001.36 510.969 3995.06 487.539 3995.06 458.513V326.586H3956.24V280.163L3998.47 277.54L4005.55 192.037H4056.17V277.54H4126.2V326.586H4056.17V458.513C4056.17 490.861 4069.2 507.035 4095.25 507.035C4099.8 507.035 4104.43 506.598 4109.15 505.724C4114.05 504.849 4118.86 503.451 4123.58 501.527L4135.12 544.541C4127.78 547.339 4119.38 549.874 4109.94 552.147C4100.5 554.42 4090.44 555.557 4079.78 555.557ZM4194.79 661.256C4187.62 661.256 4181.24 660.731 4175.65 659.682C4170.05 658.633 4164.81 657.059 4159.91 654.961L4171.71 608.538C4179.23 610.811 4185.53 611.947 4190.6 611.947C4205.11 611.947 4216.74 607.401 4225.48 598.309C4234.4 589.216 4241.22 577.589 4245.94 563.425L4251.71 546.115L4144.17 277.54H4206.33L4254.33 413.139C4258.35 425.204 4262.37 437.793 4266.4 450.907C4270.42 464.021 4274.53 477.048 4278.72 489.987H4281.08C4284.41 477.397 4287.82 464.633 4291.31 451.694C4294.81 438.58 4298.31 425.728 4301.8 413.139L4343.77 277.54H4402.78L4303.9 562.639C4292.89 592.713 4279.25 616.668 4262.99 634.503C4246.73 652.338 4223.99 661.256 4194.79 661.256Z" fill="white"/>
<path d="M2590.78 549H2583.78V556H2590.78V549ZM2590.78 186.791V179.791H2583.78V186.791H2590.78ZM2807.69 186.791H2814.69V179.791H2807.69V186.791ZM2807.69 238.46V245.46H2814.69V238.46H2807.69ZM2652.42 238.46V231.46H2645.42V238.46H2652.42ZM2652.42 334.192H2645.42V341.192H2652.42V334.192ZM2783.82 334.192H2790.82V327.192H2783.82V334.192ZM2783.82 386.649V393.649H2790.82V386.649H2783.82ZM2652.42 386.649V379.649H2645.42V386.649H2652.42ZM2652.42 497.331H2645.42V504.331H2652.42V497.331ZM2813.2 497.331H2820.2V490.331H2813.2V497.331ZM2813.2 549V556H2820.2V549H2813.2ZM2590.78 549H2597.78V186.791H2590.78H2583.78V549H2590.78ZM2590.78 186.791V193.791H2807.69V186.791V179.791H2590.78V186.791ZM2807.69 186.791H2800.69V238.46H2807.69H2814.69V186.791H2807.69ZM2807.69 238.46V231.46H2652.42V238.46V245.46H2807.69V238.46ZM2652.42 238.46H2645.42V334.192H2652.42H2659.42V238.46H2652.42ZM2652.42 334.192V341.192H2783.82V334.192V327.192H2652.42V334.192ZM2783.82 334.192H2776.82V386.649H2783.82H2790.82V334.192H2783.82ZM2783.82 386.649V379.649H2652.42V386.649V393.649H2783.82V386.649ZM2652.42 386.649H2645.42V497.331H2652.42H2659.42V386.649H2652.42ZM2652.42 497.331V504.331H2813.2V497.331V490.331H2652.42V497.331ZM2813.2 497.331H2806.2V549H2813.2H2820.2V497.331H2813.2ZM2813.2 549V542H2590.78V549V556H2813.2V549ZM2905.13 528.804L2899.41 532.841L2899.42 532.86L2899.44 532.878L2905.13 528.804ZM2886.25 326.586H2893.25V319.586H2886.25V326.586ZM2847.43 326.586H2840.43V333.586H2847.43V326.586ZM2847.43 280.163L2846.99 273.176L2840.43 273.584V280.163H2847.43ZM2889.66 277.54L2890.09 284.526L2896.13 284.151L2896.63 278.118L2889.66 277.54ZM2896.74 192.037V185.037H2890.29L2889.76 191.459L2896.74 192.037ZM2947.36 192.037H2954.36V185.037H2947.36V192.037ZM2947.36 277.54H2940.36V284.54H2947.36V277.54ZM3017.39 277.54H3024.39V270.54H3017.39V277.54ZM3017.39 326.586V333.586H3024.39V326.586H3017.39ZM2947.36 326.586V319.586H2940.36V326.586H2947.36ZM3000.34 505.724L2999.11 498.833L2999.09 498.837L2999.06 498.841L3000.34 505.724ZM3014.76 501.527L3021.52 499.713L3019.47 492.052L3012.12 495.045L3014.76 501.527ZM3026.3 544.541L3028.8 551.083L3034.7 548.832L3033.06 542.727L3026.3 544.541ZM3001.12 552.147L2999.49 545.342L3001.12 552.147ZM2970.96 555.557V548.557C2941.09 548.557 2921.78 540.038 2910.82 524.73L2905.13 528.804L2899.44 532.878C2914.01 553.241 2938.59 562.557 2970.96 562.557V555.557ZM2905.13 528.804L2910.85 524.768C2899.33 508.447 2893.25 486.564 2893.25 458.513H2886.25H2879.25C2879.25 488.514 2885.75 513.492 2899.41 532.841L2905.13 528.804ZM2886.25 458.513H2893.25V326.586H2886.25H2879.25V458.513H2886.25ZM2886.25 326.586V319.586H2847.43V326.586V333.586H2886.25V326.586ZM2847.43 326.586H2854.43V280.163H2847.43H2840.43V326.586H2847.43ZM2847.43 280.163L2847.86 287.149L2890.09 284.526L2889.66 277.54L2889.22 270.553L2846.99 273.176L2847.43 280.163ZM2889.66 277.54L2896.63 278.118L2903.71 192.614L2896.74 192.037L2889.76 191.459L2882.68 276.962L2889.66 277.54ZM2896.74 192.037V199.037H2947.36V192.037V185.037H2896.74V192.037ZM2947.36 192.037H2940.36V277.54H2947.36H2954.36V192.037H2947.36ZM2947.36 277.54V284.54H3017.39V277.54V270.54H2947.36V277.54ZM3017.39 277.54H3010.39V326.586H3017.39H3024.39V277.54H3017.39ZM3017.39 326.586V319.586H2947.36V326.586V333.586H3017.39V326.586ZM2947.36 326.586H2940.36V458.513H2947.36H2954.36V326.586H2947.36ZM2947.36 458.513H2940.36C2940.36 475.443 2943.74 489.438 2951.68 499.296C2959.85 509.443 2971.88 514.035 2986.44 514.035V507.035V500.035C2974.94 500.035 2967.43 496.541 2962.58 490.514C2957.49 484.197 2954.36 473.931 2954.36 458.513H2947.36ZM2986.44 507.035V514.035C2991.43 514.035 2996.49 513.555 3001.61 512.607L3000.34 505.724L2999.06 498.841C2994.74 499.642 2990.53 500.035 2986.44 500.035V507.035ZM3000.34 505.724L3001.57 512.615C3006.96 511.652 3012.24 510.114 3017.4 508.01L3014.76 501.527L3012.12 495.045C3007.84 496.787 3003.51 498.047 2999.11 498.833L3000.34 505.724ZM3014.76 501.527L3008 503.341L3019.54 546.355L3026.3 544.541L3033.06 542.727L3021.52 499.713L3014.76 501.527ZM3026.3 544.541L3023.81 538C3016.8 540.67 3008.7 543.123 2999.49 545.342L3001.12 552.147L3002.76 558.953C3012.43 556.626 3021.12 554.008 3028.8 551.083L3026.3 544.541ZM3001.12 552.147L2999.49 545.342C2990.63 547.474 2981.13 548.557 2970.96 548.557V555.557V562.557C2982.13 562.557 2992.73 561.367 3002.76 558.953L3001.12 552.147ZM3117.45 538.771L3114.01 544.865L3114.03 544.876L3114.05 544.888L3117.45 538.771ZM3069.45 489.987L3063.35 493.416L3069.45 489.987ZM3069.45 337.34L3063.36 333.894L3063.35 333.913L3063.34 333.932L3069.45 337.34ZM3259.34 306.653L3253.87 311.011L3253.87 311.021L3253.88 311.031L3259.34 306.653ZM3287.15 416.548L3280.18 415.874L3287.15 416.548ZM3285.31 429.925V436.925H3291.05L3292.17 431.298L3285.31 429.925ZM3111.42 429.925V422.925H3103.69L3104.45 430.616L3111.42 429.925ZM3137.12 487.626L3132.33 492.726L3137.12 487.626ZM3226.56 503.363L3224.48 496.68L3224.46 496.685L3224.45 496.69L3226.56 503.363ZM3257.51 489.2L3263.66 485.863L3260.14 479.369L3253.85 483.235L3257.51 489.2ZM3277.7 526.444L3281.73 532.171L3286.83 528.587L3283.86 523.107L3277.7 526.444ZM3234.69 547.951L3236.84 554.614L3236.87 554.603L3236.9 554.592L3234.69 547.951ZM3110.63 388.222L3103.69 387.361L3102.71 395.222H3110.63V388.222ZM3234.95 388.222V395.222H3241.95V388.222H3234.95ZM3220.53 336.815L3214.99 341.102L3215.01 341.121L3215.02 341.14L3220.53 336.815ZM3184.86 555.557V548.557C3161.12 548.557 3139.84 543.22 3120.86 532.654L3117.45 538.771L3114.05 544.888C3135.28 556.703 3158.93 562.557 3184.86 562.557V555.557ZM3117.45 538.771L3120.9 532.677C3101.96 521.973 3086.85 506.66 3075.56 486.558L3069.45 489.987L3063.35 493.416C3075.83 515.629 3092.73 532.838 3114.01 544.865L3117.45 538.771ZM3069.45 489.987L3075.56 486.558C3064.38 466.664 3058.62 442.376 3058.62 413.401H3051.62H3044.62C3044.62 444.226 3050.75 470.995 3063.35 493.416L3069.45 489.987ZM3051.62 413.401H3058.62C3058.62 384.977 3064.37 360.846 3075.57 340.748L3069.45 337.34L3063.34 333.932C3050.76 356.498 3044.62 383.074 3044.62 413.401H3051.62ZM3069.45 337.34L3075.55 340.786C3087.08 320.392 3101.83 304.877 3119.77 294.019L3116.14 288.031L3112.51 282.043C3092.33 294.266 3075.96 311.624 3063.36 333.894L3069.45 337.34ZM3116.14 288.031L3119.77 294.019C3137.79 283.104 3156.65 277.721 3176.46 277.721V270.721V263.721C3153.96 263.721 3132.61 269.878 3112.51 282.043L3116.14 288.031ZM3176.46 270.721V277.721C3210.96 277.721 3236.39 289.038 3253.87 311.011L3259.34 306.653L3264.82 302.295C3244.19 276.358 3214.36 263.721 3176.46 263.721V270.721ZM3259.34 306.653L3253.88 311.031C3271.71 333.278 3280.93 362.644 3280.93 399.763H3287.93H3294.93C3294.93 360.295 3285.09 327.588 3264.81 302.275L3259.34 306.653ZM3287.93 399.763H3280.93C3280.93 405.321 3280.68 410.691 3280.18 415.874L3287.15 416.548L3294.11 417.223C3294.66 411.565 3294.93 405.745 3294.93 399.763H3287.93ZM3287.15 416.548L3280.18 415.874C3279.67 421.168 3279.08 425.372 3278.45 428.552L3285.31 429.925L3292.17 431.298C3292.94 427.483 3293.58 422.769 3294.11 417.223L3287.15 416.548ZM3285.31 429.925V422.925H3111.42V429.925V436.925H3285.31V429.925ZM3111.42 429.925L3104.45 430.616C3107.03 456.553 3116.14 477.504 3132.33 492.726L3137.12 487.626L3141.92 482.527C3128.73 470.122 3120.71 452.605 3118.38 429.233L3111.42 429.925ZM3137.12 487.626L3132.33 492.726C3148.46 507.898 3168.78 515.347 3192.73 515.347V508.347V501.347C3171.91 501.347 3155.16 494.981 3141.92 482.527L3137.12 487.626ZM3192.73 508.347V515.347C3205.44 515.347 3217.44 513.595 3228.67 510.037L3226.56 503.363L3224.45 496.69C3214.7 499.776 3204.14 501.347 3192.73 501.347V508.347ZM3226.56 503.363L3228.64 510.047C3239.89 506.544 3250.73 501.575 3261.17 495.165L3257.51 489.2L3253.85 483.235C3244.35 489.065 3234.56 493.538 3224.48 496.68L3226.56 503.363ZM3257.51 489.2L3251.36 492.537L3271.55 529.781L3277.7 526.444L3283.86 523.107L3263.66 485.863L3257.51 489.2ZM3277.7 526.444L3273.68 520.717C3261.32 529.399 3247.6 536.269 3232.48 541.31L3234.69 547.951L3236.9 554.592C3253.25 549.142 3268.21 541.673 3281.73 532.171L3277.7 526.444ZM3234.69 547.951L3232.54 541.288C3217.54 546.123 3201.66 548.557 3184.86 548.557V555.557V562.557C3203.03 562.557 3220.37 559.92 3236.84 554.614L3234.69 547.951ZM3110.63 388.222V395.222H3234.95V388.222V381.222H3110.63V388.222ZM3234.95 388.222H3241.95C3241.95 365.259 3236.95 346.385 3226.03 332.49L3220.53 336.815L3215.02 341.14C3223.34 351.725 3227.95 367.122 3227.95 388.222H3234.95ZM3220.53 336.815L3226.06 332.528C3214.84 318.049 3198.34 311.193 3177.78 311.193V318.193V325.193C3194.98 325.193 3206.98 330.752 3214.99 341.102L3220.53 336.815ZM3177.78 318.193V311.193C3159.42 311.193 3143.13 318.003 3129.17 331.204L3133.97 336.291L3138.78 341.378C3150.35 330.449 3163.26 325.193 3177.78 325.193V318.193ZM3133.97 336.291L3129.17 331.204C3114.91 344.679 3106.62 363.672 3103.69 387.361L3110.63 388.222L3117.58 389.084C3120.24 367.66 3127.51 352.032 3138.78 341.378L3133.97 336.291ZM3344.46 549H3337.46V556H3344.46V549ZM3344.46 277.54V270.54H3337.46V277.54H3344.46ZM3394.82 277.54L3401.78 276.821L3401.13 270.54H3394.82V277.54ZM3399.8 325.799L3392.84 326.518L3393.49 332.799H3399.8V325.799ZM3401.11 325.799V332.799H3405.22L3407.22 329.22L3401.11 325.799ZM3436 285.146L3431.96 279.425L3431.94 279.438L3431.93 279.45L3436 285.146ZM3495.53 272.294L3494.01 279.128L3494.14 279.155L3494.26 279.177L3495.53 272.294ZM3508.91 276.229L3515.71 277.87L3517.12 272.064L3511.6 269.767L3508.91 276.229ZM3496.32 328.422L3494.62 335.213L3501.47 336.925L3503.13 330.064L3496.32 328.422ZM3484.52 326.062L3483.21 332.938L3483.37 332.968L3483.53 332.991L3484.52 326.062ZM3436 337.864L3431.94 332.157L3431.92 332.171L3431.9 332.185L3436 337.864ZM3405.83 382.19L3399.32 379.637L3398.83 380.868V382.19H3405.83ZM3405.83 549V556H3412.83V549H3405.83ZM3344.46 549H3351.46V277.54H3344.46H3337.46V549H3344.46ZM3344.46 277.54V284.54H3394.82V277.54V270.54H3344.46V277.54ZM3394.82 277.54L3387.85 278.259L3392.84 326.518L3399.8 325.799L3406.76 325.08L3401.78 276.821L3394.82 277.54ZM3399.8 325.799V332.799H3401.11V325.799V318.799H3399.8V325.799ZM3401.11 325.799L3407.22 329.22C3416.61 312.447 3427.6 299.747 3440.06 290.842L3436 285.146L3431.93 279.45C3417.47 289.779 3405.2 304.181 3395.01 322.379L3401.11 325.799ZM3436 285.146L3440.03 290.867C3452.65 281.965 3465.43 277.721 3478.49 277.721V270.721V263.721C3462.16 263.721 3446.61 269.094 3431.96 279.425L3436 285.146ZM3478.49 270.721V277.721C3484.79 277.721 3489.94 278.222 3494.01 279.128L3495.53 272.294L3497.05 265.461C3491.69 264.269 3485.47 263.721 3478.49 263.721V270.721ZM3495.53 272.294L3494.26 279.177C3498.52 279.967 3502.5 281.142 3506.22 282.69L3508.91 276.229L3511.6 269.767C3506.92 267.818 3501.99 266.371 3496.81 265.411L3495.53 272.294ZM3508.91 276.229L3502.1 274.587L3489.52 326.781L3496.32 328.422L3503.13 330.064L3515.71 277.87L3508.91 276.229ZM3496.32 328.422L3498.02 321.631C3493.63 320.533 3489.45 319.696 3485.51 319.132L3484.52 326.062L3483.53 332.991C3486.93 333.477 3490.62 334.213 3494.62 335.213L3496.32 328.422ZM3484.52 326.062L3485.83 319.185C3481.56 318.372 3476.35 318.013 3470.35 318.013V325.013V332.013C3475.89 332.013 3480.13 332.353 3483.21 332.938L3484.52 326.062ZM3470.35 325.013V318.013C3457.62 318.013 3444.77 323.049 3431.94 332.157L3436 337.864L3440.05 343.572C3451.35 335.544 3461.41 332.013 3470.35 332.013V325.013ZM3436 337.864L3431.9 332.185C3418.48 341.857 3407.78 358.025 3399.32 379.637L3405.83 382.19L3412.35 384.743C3420.32 364.39 3429.73 351.007 3440.09 343.544L3436 337.864ZM3405.83 382.19H3398.83V549H3405.83H3412.83V382.19H3405.83ZM3405.83 549V542H3344.46V549V556H3405.83V549ZM3543.67 549H3536.67V556H3543.67V549ZM3543.67 277.54V270.54H3536.67V277.54H3543.67ZM3594.03 277.54L3600.96 276.599L3600.14 270.54H3594.03V277.54ZM3599.01 314.259L3592.07 315.201L3592.89 321.259H3599.01V314.259ZM3600.32 314.259V321.259H3603.13L3605.16 319.315L3600.32 314.259ZM3640.45 283.572L3636.89 277.544L3636.87 277.554L3636.86 277.563L3640.45 283.572ZM3753.23 299.047L3747.5 303.075L3747.51 303.088L3747.52 303.1L3753.23 299.047ZM3773.16 549V556H3780.16V549H3773.16ZM3712.31 549H3705.31V556H3712.31V549ZM3701.82 337.864L3696.08 341.865L3696.12 341.924L3696.16 341.982L3701.82 337.864ZM3636.25 332.356L3632.44 326.482L3632.42 326.499L3632.39 326.515L3636.25 332.356ZM3605.04 358.585L3600.13 353.597L3598.04 355.654V358.585H3605.04ZM3605.04 549V556H3612.04V549H3605.04ZM3543.67 549H3550.67V277.54H3543.67H3536.67V549H3543.67ZM3543.67 277.54V284.54H3594.03V277.54V270.54H3543.67V277.54ZM3594.03 277.54L3587.09 278.481L3592.07 315.201L3599.01 314.259L3605.94 313.318L3600.96 276.599L3594.03 277.54ZM3599.01 314.259V321.259H3600.32V314.259V307.259H3599.01V314.259ZM3600.32 314.259L3605.16 319.315C3617.21 307.778 3630.17 297.871 3644.04 289.581L3640.45 283.572L3636.86 277.563C3622.06 286.409 3608.26 296.961 3595.48 309.204L3600.32 314.259ZM3640.45 283.572L3644.01 289.6C3657.34 281.731 3672.61 277.721 3690.02 277.721V270.721V263.721C3670.36 263.721 3652.59 268.278 3636.89 277.544L3640.45 283.572ZM3690.02 270.721V277.721C3717.23 277.721 3735.86 286.521 3747.5 303.075L3753.23 299.047L3758.95 295.018C3744.03 273.804 3720.51 263.721 3690.02 263.721V270.721ZM3753.23 299.047L3747.52 303.1C3759.65 320.172 3766.16 345.021 3766.16 378.518H3773.16H3780.16C3780.16 343.472 3773.39 315.34 3758.94 294.993L3753.23 299.047ZM3773.16 378.518H3766.16V549H3773.16H3780.16V378.518H3773.16ZM3773.16 549V542H3712.31V549V556H3773.16V549ZM3712.31 549H3719.31V386.124H3712.31H3705.31V549H3712.31ZM3712.31 386.124H3719.31C3719.31 363.223 3715.84 345.233 3707.48 333.747L3701.82 337.864L3696.16 341.982C3701.8 349.73 3705.31 363.912 3705.31 386.124H3712.31ZM3701.82 337.864L3707.57 333.864C3699.07 321.659 3685.45 316.177 3668.51 316.177V323.177V330.177C3682.35 330.177 3690.94 334.486 3696.08 341.865L3701.82 337.864ZM3668.51 323.177V316.177C3655.2 316.177 3643.1 319.574 3632.44 326.482L3636.25 332.356L3640.06 338.231C3648.28 332.899 3657.7 330.177 3668.51 330.177V323.177ZM3636.25 332.356L3632.39 326.515C3622.62 332.97 3611.86 342.044 3600.13 353.597L3605.04 358.585L3609.95 363.572C3621.3 352.394 3631.35 343.983 3640.11 338.198L3636.25 332.356ZM3605.04 358.585H3598.04V549H3605.04H3612.04V358.585H3605.04ZM3605.04 549V542H3543.67V549V556H3605.04V549ZM3847.26 549H3840.26V556H3847.26V549ZM3847.26 277.54V270.54H3840.26V277.54H3847.26ZM3908.64 277.54H3915.64V270.54H3908.64V277.54ZM3908.64 549V556H3915.64V549H3908.64ZM3851.72 219.314L3846.84 224.327L3846.87 224.36L3846.9 224.392L3851.72 219.314ZM3905.23 219.314L3910.04 224.392L3910.08 224.36L3910.11 224.327L3905.23 219.314ZM3847.26 549H3854.26V277.54H3847.26H3840.26V549H3847.26ZM3847.26 277.54V284.54H3908.64V277.54V270.54H3847.26V277.54ZM3908.64 277.54H3901.64V549H3908.64H3915.64V277.54H3908.64ZM3908.64 549V542H3847.26V549V556H3908.64V549ZM3878.47 229.018V222.018C3868.92 222.018 3861.84 219.262 3856.54 214.235L3851.72 219.314L3846.9 224.392C3855.24 232.305 3865.99 236.018 3878.47 236.018V229.018ZM3851.72 219.314L3856.61 214.3C3851.33 209.16 3848.49 202.324 3848.49 193.086H3841.49H3834.49C3834.49 205.529 3838.47 216.178 3846.84 224.327L3851.72 219.314ZM3841.49 193.086H3848.49C3848.49 184.482 3851.26 177.996 3856.54 172.985L3851.72 167.907L3846.9 162.828C3838.55 170.756 3834.49 181.056 3834.49 193.086H3841.49ZM3851.72 167.907L3856.54 172.985C3861.84 167.959 3868.92 165.202 3878.47 165.202V158.202V151.202C3865.99 151.202 3855.24 154.915 3846.9 162.828L3851.72 167.907ZM3878.47 158.202V165.202C3888.03 165.202 3895.11 167.959 3900.41 172.985L3905.23 167.907L3910.04 162.828C3901.7 154.915 3890.95 151.202 3878.47 151.202V158.202ZM3905.23 167.907L3900.41 172.985C3905.69 177.996 3908.45 184.482 3908.45 193.086H3915.45H3922.45C3922.45 181.056 3918.4 170.756 3910.04 162.828L3905.23 167.907ZM3915.45 193.086H3908.45C3908.45 202.324 3905.62 209.16 3900.34 214.3L3905.23 219.314L3910.11 224.327C3918.47 216.178 3922.45 205.529 3922.45 193.086H3915.45ZM3905.23 219.314L3900.41 214.235C3895.11 219.262 3888.03 222.018 3878.47 222.018V229.018V236.018C3890.95 236.018 3901.7 232.305 3910.04 224.392L3905.23 219.314ZM4013.95 528.804L4008.23 532.841L4008.24 532.86L4008.25 532.878L4013.95 528.804ZM3995.06 326.586H4002.06V319.586H3995.06V326.586ZM3956.24 326.586H3949.24V333.586H3956.24V326.586ZM3956.24 280.163L3955.81 273.176L3949.24 273.584V280.163H3956.24ZM3998.47 277.54L3998.91 284.526L4004.95 284.151L4005.45 278.118L3998.47 277.54ZM4005.55 192.037V185.037H3999.11L3998.58 191.459L4005.55 192.037ZM4056.17 192.037H4063.17V185.037H4056.17V192.037ZM4056.17 277.54H4049.17V284.54H4056.17V277.54ZM4126.2 277.54H4133.2V270.54H4126.2V277.54ZM4126.2 326.586V333.586H4133.2V326.586H4126.2ZM4056.17 326.586V319.586H4049.17V326.586H4056.17ZM4109.15 505.724L4107.92 498.833L4107.9 498.837L4107.88 498.841L4109.15 505.724ZM4123.58 501.527L4130.34 499.713L4128.28 492.052L4120.94 495.045L4123.58 501.527ZM4135.12 544.541L4137.61 551.083L4143.52 548.832L4141.88 542.727L4135.12 544.541ZM4109.94 552.147L4108.3 545.342L4109.94 552.147ZM4079.78 555.557V548.557C4049.9 548.557 4030.59 540.038 4019.64 524.73L4013.95 528.804L4008.25 532.878C4022.83 553.241 4047.41 562.557 4079.78 562.557V555.557ZM4013.95 528.804L4019.67 524.768C4008.14 508.447 4002.06 486.564 4002.06 458.513H3995.06H3988.06C3988.06 488.514 3994.57 513.492 4008.23 532.841L4013.95 528.804ZM3995.06 458.513H4002.06V326.586H3995.06H3988.06V458.513H3995.06ZM3995.06 326.586V319.586H3956.24V326.586V333.586H3995.06V326.586ZM3956.24 326.586H3963.24V280.163H3956.24H3949.24V326.586H3956.24ZM3956.24 280.163L3956.68 287.149L3998.91 284.526L3998.47 277.54L3998.04 270.553L3955.81 273.176L3956.24 280.163ZM3998.47 277.54L4005.45 278.118L4012.53 192.614L4005.55 192.037L3998.58 191.459L3991.5 276.962L3998.47 277.54ZM4005.55 192.037V199.037H4056.17V192.037V185.037H4005.55V192.037ZM4056.17 192.037H4049.17V277.54H4056.17H4063.17V192.037H4056.17ZM4056.17 277.54V284.54H4126.2V277.54V270.54H4056.17V277.54ZM4126.2 277.54H4119.2V326.586H4126.2H4133.2V277.54H4126.2ZM4126.2 326.586V319.586H4056.17V326.586V333.586H4126.2V326.586ZM4056.17 326.586H4049.17V458.513H4056.17H4063.17V326.586H4056.17ZM4056.17 458.513H4049.17C4049.17 475.443 4052.55 489.438 4060.49 499.296C4068.66 509.443 4080.7 514.035 4095.25 514.035V507.035V500.035C4083.76 500.035 4076.25 496.541 4071.4 490.514C4066.31 484.197 4063.17 473.931 4063.17 458.513H4056.17ZM4095.25 507.035V514.035C4100.25 514.035 4105.31 513.555 4110.43 512.607L4109.15 505.724L4107.88 498.841C4103.56 499.642 4099.35 500.035 4095.25 500.035V507.035ZM4109.15 505.724L4110.38 512.615C4115.78 511.652 4121.06 510.114 4126.22 508.01L4123.58 501.527L4120.94 495.045C4116.66 496.787 4112.32 498.047 4107.92 498.833L4109.15 505.724ZM4123.58 501.527L4116.82 503.341L4128.36 546.355L4135.12 544.541L4141.88 542.727L4130.34 499.713L4123.58 501.527ZM4135.12 544.541L4132.63 538C4125.62 540.67 4117.52 543.123 4108.3 545.342L4109.94 552.147L4111.58 558.953C4121.25 556.626 4129.93 554.008 4137.61 551.083L4135.12 544.541ZM4109.94 552.147L4108.3 545.342C4099.45 547.474 4089.95 548.557 4079.78 548.557V555.557V562.557C4090.94 562.557 4101.55 561.367 4111.58 558.953L4109.94 552.147ZM4159.91 654.961L4153.13 653.236L4151.65 659.037L4157.15 661.395L4159.91 654.961ZM4171.71 608.538L4173.74 601.837L4166.73 599.719L4164.93 606.813L4171.71 608.538ZM4225.48 598.309L4220.48 593.407L4220.46 593.432L4220.43 593.457L4225.48 598.309ZM4251.71 546.115L4258.35 548.329L4259.16 545.895L4258.21 543.513L4251.71 546.115ZM4144.17 277.54V270.54H4133.83L4137.68 280.142L4144.17 277.54ZM4206.33 277.54L4212.93 275.204L4211.28 270.54H4206.33V277.54ZM4254.33 413.139L4260.97 410.925L4260.95 410.864L4260.93 410.803L4254.33 413.139ZM4278.72 489.987L4272.06 492.146L4273.63 496.987H4278.72V489.987ZM4281.08 489.987V496.987H4286.48L4287.85 491.773L4281.08 489.987ZM4291.31 451.694L4298.07 453.52L4298.07 453.509L4298.08 453.498L4291.31 451.694ZM4301.8 413.139L4295.12 411.069L4295.09 411.167L4295.06 411.265L4301.8 413.139ZM4343.77 277.54V270.54H4338.61L4337.08 275.47L4343.77 277.54ZM4402.78 277.54L4409.4 279.834L4412.62 270.54H4402.78V277.54ZM4303.9 562.639L4310.48 565.046L4310.5 564.989L4310.52 564.932L4303.9 562.639ZM4194.79 661.256V654.256C4187.95 654.256 4182.01 653.754 4176.94 652.802L4175.65 659.682L4174.36 666.562C4180.47 667.709 4187.3 668.256 4194.79 668.256V661.256ZM4175.65 659.682L4176.94 652.802C4171.81 651.841 4167.06 650.41 4162.67 648.527L4159.91 654.961L4157.15 661.395C4162.55 663.709 4168.29 665.425 4174.36 666.562L4175.65 659.682ZM4159.91 654.961L4166.69 656.686L4178.5 610.262L4171.71 608.538L4164.93 606.813L4153.13 653.236L4159.91 654.961ZM4171.71 608.538L4169.69 615.238C4177.54 617.614 4184.57 618.947 4190.6 618.947V611.947V604.947C4186.48 604.947 4180.92 604.008 4173.74 601.837L4171.71 608.538ZM4190.6 611.947V618.947C4206.7 618.947 4220.26 613.836 4230.53 603.16L4225.48 598.309L4220.43 593.457C4213.21 600.967 4203.52 604.947 4190.6 604.947V611.947ZM4225.48 598.309L4230.48 603.21C4240.26 593.238 4247.58 580.638 4252.58 565.639L4245.94 563.425L4239.3 561.212C4234.86 574.539 4228.54 585.195 4220.48 593.407L4225.48 598.309ZM4245.94 563.425L4252.58 565.639L4258.35 548.329L4251.71 546.115L4245.07 543.901L4239.3 561.212L4245.94 563.425ZM4251.71 546.115L4258.21 543.513L4150.67 274.938L4144.17 277.54L4137.68 280.142L4245.21 548.717L4251.71 546.115ZM4144.17 277.54V284.54H4206.33V277.54V270.54H4144.17V277.54ZM4206.33 277.54L4199.74 279.876L4247.73 415.475L4254.33 413.139L4260.93 410.803L4212.93 275.204L4206.33 277.54ZM4254.33 413.139L4247.69 415.352C4251.69 427.36 4255.7 439.895 4259.7 452.96L4266.4 450.907L4273.09 448.855C4269.05 435.691 4265.01 423.048 4260.97 410.925L4254.33 413.139ZM4266.4 450.907L4259.7 452.96C4263.74 466.109 4267.86 479.171 4272.06 492.146L4278.72 489.987L4285.38 487.827C4281.2 474.924 4277.1 461.933 4273.09 448.855L4266.4 450.907ZM4278.72 489.987V496.987H4281.08V489.987V482.987H4278.72V489.987ZM4281.08 489.987L4287.85 491.773C4291.17 479.197 4294.58 466.447 4298.07 453.52L4291.31 451.694L4284.56 449.868C4281.05 462.82 4277.64 475.598 4274.32 488.201L4281.08 489.987ZM4291.31 451.694L4298.08 453.498C4301.57 440.406 4305.06 427.578 4308.55 415.012L4301.8 413.139L4295.06 411.265C4291.56 423.879 4288.05 436.754 4284.55 449.89L4291.31 451.694ZM4301.8 413.139L4308.49 415.208L4350.46 279.609L4343.77 277.54L4337.08 275.47L4295.12 411.069L4301.8 413.139ZM4343.77 277.54V284.54H4402.78V277.54V270.54H4343.77V277.54ZM4402.78 277.54L4396.17 275.246L4297.29 560.345L4303.9 562.639L4310.52 564.932L4409.4 279.834L4402.78 277.54ZM4303.9 562.639L4297.33 560.231C4286.53 589.717 4273.3 612.804 4257.81 629.787L4262.99 634.503L4268.16 639.22C4285.2 620.533 4299.24 595.71 4310.48 565.046L4303.9 562.639ZM4262.99 634.503L4257.81 629.787C4243.15 645.867 4222.47 654.256 4194.79 654.256V661.256V668.256C4225.52 668.256 4250.3 658.81 4268.16 639.22L4262.99 634.503Z" fill="white" mask="url(#path-4-outside-1_65_777)"/>
<mask id="path-6-outside-2_65_777" maskUnits="userSpaceOnUse" x="702.482" y="150" width="1846" height="413" fill="black">
<rect fill="white" x="702.482" y="150" width="1846" height="413"/>
<path d="M815.655 549V238.46H710.48V186.791H982.465V238.46H877.29V549H815.655ZM1116.52 555.557C1093.97 555.557 1072.9 550.049 1053.31 539.033C1033.9 527.843 1018.17 511.669 1006.1 490.511C994.037 469.179 988.004 443.476 988.004 413.401C988.004 383.326 994.037 357.71 1006.1 336.553C1018.17 315.221 1033.9 298.959 1053.31 287.769C1072.9 276.403 1093.97 270.721 1116.52 270.721C1139.08 270.721 1160.15 276.403 1179.73 287.769C1199.31 298.959 1215.14 315.221 1227.2 336.553C1239.27 357.71 1245.3 383.326 1245.3 413.401C1245.3 443.476 1239.27 469.179 1227.2 490.511C1215.14 511.669 1199.31 527.843 1179.73 539.033C1160.15 550.049 1139.08 555.557 1116.52 555.557ZM1116.52 505.986C1136.98 505.986 1153.07 497.506 1164.78 480.545C1176.67 463.584 1182.62 441.203 1182.62 413.401C1182.62 385.599 1176.67 363.218 1164.78 346.257C1153.07 329.297 1136.98 320.816 1116.52 320.816C1096.06 320.816 1079.98 329.297 1068.26 346.257C1056.72 363.218 1050.95 385.599 1050.95 413.401C1050.95 441.203 1056.72 463.584 1068.26 480.545C1079.98 497.506 1096.06 505.986 1116.52 505.986ZM1322.18 549L1249.79 277.54H1311.17L1345.26 420.483C1348.06 433.772 1350.51 446.798 1352.61 459.562C1354.88 472.327 1357.24 485.353 1359.69 498.642H1362.05C1364.67 485.353 1367.38 472.239 1370.18 459.3C1372.98 446.186 1376.12 433.247 1379.62 420.483L1415.81 277.54H1471.94L1508.66 420.483C1511.98 433.772 1515.04 446.798 1517.84 459.562C1520.81 472.327 1523.87 485.353 1527.02 498.642H1529.12C1531.74 485.353 1534.19 472.327 1536.46 459.562C1538.91 446.798 1541.53 433.772 1544.33 420.483L1577.64 277.54H1634.82L1565.31 549H1492.66L1460.14 419.434C1456.99 406.844 1454.11 394.167 1451.48 381.403C1448.86 368.464 1446.06 354.913 1443.09 340.749H1440.99C1438.37 354.913 1435.75 368.464 1433.13 381.403C1430.5 394.342 1427.53 407.106 1424.21 419.696L1392.73 549H1322.18ZM1722.19 555.557C1698.58 555.557 1679.26 548.388 1664.23 534.05C1649.36 519.537 1641.93 500.391 1641.93 476.611C1641.93 447.41 1654.7 424.854 1680.22 408.942C1705.75 392.856 1746.58 381.753 1802.71 375.633C1802.36 360.77 1798.6 347.831 1791.43 336.815C1784.26 325.625 1771.24 320.029 1752.35 320.029C1738.54 320.029 1725.16 322.652 1712.22 327.898C1699.28 332.968 1686.96 339.088 1675.24 346.257L1652.69 306.391C1667.2 296.949 1683.9 288.643 1702.78 281.474C1721.67 274.305 1741.95 270.721 1763.63 270.721C1797.38 270.721 1822.47 280.862 1838.9 301.145C1855.52 321.428 1863.82 350.279 1863.82 387.698V549H1813.46L1809 518.575H1807.17C1794.93 529.067 1781.73 537.897 1767.56 545.066C1753.4 552.06 1738.28 555.557 1722.19 555.557ZM1741.6 507.56C1752.79 507.56 1763.11 505.024 1772.55 499.954C1782.16 494.708 1792.22 487.189 1802.71 477.397V413.926C1764.42 418.996 1737.84 426.34 1722.98 435.957C1708.29 445.574 1700.95 457.464 1700.95 471.627C1700.95 484.217 1704.7 493.397 1712.22 499.167C1719.92 504.762 1729.71 507.56 1741.6 507.56ZM1909.23 549V277.54H1959.58L1964.57 325.799H1965.88C1975.67 308.314 1987.3 294.763 2000.76 285.146C2014.4 275.529 2028.56 270.721 2043.25 270.721C2049.9 270.721 2055.58 271.245 2060.3 272.294C2065.02 273.169 2069.48 274.48 2073.68 276.229L2061.09 328.422C2056.89 327.373 2052.96 326.586 2049.28 326.062C2045.61 325.362 2040.89 325.013 2035.12 325.013C2024.28 325.013 2012.83 329.297 2000.76 337.864C1988.87 346.432 1978.82 361.207 1970.6 382.19V549H1909.23ZM2176.26 555.557C2142.51 555.557 2115.5 543.142 2095.22 518.313C2075.11 493.309 2065.05 458.338 2065.05 413.401C2065.05 384.026 2070.47 358.672 2081.31 337.34C2092.16 316.008 2106.32 299.571 2123.8 288.031C2141.46 276.491 2160.26 270.721 2180.19 270.721C2195.41 270.721 2208.52 273.431 2219.54 278.851C2230.55 284.272 2241.39 291.616 2252.06 300.883L2249.96 257.082V157.678H2311.07V549H2260.71L2256.26 519.1H2254.42C2244.1 529.416 2232.21 538.072 2218.75 545.066C2205.29 552.06 2191.12 555.557 2176.26 555.557ZM2191.47 505.199C2212.28 505.199 2231.78 494.708 2249.96 473.726V344.946C2240.17 336.378 2230.55 330.258 2221.11 326.586C2211.67 322.914 2202.23 321.078 2192.78 321.078C2174.95 321.078 2159.56 329.209 2146.62 345.47C2133.86 361.732 2127.48 384.288 2127.48 413.139C2127.48 443.039 2133.07 465.857 2144.26 481.594C2155.45 497.331 2171.19 505.199 2191.47 505.199ZM2436.21 555.557C2417.15 555.557 2398.53 552.147 2380.35 545.328C2362.34 538.509 2346.86 528.804 2333.92 516.215L2360.94 481.332C2384.02 500.041 2409.72 509.396 2438.05 509.396C2453.08 509.396 2464.28 506.161 2471.62 499.691C2479.14 493.222 2482.9 485.091 2482.9 475.299C2482.9 463.759 2477.04 454.929 2465.32 448.809C2453.78 442.514 2440.41 436.657 2425.2 431.236C2412.08 426.34 2399.67 420.483 2387.95 413.663C2376.41 406.844 2367.06 398.364 2359.89 388.222C2352.72 378.081 2349.13 365.754 2349.13 351.241C2349.13 328.16 2357.79 309.014 2375.1 293.801C2392.41 278.414 2416.28 270.721 2446.7 270.721C2465.06 270.721 2481.76 273.868 2496.8 280.163C2512.01 286.283 2525.12 293.976 2536.14 303.243L2509.65 338.127C2490.24 324.138 2469.78 317.144 2448.28 317.144C2433.94 317.144 2423.45 320.292 2416.8 326.586C2410.16 332.706 2406.84 339.963 2406.84 348.356C2406.84 358.847 2411.64 366.803 2421.26 372.223C2430.88 377.644 2444.08 383.326 2460.87 389.271C2474.85 394.167 2487.88 400.025 2499.95 406.844C2512.18 413.489 2522.06 422.056 2529.58 432.548C2537.1 443.039 2540.86 456.24 2540.86 472.152C2540.86 495.233 2531.86 514.904 2513.85 531.165C2496.01 547.426 2470.13 555.557 2436.21 555.557Z"/>
</mask>
<path d="M815.655 549V238.46H710.48V186.791H982.465V238.46H877.29V549H815.655ZM1116.52 555.557C1093.97 555.557 1072.9 550.049 1053.31 539.033C1033.9 527.843 1018.17 511.669 1006.1 490.511C994.037 469.179 988.004 443.476 988.004 413.401C988.004 383.326 994.037 357.71 1006.1 336.553C1018.17 315.221 1033.9 298.959 1053.31 287.769C1072.9 276.403 1093.97 270.721 1116.52 270.721C1139.08 270.721 1160.15 276.403 1179.73 287.769C1199.31 298.959 1215.14 315.221 1227.2 336.553C1239.27 357.71 1245.3 383.326 1245.3 413.401C1245.3 443.476 1239.27 469.179 1227.2 490.511C1215.14 511.669 1199.31 527.843 1179.73 539.033C1160.15 550.049 1139.08 555.557 1116.52 555.557ZM1116.52 505.986C1136.98 505.986 1153.07 497.506 1164.78 480.545C1176.67 463.584 1182.62 441.203 1182.62 413.401C1182.62 385.599 1176.67 363.218 1164.78 346.257C1153.07 329.297 1136.98 320.816 1116.52 320.816C1096.06 320.816 1079.98 329.297 1068.26 346.257C1056.72 363.218 1050.95 385.599 1050.95 413.401C1050.95 441.203 1056.72 463.584 1068.26 480.545C1079.98 497.506 1096.06 505.986 1116.52 505.986ZM1322.18 549L1249.79 277.54H1311.17L1345.26 420.483C1348.06 433.772 1350.51 446.798 1352.61 459.562C1354.88 472.327 1357.24 485.353 1359.69 498.642H1362.05C1364.67 485.353 1367.38 472.239 1370.18 459.3C1372.98 446.186 1376.12 433.247 1379.62 420.483L1415.81 277.54H1471.94L1508.66 420.483C1511.98 433.772 1515.04 446.798 1517.84 459.562C1520.81 472.327 1523.87 485.353 1527.02 498.642H1529.12C1531.74 485.353 1534.19 472.327 1536.46 459.562C1538.91 446.798 1541.53 433.772 1544.33 420.483L1577.64 277.54H1634.82L1565.31 549H1492.66L1460.14 419.434C1456.99 406.844 1454.11 394.167 1451.48 381.403C1448.86 368.464 1446.06 354.913 1443.09 340.749H1440.99C1438.37 354.913 1435.75 368.464 1433.13 381.403C1430.5 394.342 1427.53 407.106 1424.21 419.696L1392.73 549H1322.18ZM1722.19 555.557C1698.58 555.557 1679.26 548.388 1664.23 534.05C1649.36 519.537 1641.93 500.391 1641.93 476.611C1641.93 447.41 1654.7 424.854 1680.22 408.942C1705.75 392.856 1746.58 381.753 1802.71 375.633C1802.36 360.77 1798.6 347.831 1791.43 336.815C1784.26 325.625 1771.24 320.029 1752.35 320.029C1738.54 320.029 1725.16 322.652 1712.22 327.898C1699.28 332.968 1686.96 339.088 1675.24 346.257L1652.69 306.391C1667.2 296.949 1683.9 288.643 1702.78 281.474C1721.67 274.305 1741.95 270.721 1763.63 270.721C1797.38 270.721 1822.47 280.862 1838.9 301.145C1855.52 321.428 1863.82 350.279 1863.82 387.698V549H1813.46L1809 518.575H1807.17C1794.93 529.067 1781.73 537.897 1767.56 545.066C1753.4 552.06 1738.28 555.557 1722.19 555.557ZM1741.6 507.56C1752.79 507.56 1763.11 505.024 1772.55 499.954C1782.16 494.708 1792.22 487.189 1802.71 477.397V413.926C1764.42 418.996 1737.84 426.34 1722.98 435.957C1708.29 445.574 1700.95 457.464 1700.95 471.627C1700.95 484.217 1704.7 493.397 1712.22 499.167C1719.92 504.762 1729.71 507.56 1741.6 507.56ZM1909.23 549V277.54H1959.58L1964.57 325.799H1965.88C1975.67 308.314 1987.3 294.763 2000.76 285.146C2014.4 275.529 2028.56 270.721 2043.25 270.721C2049.9 270.721 2055.58 271.245 2060.3 272.294C2065.02 273.169 2069.48 274.48 2073.68 276.229L2061.09 328.422C2056.89 327.373 2052.96 326.586 2049.28 326.062C2045.61 325.362 2040.89 325.013 2035.12 325.013C2024.28 325.013 2012.83 329.297 2000.76 337.864C1988.87 346.432 1978.82 361.207 1970.6 382.19V549H1909.23ZM2176.26 555.557C2142.51 555.557 2115.5 543.142 2095.22 518.313C2075.11 493.309 2065.05 458.338 2065.05 413.401C2065.05 384.026 2070.47 358.672 2081.31 337.34C2092.16 316.008 2106.32 299.571 2123.8 288.031C2141.46 276.491 2160.26 270.721 2180.19 270.721C2195.41 270.721 2208.52 273.431 2219.54 278.851C2230.55 284.272 2241.39 291.616 2252.06 300.883L2249.96 257.082V157.678H2311.07V549H2260.71L2256.26 519.1H2254.42C2244.1 529.416 2232.21 538.072 2218.75 545.066C2205.29 552.06 2191.12 555.557 2176.26 555.557ZM2191.47 505.199C2212.28 505.199 2231.78 494.708 2249.96 473.726V344.946C2240.17 336.378 2230.55 330.258 2221.11 326.586C2211.67 322.914 2202.23 321.078 2192.78 321.078C2174.95 321.078 2159.56 329.209 2146.62 345.47C2133.86 361.732 2127.48 384.288 2127.48 413.139C2127.48 443.039 2133.07 465.857 2144.26 481.594C2155.45 497.331 2171.19 505.199 2191.47 505.199ZM2436.21 555.557C2417.15 555.557 2398.53 552.147 2380.35 545.328C2362.34 538.509 2346.86 528.804 2333.92 516.215L2360.94 481.332C2384.02 500.041 2409.72 509.396 2438.05 509.396C2453.08 509.396 2464.28 506.161 2471.62 499.691C2479.14 493.222 2482.9 485.091 2482.9 475.299C2482.9 463.759 2477.04 454.929 2465.32 448.809C2453.78 442.514 2440.41 436.657 2425.2 431.236C2412.08 426.34 2399.67 420.483 2387.95 413.663C2376.41 406.844 2367.06 398.364 2359.89 388.222C2352.72 378.081 2349.13 365.754 2349.13 351.241C2349.13 328.16 2357.79 309.014 2375.1 293.801C2392.41 278.414 2416.28 270.721 2446.7 270.721C2465.06 270.721 2481.76 273.868 2496.8 280.163C2512.01 286.283 2525.12 293.976 2536.14 303.243L2509.65 338.127C2490.24 324.138 2469.78 317.144 2448.28 317.144C2433.94 317.144 2423.45 320.292 2416.8 326.586C2410.16 332.706 2406.84 339.963 2406.84 348.356C2406.84 358.847 2411.64 366.803 2421.26 372.223C2430.88 377.644 2444.08 383.326 2460.87 389.271C2474.85 394.167 2487.88 400.025 2499.95 406.844C2512.18 413.489 2522.06 422.056 2529.58 432.548C2537.1 443.039 2540.86 456.24 2540.86 472.152C2540.86 495.233 2531.86 514.904 2513.85 531.165C2496.01 547.426 2470.13 555.557 2436.21 555.557Z" fill="white"/>
<path d="M815.655 549H808.655V556H815.655V549ZM815.655 238.46H822.655V231.46H815.655V238.46ZM710.48 238.46H703.48V245.46H710.48V238.46ZM710.48 186.791V179.791H703.48V186.791H710.48ZM982.465 186.791H989.465V179.791H982.465V186.791ZM982.465 238.46V245.46H989.465V238.46H982.465ZM877.29 238.46V231.46H870.29V238.46H877.29ZM877.29 549V556H884.29V549H877.29ZM815.655 549H822.655V238.46H815.655H808.655V549H815.655ZM815.655 238.46V231.46H710.48V238.46V245.46H815.655V238.46ZM710.48 238.46H717.48V186.791H710.48H703.48V238.46H710.48ZM710.48 186.791V193.791H982.465V186.791V179.791H710.48V186.791ZM982.465 186.791H975.465V238.46H982.465H989.465V186.791H982.465ZM982.465 238.46V231.46H877.29V238.46V245.46H982.465V238.46ZM877.29 238.46H870.29V549H877.29H884.29V238.46H877.29ZM877.29 549V542H815.655V549V556H877.29V549ZM1053.31 539.033L1049.82 545.098L1049.85 545.116L1049.88 545.134L1053.31 539.033ZM1006.1 490.511L1000.01 493.958L1000.01 493.968L1000.02 493.979L1006.1 490.511ZM1006.1 336.553L1012.18 340.021L1012.19 340.01L1012.19 339.999L1006.1 336.553ZM1053.31 287.769L1056.81 293.833L1056.82 293.828L1056.83 293.823L1053.31 287.769ZM1179.73 287.769L1176.22 293.823L1176.24 293.835L1176.26 293.847L1179.73 287.769ZM1227.2 336.553L1221.11 339.999L1221.12 340.01L1221.12 340.021L1227.2 336.553ZM1227.2 490.511L1233.28 493.979L1233.29 493.968L1233.3 493.958L1227.2 490.511ZM1179.73 539.033L1183.16 545.134L1183.18 545.123L1183.2 545.111L1179.73 539.033ZM1164.78 480.545L1159.05 476.527L1159.04 476.547L1159.02 476.567L1164.78 480.545ZM1164.78 346.257L1159.02 350.236L1159.04 350.256L1159.05 350.276L1164.78 346.257ZM1068.26 346.257L1062.5 342.279L1062.49 342.299L1062.47 342.32L1068.26 346.257ZM1068.26 480.545L1062.47 484.483L1062.49 484.503L1062.5 484.523L1068.26 480.545ZM1116.52 555.557V548.557C1095.16 548.557 1075.28 543.356 1056.74 532.932L1053.31 539.033L1049.88 545.134C1070.52 556.742 1092.77 562.557 1116.52 562.557V555.557ZM1053.31 539.033L1056.81 532.969C1038.57 522.453 1023.69 507.219 1012.18 487.044L1006.1 490.511L1000.02 493.979C1012.65 516.119 1029.24 533.233 1049.82 545.098L1053.31 539.033ZM1006.1 490.511L1012.19 487.065C1000.85 466.998 995.004 442.54 995.004 413.401H988.004H981.004C981.004 444.411 987.228 471.36 1000.01 493.958L1006.1 490.511ZM988.004 413.401H995.004C995.004 384.259 1000.85 359.9 1012.18 340.021L1006.1 336.553L1000.02 333.085C987.227 355.52 981.004 382.393 981.004 413.401H988.004ZM1006.1 336.553L1012.19 339.999C1023.7 319.651 1038.58 304.341 1056.81 293.833L1053.31 287.769L1049.82 281.705C1029.22 293.578 1012.63 310.791 1000.01 333.107L1006.1 336.553ZM1053.31 287.769L1056.83 293.823C1075.35 283.075 1095.2 277.721 1116.52 277.721V270.721V263.721C1092.73 263.721 1070.45 269.732 1049.8 281.715L1053.31 287.769ZM1116.52 270.721V277.721C1137.84 277.721 1157.7 283.075 1176.22 293.823L1179.73 287.769L1183.24 281.715C1162.6 269.732 1140.32 263.721 1116.52 263.721V270.721ZM1179.73 287.769L1176.26 293.847C1194.65 304.358 1209.61 319.666 1221.11 339.999L1227.2 336.553L1233.3 333.107C1220.67 310.776 1203.98 293.561 1183.2 281.691L1179.73 287.769ZM1227.2 336.553L1221.12 340.021C1232.46 359.9 1238.3 384.259 1238.3 413.401H1245.3H1252.3C1252.3 382.393 1246.08 355.52 1233.28 333.085L1227.2 336.553ZM1245.3 413.401H1238.3C1238.3 442.54 1232.46 466.998 1221.11 487.065L1227.2 490.511L1233.3 493.958C1246.08 471.36 1252.3 444.411 1252.3 413.401H1245.3ZM1227.2 490.511L1221.12 487.044C1209.63 507.203 1194.67 522.436 1176.26 532.956L1179.73 539.033L1183.2 545.111C1203.96 533.25 1220.65 516.134 1233.28 493.979L1227.2 490.511ZM1179.73 539.033L1176.3 532.932C1157.77 543.356 1137.88 548.557 1116.52 548.557V555.557V562.557C1140.27 562.557 1162.53 556.742 1183.16 545.134L1179.73 539.033ZM1116.52 505.986V512.986C1139.3 512.986 1157.53 503.359 1170.54 484.523L1164.78 480.545L1159.02 476.567C1148.6 491.652 1134.66 498.986 1116.52 498.986V505.986ZM1164.78 480.545L1170.51 484.563C1183.47 466.083 1189.62 442.157 1189.62 413.401H1182.62H1175.62C1175.62 440.249 1169.87 461.085 1159.05 476.527L1164.78 480.545ZM1182.62 413.401H1189.62C1189.62 384.645 1183.47 360.719 1170.51 342.239L1164.78 346.257L1159.05 350.276C1169.87 365.717 1175.62 386.553 1175.62 413.401H1182.62ZM1164.78 346.257L1170.54 342.279C1157.53 323.443 1139.3 313.816 1116.52 313.816V320.816V327.816C1134.66 327.816 1148.6 335.15 1159.02 350.236L1164.78 346.257ZM1116.52 320.816V313.816C1093.74 313.816 1075.51 323.443 1062.5 342.279L1068.26 346.257L1074.02 350.236C1084.44 335.15 1098.38 327.816 1116.52 327.816V320.816ZM1068.26 346.257L1062.47 342.32C1049.91 360.788 1043.95 384.682 1043.95 413.401H1050.95H1057.95C1057.95 386.517 1063.53 365.648 1074.05 350.195L1068.26 346.257ZM1050.95 413.401H1043.95C1043.95 442.12 1049.91 466.014 1062.47 484.483L1068.26 480.545L1074.05 476.607C1063.53 461.154 1057.95 440.286 1057.95 413.401H1050.95ZM1068.26 480.545L1062.5 484.523C1075.51 503.359 1093.74 512.986 1116.52 512.986V505.986V498.986C1098.38 498.986 1084.44 491.652 1074.02 476.567L1068.26 480.545ZM1322.18 549L1315.42 550.804L1316.8 556H1322.18V549ZM1249.79 277.54V270.54H1240.68L1243.03 279.344L1249.79 277.54ZM1311.17 277.54L1317.97 275.916L1316.69 270.54H1311.17V277.54ZM1345.26 420.483L1352.11 419.041L1352.09 418.949L1352.07 418.859L1345.26 420.483ZM1352.61 459.562L1345.7 460.698L1345.71 460.744L1345.71 460.79L1352.61 459.562ZM1359.69 498.642L1352.8 499.91L1353.86 505.642H1359.69V498.642ZM1362.05 498.642V505.642H1367.8L1368.91 499.998L1362.05 498.642ZM1370.18 459.3L1377.02 460.779L1377.02 460.77L1377.02 460.761L1370.18 459.3ZM1379.62 420.483L1386.37 422.332L1386.39 422.267L1386.41 422.201L1379.62 420.483ZM1415.81 277.54V270.54H1410.37L1409.03 275.822L1415.81 277.54ZM1471.94 277.54L1478.72 275.798L1477.37 270.54H1471.94V277.54ZM1508.66 420.483L1515.45 418.785L1515.45 418.763L1515.44 418.741L1508.66 420.483ZM1517.84 459.562L1511 461.061L1511.01 461.106L1511.02 461.15L1517.84 459.562ZM1527.02 498.642L1520.21 500.255L1521.49 505.642H1527.02V498.642ZM1529.12 498.642V505.642H1534.87L1535.99 499.998L1529.12 498.642ZM1536.46 459.562L1529.59 458.244L1529.58 458.29L1529.57 458.335L1536.46 459.562ZM1544.33 420.483L1537.51 418.894L1537.5 418.967L1537.48 419.041L1544.33 420.483ZM1577.64 277.54V270.54H1572.09L1570.82 275.951L1577.64 277.54ZM1634.82 277.54L1641.6 279.276L1643.84 270.54H1634.82V277.54ZM1565.31 549V556H1570.75L1572.1 550.736L1565.31 549ZM1492.66 549L1485.87 550.704L1487.2 556H1492.66V549ZM1460.14 419.434L1453.35 421.131L1453.35 421.138L1460.14 419.434ZM1451.48 381.403L1444.62 382.794L1444.63 382.803L1444.63 382.812L1451.48 381.403ZM1443.09 340.749L1449.94 339.312L1448.78 333.749H1443.09V340.749ZM1440.99 340.749V333.749H1435.17L1434.11 339.475L1440.99 340.749ZM1424.21 419.696L1417.44 417.91L1417.42 417.975L1417.41 418.04L1424.21 419.696ZM1392.73 549V556H1398.23L1399.54 550.656L1392.73 549ZM1322.18 549L1328.94 547.196L1256.56 275.736L1249.79 277.54L1243.03 279.344L1315.42 550.804L1322.18 549ZM1249.79 277.54V284.54H1311.17V277.54V270.54H1249.79V277.54ZM1311.17 277.54L1304.36 279.164L1338.45 422.107L1345.26 420.483L1352.07 418.859L1317.97 275.916L1311.17 277.54ZM1345.26 420.483L1338.41 421.925C1341.19 435.117 1343.62 448.041 1345.7 460.698L1352.61 459.562L1359.51 458.427C1357.4 445.555 1354.93 432.426 1352.11 419.041L1345.26 420.483ZM1352.61 459.562L1345.71 460.79C1347.99 473.568 1350.35 486.608 1352.8 499.91L1359.69 498.642L1366.57 497.374C1364.13 484.098 1361.77 471.085 1359.5 458.335L1352.61 459.562ZM1359.69 498.642V505.642H1362.05V498.642V491.642H1359.69V498.642ZM1362.05 498.642L1368.91 499.998C1371.53 486.749 1374.23 473.676 1377.02 460.779L1370.18 459.3L1363.34 457.821C1360.53 470.802 1357.81 483.957 1355.18 497.287L1362.05 498.642ZM1370.18 459.3L1377.02 460.761C1379.79 447.775 1382.91 434.966 1386.37 422.332L1379.62 420.483L1372.87 418.633C1369.34 431.528 1366.16 444.597 1363.33 457.84L1370.18 459.3ZM1379.62 420.483L1386.41 422.201L1422.6 279.258L1415.81 277.54L1409.03 275.822L1372.83 418.764L1379.62 420.483ZM1415.81 277.54V284.54H1471.94V277.54V270.54H1415.81V277.54ZM1471.94 277.54L1465.16 279.282L1501.88 422.224L1508.66 420.483L1515.44 418.741L1478.72 275.798L1471.94 277.54ZM1508.66 420.483L1501.87 422.18C1505.18 435.406 1508.22 448.366 1511 461.061L1517.84 459.562L1524.68 458.064C1521.87 445.23 1518.79 432.137 1515.45 418.785L1508.66 420.483ZM1517.84 459.562L1511.02 461.15C1514 473.923 1517.06 486.958 1520.21 500.255L1527.02 498.642L1533.83 497.029C1530.69 483.748 1527.63 470.73 1524.66 457.975L1517.84 459.562ZM1527.02 498.642V505.642H1529.12V498.642V491.642H1527.02V498.642ZM1529.12 498.642L1535.99 499.998C1538.62 486.668 1541.07 473.599 1543.36 460.79L1536.46 459.562L1529.57 458.335C1527.31 471.055 1524.87 484.039 1522.25 497.287L1529.12 498.642ZM1536.46 459.562L1543.34 460.881C1545.78 448.16 1548.39 435.174 1551.18 421.925L1544.33 420.483L1537.48 419.041C1534.68 432.369 1532.05 445.437 1529.59 458.244L1536.46 459.562ZM1544.33 420.483L1551.15 422.071L1584.46 279.129L1577.64 277.54L1570.82 275.951L1537.51 418.894L1544.33 420.483ZM1577.64 277.54V284.54H1634.82V277.54V270.54H1577.64V277.54ZM1634.82 277.54L1628.04 275.804L1558.53 547.264L1565.31 549L1572.1 550.736L1641.6 279.276L1634.82 277.54ZM1565.31 549V542H1492.66V549V556H1565.31V549ZM1492.66 549L1499.45 547.296L1466.93 417.729L1460.14 419.434L1453.35 421.138L1485.87 550.704L1492.66 549ZM1460.14 419.434L1466.93 417.736C1463.81 405.243 1460.94 392.662 1458.34 379.994L1451.48 381.403L1444.63 382.812C1447.27 395.672 1450.18 408.446 1453.35 421.131L1460.14 419.434ZM1451.48 381.403L1458.35 380.012C1455.72 367.056 1452.92 353.489 1449.94 339.312L1443.09 340.749L1436.24 342.187C1439.21 356.336 1442.01 369.872 1444.62 382.794L1451.48 381.403ZM1443.09 340.749V333.749H1440.99V340.749V347.749H1443.09V340.749ZM1440.99 340.749L1434.11 339.475C1431.49 353.603 1428.88 367.115 1426.26 380.012L1433.13 381.403L1439.99 382.794C1442.62 369.812 1445.25 356.223 1447.88 342.024L1440.99 340.749ZM1433.13 381.403L1426.26 380.012C1423.67 392.821 1420.73 405.453 1417.44 417.91L1424.21 419.696L1430.98 421.482C1434.33 408.76 1437.34 395.864 1439.99 382.794L1433.13 381.403ZM1424.21 419.696L1417.41 418.04L1385.93 547.344L1392.73 549L1399.54 550.656L1431.01 421.351L1424.21 419.696ZM1392.73 549V542H1322.18V549V556H1392.73V549ZM1664.23 534.05L1659.34 539.058L1659.37 539.087L1659.4 539.116L1664.23 534.05ZM1680.22 408.942L1683.93 414.883L1683.94 414.874L1683.96 414.865L1680.22 408.942ZM1802.71 375.633L1803.47 382.591L1809.86 381.895L1809.71 375.468L1802.71 375.633ZM1791.43 336.815L1785.54 340.591L1785.55 340.612L1785.56 340.633L1791.43 336.815ZM1712.22 327.898L1714.78 334.415L1714.82 334.4L1714.85 334.385L1712.22 327.898ZM1675.24 346.257L1669.15 349.704L1672.72 356.009L1678.9 352.228L1675.24 346.257ZM1652.69 306.391L1648.87 300.523L1643.35 304.111L1646.59 309.838L1652.69 306.391ZM1702.78 281.474L1700.3 274.93L1702.78 281.474ZM1838.9 301.145L1833.47 305.552L1833.48 305.566L1833.49 305.58L1838.9 301.145ZM1863.82 549V556H1870.82V549H1863.82ZM1813.46 549L1806.54 550.015L1807.41 556H1813.46V549ZM1809 518.575L1815.93 517.56L1815.05 511.575H1809V518.575ZM1807.17 518.575V511.575H1804.58L1802.61 513.261L1807.17 518.575ZM1767.56 545.066L1770.66 551.342L1770.69 551.327L1770.73 551.311L1767.56 545.066ZM1772.55 499.954L1775.86 506.121L1775.88 506.11L1775.9 506.099L1772.55 499.954ZM1802.71 477.397L1807.49 482.515L1809.71 480.439V477.397H1802.71ZM1802.71 413.926H1809.71V405.938L1801.79 406.986L1802.71 413.926ZM1722.98 435.957L1719.17 430.08L1719.16 430.09L1719.14 430.101L1722.98 435.957ZM1712.22 499.167L1707.96 504.72L1708.03 504.775L1708.11 504.828L1712.22 499.167ZM1722.19 555.557V548.557C1700.12 548.557 1682.61 541.909 1669.06 528.984L1664.23 534.05L1659.4 539.116C1675.91 554.867 1697.05 562.557 1722.19 562.557V555.557ZM1664.23 534.05L1669.12 529.042C1655.8 516.04 1648.93 498.803 1648.93 476.611H1641.93H1634.93C1634.93 501.979 1642.92 523.034 1659.34 539.058L1664.23 534.05ZM1641.93 476.611H1648.93C1648.93 449.914 1660.37 429.563 1683.93 414.883L1680.22 408.942L1676.52 403.002C1649.02 420.145 1634.93 444.906 1634.93 476.611H1641.93ZM1680.22 408.942L1683.96 414.865C1708.11 399.648 1747.63 388.68 1803.47 382.591L1802.71 375.633L1801.95 368.674C1745.53 374.826 1703.4 386.064 1676.49 403.02L1680.22 408.942ZM1802.71 375.633L1809.71 375.468C1809.33 359.481 1805.27 345.24 1797.3 332.997L1791.43 336.815L1785.56 340.633C1791.94 350.422 1795.39 362.059 1795.71 375.797L1802.71 375.633ZM1791.43 336.815L1797.33 333.039C1788.37 319.065 1772.53 313.029 1752.35 313.029V320.029V327.029C1769.94 327.029 1780.15 332.184 1785.54 340.591L1791.43 336.815ZM1752.35 320.029V313.029C1737.63 313.029 1723.36 315.83 1709.59 321.411L1712.22 327.898L1714.85 334.385C1726.97 329.474 1739.45 327.029 1752.35 327.029V320.029ZM1712.22 327.898L1709.67 321.38C1696.35 326.599 1683.66 332.901 1671.59 340.287L1675.24 346.257L1678.9 352.228C1690.26 345.276 1702.22 339.338 1714.78 334.415L1712.22 327.898ZM1675.24 346.257L1681.33 342.81L1658.78 302.944L1652.69 306.391L1646.59 309.838L1669.15 349.704L1675.24 346.257ZM1652.69 306.391L1656.5 312.258C1670.53 303.129 1686.77 295.039 1705.27 288.018L1702.78 281.474L1700.3 274.93C1681.02 282.248 1663.86 290.768 1648.87 300.523L1652.69 306.391ZM1702.78 281.474L1705.27 288.018C1723.3 281.172 1742.73 277.721 1763.63 277.721V270.721V263.721C1741.16 263.721 1720.03 267.438 1700.3 274.93L1702.78 281.474ZM1763.63 270.721V277.721C1795.93 277.721 1818.73 287.366 1833.47 305.552L1838.9 301.145L1844.34 296.738C1826.21 274.358 1798.82 263.721 1763.63 263.721V270.721ZM1838.9 301.145L1833.49 305.58C1848.72 324.173 1856.82 351.219 1856.82 387.698H1863.82H1870.82C1870.82 349.339 1862.32 318.683 1844.32 296.71L1838.9 301.145ZM1863.82 387.698H1856.82V549H1863.82H1870.82V387.698H1863.82ZM1863.82 549V542H1813.46V549V556H1863.82V549ZM1813.46 549L1820.39 547.985L1815.93 517.56L1809 518.575L1802.08 519.591L1806.54 550.015L1813.46 549ZM1809 518.575V511.575H1807.17V518.575V525.575H1809V518.575ZM1807.17 518.575L1802.61 513.261C1790.79 523.393 1778.06 531.909 1764.4 538.82L1767.56 545.066L1770.73 551.311C1785.4 543.885 1799.07 534.741 1811.72 523.89L1807.17 518.575ZM1767.56 545.066L1764.46 538.789C1751.28 545.299 1737.22 548.557 1722.19 548.557V555.557V562.557C1739.33 562.557 1755.52 558.821 1770.66 551.342L1767.56 545.066ZM1741.6 507.56V514.56C1753.89 514.56 1765.35 511.763 1775.86 506.121L1772.55 499.954L1769.24 493.787C1760.86 498.286 1751.69 500.56 1741.6 500.56V507.56ZM1772.55 499.954L1775.9 506.099C1786.16 500.5 1796.69 492.591 1807.49 482.515L1802.71 477.397L1797.93 472.28C1787.75 481.787 1778.17 488.915 1769.2 493.808L1772.55 499.954ZM1802.71 477.397H1809.71V413.926H1802.71H1795.71V477.397H1802.71ZM1802.71 413.926L1801.79 406.986C1763.41 412.069 1735.45 419.547 1719.17 430.08L1722.98 435.957L1726.78 441.834C1740.23 433.133 1765.43 425.924 1803.63 420.865L1802.71 413.926ZM1722.98 435.957L1719.14 430.101C1703.02 440.658 1693.95 454.523 1693.95 471.627H1700.95H1707.95C1707.95 460.405 1713.56 450.491 1726.81 441.814L1722.98 435.957ZM1700.95 471.627H1693.95C1693.95 485.62 1698.18 497.216 1707.96 504.72L1712.22 499.167L1716.48 493.614C1711.22 489.577 1707.95 482.813 1707.95 471.627H1700.95ZM1712.22 499.167L1708.11 504.828C1717.27 511.49 1728.6 514.56 1741.6 514.56V507.56V500.56C1730.81 500.56 1722.57 498.034 1716.34 493.506L1712.22 499.167ZM1909.23 549H1902.23V556H1909.23V549ZM1909.23 277.54V270.54H1902.23V277.54H1909.23ZM1959.58 277.54L1966.55 276.821L1965.9 270.54H1959.58V277.54ZM1964.57 325.799L1957.61 326.518L1958.25 332.799H1964.57V325.799ZM1965.88 325.799V332.799H1969.98L1971.99 329.22L1965.88 325.799ZM2000.76 285.146L1996.73 279.425L1996.71 279.438L1996.69 279.45L2000.76 285.146ZM2060.3 272.294L2058.78 279.128L2058.9 279.155L2059.03 279.177L2060.3 272.294ZM2073.68 276.229L2080.48 277.87L2081.88 272.064L2076.37 269.767L2073.68 276.229ZM2061.09 328.422L2059.39 335.213L2066.24 336.925L2067.89 330.064L2061.09 328.422ZM2049.28 326.062L2047.97 332.938L2048.13 332.968L2048.29 332.991L2049.28 326.062ZM2000.76 337.864L1996.71 332.157L1996.69 332.171L1996.67 332.185L2000.76 337.864ZM1970.6 382.19L1964.08 379.637L1963.6 380.868V382.19H1970.6ZM1970.6 549V556H1977.6V549H1970.6ZM1909.23 549H1916.23V277.54H1909.23H1902.23V549H1909.23ZM1909.23 277.54V284.54H1959.58V277.54V270.54H1909.23V277.54ZM1959.58 277.54L1952.62 278.259L1957.61 326.518L1964.57 325.799L1971.53 325.08L1966.55 276.821L1959.58 277.54ZM1964.57 325.799V332.799H1965.88V325.799V318.799H1964.57V325.799ZM1965.88 325.799L1971.99 329.22C1981.38 312.447 1992.37 299.747 2004.83 290.842L2000.76 285.146L1996.69 279.45C1982.23 289.779 1969.96 304.181 1959.77 322.379L1965.88 325.799ZM2000.76 285.146L2004.8 290.867C2017.42 281.965 2030.2 277.721 2043.25 277.721V270.721V263.721C2026.93 263.721 2011.38 269.094 1996.73 279.425L2000.76 285.146ZM2043.25 270.721V277.721C2049.56 277.721 2054.71 278.222 2058.78 279.128L2060.3 272.294L2061.82 265.461C2056.45 264.269 2050.23 263.721 2043.25 263.721V270.721ZM2060.3 272.294L2059.03 279.177C2063.29 279.967 2067.27 281.142 2070.98 282.69L2073.68 276.229L2076.37 269.767C2071.69 267.818 2066.76 266.371 2061.58 265.411L2060.3 272.294ZM2073.68 276.229L2066.87 274.587L2054.28 326.781L2061.09 328.422L2067.89 330.064L2080.48 277.87L2073.68 276.229ZM2061.09 328.422L2062.79 321.631C2058.39 320.533 2054.22 319.696 2050.27 319.132L2049.28 326.062L2048.29 332.991C2051.69 333.477 2055.39 334.213 2059.39 335.213L2061.09 328.422ZM2049.28 326.062L2050.59 319.185C2046.32 318.372 2041.12 318.013 2035.12 318.013V325.013V332.013C2040.66 332.013 2044.9 332.353 2047.97 332.938L2049.28 326.062ZM2035.12 325.013V318.013C2022.38 318.013 2009.54 323.049 1996.71 332.157L2000.76 337.864L2004.82 343.572C2016.12 335.544 2026.18 332.013 2035.12 332.013V325.013ZM2000.76 337.864L1996.67 332.185C1983.25 341.857 1972.55 358.025 1964.08 379.637L1970.6 382.19L1977.12 384.743C1985.09 364.39 1994.5 351.007 2004.86 343.544L2000.76 337.864ZM1970.6 382.19H1963.6V549H1970.6H1977.6V382.19H1970.6ZM1970.6 549V542H1909.23V549V556H1970.6V549ZM2095.22 518.313L2089.76 522.7L2089.78 522.721L2089.79 522.742L2095.22 518.313ZM2081.31 337.34L2075.07 334.168L2081.31 337.34ZM2123.8 288.031L2119.97 282.171L2119.96 282.18L2119.95 282.189L2123.8 288.031ZM2219.54 278.851L2216.45 285.132L2219.54 278.851ZM2252.06 300.883L2247.47 306.167L2259.83 316.912L2259.05 300.548L2252.06 300.883ZM2249.96 257.082H2242.96V257.25L2242.97 257.417L2249.96 257.082ZM2249.96 157.678V150.678H2242.96V157.678H2249.96ZM2311.07 157.678H2318.07V150.678H2311.07V157.678ZM2311.07 549V556H2318.07V549H2311.07ZM2260.71 549L2253.79 550.032L2254.68 556H2260.71V549ZM2256.26 519.1L2263.18 518.068L2262.29 512.1H2256.26V519.1ZM2254.42 519.1V512.1H2251.52L2249.47 514.15L2254.42 519.1ZM2249.96 473.726L2255.25 478.31L2256.96 476.337V473.726H2249.96ZM2249.96 344.946H2256.96V341.77L2254.57 339.678L2249.96 344.946ZM2146.62 345.47L2141.14 341.112L2141.13 341.13L2141.12 341.148L2146.62 345.47ZM2176.26 555.557V548.557C2144.49 548.557 2119.51 536.991 2100.64 513.885L2095.22 518.313L2089.79 522.742C2111.49 549.294 2140.54 562.557 2176.26 562.557V555.557ZM2095.22 518.313L2100.67 513.926C2081.9 490.58 2072.05 457.372 2072.05 413.401H2065.05H2058.05C2058.05 459.305 2068.32 496.038 2089.76 522.7L2095.22 518.313ZM2065.05 413.401H2072.05C2072.05 384.881 2077.31 360.662 2087.55 340.511L2081.31 337.34L2075.07 334.168C2063.63 356.682 2058.05 383.17 2058.05 413.401H2065.05ZM2081.31 337.34L2087.55 340.511C2097.93 320.105 2111.32 304.655 2127.66 293.873L2123.8 288.031L2119.95 282.189C2101.31 294.488 2086.39 311.91 2075.07 334.168L2081.31 337.34ZM2123.8 288.031L2127.63 293.891C2144.22 283.049 2161.7 277.721 2180.19 277.721V270.721V263.721C2158.82 263.721 2138.7 269.933 2119.97 282.171L2123.8 288.031ZM2180.19 270.721V277.721C2194.59 277.721 2206.59 280.284 2216.45 285.132L2219.54 278.851L2222.63 272.571C2210.45 266.577 2196.23 263.721 2180.19 263.721V270.721ZM2219.54 278.851L2216.45 285.132C2226.85 290.25 2237.19 297.237 2247.47 306.167L2252.06 300.883L2256.65 295.599C2245.6 285.994 2234.26 278.294 2222.63 272.571L2219.54 278.851ZM2252.06 300.883L2259.05 300.548L2256.95 256.747L2249.96 257.082L2242.97 257.417L2245.07 301.218L2252.06 300.883ZM2249.96 257.082H2256.96V157.678H2249.96H2242.96V257.082H2249.96ZM2249.96 157.678V164.678H2311.07V157.678V150.678H2249.96V157.678ZM2311.07 157.678H2304.07V549H2311.07H2318.07V157.678H2311.07ZM2311.07 549V542H2260.71V549V556H2311.07V549ZM2260.71 549L2267.64 547.968L2263.18 518.068L2256.26 519.1L2249.33 520.132L2253.79 550.032L2260.71 549ZM2256.26 519.1V512.1H2254.42V519.1V526.1H2256.26V519.1ZM2254.42 519.1L2249.47 514.15C2239.68 523.94 2228.38 532.177 2215.52 538.854L2218.75 545.066L2221.98 551.278C2236.05 543.967 2248.53 534.892 2259.37 524.05L2254.42 519.1ZM2218.75 545.066L2215.52 538.854C2203.03 545.341 2189.98 548.557 2176.26 548.557V555.557V562.557C2192.27 562.557 2207.54 558.778 2221.98 551.278L2218.75 545.066ZM2191.47 505.199V512.199C2214.93 512.199 2236.21 500.284 2255.25 478.31L2249.96 473.726L2244.67 469.141C2227.35 489.132 2209.63 498.199 2191.47 498.199V505.199ZM2249.96 473.726H2256.96V344.946H2249.96H2242.96V473.726H2249.96ZM2249.96 344.946L2254.57 339.678C2244.33 330.719 2234.03 324.1 2223.65 320.062L2221.11 326.586L2218.57 333.11C2227.08 336.417 2236.01 342.037 2245.35 350.214L2249.96 344.946ZM2221.11 326.586L2223.65 320.062C2213.46 316.099 2203.16 314.078 2192.78 314.078V321.078V328.078C2201.3 328.078 2209.88 329.73 2218.57 333.11L2221.11 326.586ZM2192.78 321.078V314.078C2172.45 314.078 2155.17 323.491 2141.14 341.112L2146.62 345.47L2152.1 349.829C2163.96 334.927 2177.45 328.078 2192.78 328.078V321.078ZM2146.62 345.47L2141.12 341.148C2127.07 359.049 2120.48 383.33 2120.48 413.139H2127.48H2134.48C2134.48 385.246 2140.65 364.415 2152.13 349.793L2146.62 345.47ZM2127.48 413.139H2120.48C2120.48 443.749 2126.18 468.24 2138.56 485.651L2144.26 481.594L2149.97 477.537C2139.97 463.474 2134.48 442.329 2134.48 413.139H2127.48ZM2144.26 481.594L2138.56 485.651C2151.14 503.341 2169.06 512.199 2191.47 512.199V505.199V498.199C2173.32 498.199 2159.77 491.32 2149.97 477.537L2144.26 481.594ZM2380.35 545.328L2377.87 551.875L2377.88 551.878L2377.89 551.882L2380.35 545.328ZM2333.92 516.215L2328.39 511.929L2324.56 516.872L2329.04 521.232L2333.92 516.215ZM2360.94 481.332L2365.34 475.894L2359.78 471.387L2355.4 477.046L2360.94 481.332ZM2471.62 499.691L2467.05 494.385L2467.02 494.412L2466.99 494.439L2471.62 499.691ZM2465.32 448.809L2461.97 454.954L2462.03 454.984L2462.08 455.013L2465.32 448.809ZM2425.2 431.236L2422.75 437.794L2422.8 437.812L2422.85 437.83L2425.2 431.236ZM2387.95 413.663L2384.39 419.69L2384.41 419.702L2384.43 419.713L2387.95 413.663ZM2359.89 388.222L2354.17 392.263L2359.89 388.222ZM2375.1 293.801L2379.72 299.059L2379.74 299.046L2379.75 299.033L2375.1 293.801ZM2496.8 280.163L2494.09 286.62L2494.14 286.639L2494.19 286.657L2496.8 280.163ZM2536.14 303.243L2541.71 307.477L2545.74 302.174L2540.65 297.887L2536.14 303.243ZM2509.65 338.127L2505.56 343.805L2511.1 347.797L2515.22 342.36L2509.65 338.127ZM2416.8 326.586L2421.54 331.735L2421.58 331.702L2421.62 331.668L2416.8 326.586ZM2460.87 389.271L2458.53 395.87L2458.54 395.874L2458.55 395.878L2460.87 389.271ZM2499.95 406.844L2496.5 412.938L2496.55 412.967L2496.61 412.996L2499.95 406.844ZM2513.85 531.165L2509.15 525.969L2509.14 525.981L2509.13 525.992L2513.85 531.165ZM2436.21 555.557V548.557C2418.01 548.557 2400.22 545.304 2382.8 538.774L2380.35 545.328L2377.89 551.882C2396.84 558.991 2416.3 562.557 2436.21 562.557V555.557ZM2380.35 545.328L2382.82 538.782C2365.65 532.279 2351.01 523.074 2338.8 511.198L2333.92 516.215L2329.04 521.232C2342.71 534.534 2359.02 544.738 2377.87 551.875L2380.35 545.328ZM2333.92 516.215L2339.46 520.501L2366.47 485.618L2360.94 481.332L2355.4 477.046L2328.39 511.929L2333.92 516.215ZM2360.94 481.332L2356.53 486.77C2380.79 506.436 2408.03 516.396 2438.05 516.396V509.396V502.396C2411.41 502.396 2387.24 493.646 2365.34 475.894L2360.94 481.332ZM2438.05 509.396V516.396C2453.91 516.396 2467.09 513.009 2476.25 504.944L2471.62 499.691L2466.99 494.439C2461.46 499.313 2452.26 502.396 2438.05 502.396V509.396ZM2471.62 499.691L2476.18 504.997C2485.23 497.218 2489.9 487.16 2489.9 475.299H2482.9H2475.9C2475.9 483.022 2473.05 489.226 2467.05 494.385L2471.62 499.691ZM2482.9 475.299H2489.9C2489.9 468.281 2488.09 461.816 2484.34 456.152C2480.61 450.537 2475.22 446.078 2468.57 442.604L2465.32 448.809L2462.08 455.013C2467.15 457.66 2470.54 460.675 2472.67 463.891C2474.77 467.057 2475.9 470.778 2475.9 475.299H2482.9ZM2465.32 448.809L2468.68 442.664C2456.75 436.159 2443.03 430.159 2427.54 424.642L2425.2 431.236L2422.85 437.83C2437.79 443.154 2450.82 448.869 2461.97 454.954L2465.32 448.809ZM2425.2 431.236L2427.64 424.678C2414.89 419.917 2402.83 414.227 2391.47 407.614L2387.95 413.663L2384.43 419.713C2396.5 426.738 2409.27 432.764 2422.75 437.794L2425.2 431.236ZM2387.95 413.663L2391.51 407.637C2380.75 401.28 2372.16 393.454 2365.6 384.182L2359.89 388.222L2354.17 392.263C2361.95 403.273 2372.07 412.408 2384.39 419.69L2387.95 413.663ZM2359.89 388.222L2365.6 384.182C2359.4 375.412 2356.13 364.557 2356.13 351.241H2349.13H2342.13C2342.13 366.95 2346.03 380.75 2354.17 392.263L2359.89 388.222ZM2349.13 351.241H2356.13C2356.13 330.17 2363.93 312.94 2379.72 299.059L2375.1 293.801L2370.48 288.543C2351.65 305.087 2342.13 326.15 2342.13 351.241H2349.13ZM2375.1 293.801L2379.75 299.033C2395.42 285.103 2417.44 277.721 2446.7 277.721V270.721V263.721C2415.11 263.721 2389.4 271.725 2370.45 288.569L2375.1 293.801ZM2446.7 270.721V277.721C2464.25 277.721 2480.02 280.726 2494.09 286.62L2496.8 280.163L2499.5 273.706C2483.51 267.01 2465.87 263.721 2446.7 263.721V270.721ZM2496.8 280.163L2494.19 286.657C2508.8 292.538 2521.26 299.871 2531.63 308.6L2536.14 303.243L2540.65 297.887C2528.99 288.081 2515.22 280.027 2499.41 273.669L2496.8 280.163ZM2536.14 303.243L2530.57 299.01L2504.07 333.893L2509.65 338.127L2515.22 342.36L2541.71 307.477L2536.14 303.243ZM2509.65 338.127L2513.74 332.448C2493.28 317.702 2471.42 310.144 2448.28 310.144V317.144V324.144C2468.15 324.144 2487.2 330.575 2505.56 343.805L2509.65 338.127ZM2448.28 317.144V310.144C2433.12 310.144 2420.5 313.439 2411.99 321.505L2416.8 326.586L2421.62 331.668C2426.39 327.144 2434.75 324.144 2448.28 324.144V317.144ZM2416.8 326.586L2412.06 321.438C2404.1 328.769 2399.84 337.845 2399.84 348.356H2406.84H2413.84C2413.84 342.08 2416.22 336.643 2421.54 331.735L2416.8 326.586ZM2406.84 348.356H2399.84C2399.84 361.532 2406.15 371.74 2417.82 378.321L2421.26 372.223L2424.7 366.125C2417.14 361.865 2413.84 356.161 2413.84 348.356H2406.84ZM2421.26 372.223L2417.82 378.321C2427.94 384.022 2441.56 389.861 2458.53 395.87L2460.87 389.271L2463.2 382.673C2446.6 376.792 2433.82 371.265 2424.7 366.125L2421.26 372.223ZM2460.87 389.271L2458.55 395.878C2472.18 400.646 2484.82 406.337 2496.5 412.938L2499.95 406.844L2503.39 400.75C2490.94 393.713 2477.53 387.688 2463.18 382.664L2460.87 389.271ZM2499.95 406.844L2496.61 412.996C2507.99 419.176 2517.04 427.061 2523.89 436.625L2529.58 432.548L2535.27 428.47C2527.09 417.052 2516.38 407.801 2503.28 400.692L2499.95 406.844ZM2529.58 432.548L2523.89 436.625C2530.38 445.675 2533.86 457.358 2533.86 472.152H2540.86H2547.86C2547.86 455.123 2543.82 440.403 2535.27 428.47L2529.58 432.548ZM2540.86 472.152H2533.86C2533.86 493.14 2525.78 510.958 2509.15 525.969L2513.85 531.165L2518.54 536.36C2537.93 518.849 2547.86 497.325 2547.86 472.152H2540.86ZM2513.85 531.165L2509.13 525.992C2493.03 540.676 2469.1 548.557 2436.21 548.557V555.557V562.557C2471.17 562.557 2499 554.177 2518.56 536.338L2513.85 531.165Z" fill="white" mask="url(#path-6-outside-2_65_777)"/>
</svg>
