<?xml version="1.0" encoding="UTF-8"?>
<svg xmlns="http://www.w3.org/2000/svg" version="1.1" viewBox="0 0 125 96">
  <defs>
    <style>
      .cls-1 {
        fill: #fff;
        stroke-width: 0px;
      }
    </style>
  </defs>
  <g id="Layer_1" data-name="Layer 1">
    <g>
      <path class="cls-1" d="M38.1,40.5c-.2,0-.6,0-.7-.4-.1-.3,0-.8-.4-1,.3,0,.6,0,.8,0,.7,0,1.4-.5,2-.5s.5.2.5.5c0,.7-1.5,1.3-2.1,1.3ZM38.5,42.4c1.7,0,3.3-1.4,3.3-2.6s-.3-1-.9-1.1c.1.1.2.3.2.5,0,.9-1.4,1.9-2.9,1.9s-.7.4-.7.6c0,.5.4.7,1.1.7ZM38.3,43.1c.2,1.6,2.6,3.7,3.2,3.6.4,0,.6-2,.6-3.6s0-1.6-.4-1.8c-.8,1.5-2.7,1.8-3.4,1.8"/>
      <path class="cls-1" d="M1.5,53.4c.6,0,.4-3.4,1.3-3.4s.3.2.3.5c0,.8-.4,1.9-.4,2.5s0,.4.2.4c.4,0,1.1-3.8,1.8-3.8s.3.2.3.4c0,.8-1,3-1,3.7s0,.2.1.2c.4,0,1.2-1.8,1.5-2.7.1-.5.3-.7.5-.7s.3.2.3.6c0,.9-.8,3-1.5,4.4-.6,1.1-1.4,2.6-1.4,3.5s0,.9.7,1.5c-1,0-1.5-.2-1.9-1-1.8,3.5,3.2,3.1,1.5,6.2-.3-.6-2.8-1.1-2.8-4.4s2.5-4.4,2.5-5.6,0-.4-.3-.6c-.5-.5-.6-.8-1-.8s-.7.7-.3,1.4c.1.2.2.3.2.5,0,.5-.7,1.7-1.2,1.7s-.9-1.3-.9-3.3.4-3.6.9-3.6.2,0,.2.2c0,.2,0,.6,0,1.4s.2.8.3.8"/>
      <path class="cls-1" d="M5.6,58.2c.7,0,1.3-.5,1.3-1.6v-1.7c0-.6,0-1.4.5-1.9,0,.2,0,.4,0,.7,0,1.4.8,2.4.8,3.7s-.1.8-.5.8-.3-.3-.4-.3-.2.2-.2.4c0,.3.2.9.9.9s1.1-.5,1.1-1.1c0-1.5-1.1-3.1-1.1-4.7s.2-1.1.3-1.5c0,3.3,2.8,5.6,2.8,7s-.2.6-.6.6-.6-.3-.6-.5,0-.1,0-.1c0,0-.4.3-.4.8s.4,1.2,1.3,1.2,1.4-.8,1.4-1.5c0-1.7-3.4-4.3-3.4-7.1s0-1.2.4-1.8c-2.2,1.4-2.8,3.2-2.8,4.9s0,2.1-.8,2.1-.5-.3-.6-.3-.1.3-.1.4c0,.6.4,1,.9,1"/>
      <path class="cls-1" d="M30.5,39.7c.2-.1,1.1,0,2.3-.5.1,0,.3-.1.4-.1.6,0,.4.7,1,.7s.9-.3,1.2-.3c.5,0,1.2,1.5,1.2,2.3s-1.3,1.3-2.7,1.3c-2.2,0-3.5-1.9-3.5-3.1s0-.1,0-.2ZM34,41.8c.7,0,1.3-.3,1.3-.5s0-.1-.3-.1-.6,0-1.4-.1c-.7-.1-1.2-.4-1.4-.4s0,0,0,0c0,.4.8,1.1,2,1.1"/>
      <path class="cls-1" d="M6,64.4c-.5.1-1.4,1-1.4,2.3s1.7,4.1,4.6,4.1,3-1.7,3-2.8c0-2.5-1.5-4.2-3.5-4.2s-2,.8-2,1.9.8,2.7,2.8,2.7,1.5-.7,1.5-1.4-.7-1.8-1.7-1.8-.5.2-.5.5.5.8,1.2.8.3,0,.4,0c0,0,0,.1,0,.2,0,.4-.4.6-.9.6-.8,0-1.6-.6-1.6-1.6s.5-1,1.2-1c1.5,0,2.3,1.3,2.3,2.6s-.6,1.8-1.9,1.8c-2.6,0-3.9-2.4-3.3-4.8"/>
      <path class="cls-1" d="M24.7,74c.8,0,.7,0,1,0s.3.1.3.2c0,.4-.8.8-2.2.8s-1.3-.4-1.5-.9c-.8.5-2.1,1-3.3,1-3.4,0-4.2-1.5-5.3-1.9-.8-.4-2,.3-3.8-1.6.2,0,.5,0,.8,0,1.5,0,2.3-.7,2.3-1.9s0-.3,0-.5c.5.2,1.5,1,1.8,2.4,0,.2.7.3,1.1.3s1.3-.2,1.5-1.2c2-.2,3.3-1.3,3.6-2.8.7.2,1.5.9,1.7,1.2.3,0,.6-.1,1-.1s1.1,0,1.8.3c0-.2,0-.5.4-.5.5,0,.4.5.5.9,0,.2.5.3.5.6s-.3.4-.4.4-.1,0-.2,0c-.3.1-.3,2.5-1.7,2.5s-1.9-.8-2.4-1.9c-.1-.3-.4-.5-.6-.5s-.4,0-.7.4c-.9,1-2.4,1.8-4.2,1.8s-1,0-1.1,0,0,0,0,0c0,.1.6.6,1.8.6,2.9,0,3.6-1.6,4-1.6s.3,0,.4.3c.7,1.6,2.1,1.9,3.1,1.9ZM23.4,70.7c0,.4.3.7.7.7s.7-.3.7-.7-.3-.7-.7-.7-.7.3-.7.7"/>
      <path class="cls-1" d="M36.4,62.5c-.2,0-.5.2-.5.6s.4.8.6.9c.1,0,.3.1.5.1.5,0,.9-.1.9-.5s-.7-1.1-1.4-1.1ZM34.6,63.5c-.3,0-2.2,2.5-3.5,2.5s-.5-.6-.5-1,.1-.4.7-.5c2.8-.6,2.2-2.8,4.6-2.8s2.8.9,2.8,2.9-3.1,4.8-3.5,4.8-.8-.5-.8-.9,0-.3.4-.4c1.6-.6,2.5-2.1,2.5-2.8s0-.3-.3-.3-1.5,2.7-2.8,2.7-1.9-.8-1.9-1.2c0-.7,2.7-1.9,2.7-2.8s-.2-.4-.3-.4"/>
      <path class="cls-1" d="M2.2,42.1s-.5.4-1.1.4-1.3-.5-1.3-1.3.3-1,.9-1.3c0,0,0,.2,0,.3,0,.9.5,1.6,1.5,1.9ZM5.7,45.2c-.4.4-.7,1.1-.7,1.9s.5,1.6,1.4,1.6,1.2-.7,1.2-1.4c0-1.1-1-1.9-1.8-2.1ZM.3,45.9c0,0,0,.1,0,.2,0,.1.2.3.3.3s.2,0,.3,0c.4,0,.8.3,1.5.3s.8-.1,1.4-.4c1.2-.6,1.6-2,1.6-2.3s-.3-.3-.5-.6c-.2-.3-.1-.5-.3-.7,0,0-.3,0-.6-.1,0,0-.2,0-.4,0-.5,0-1.2,0-1.9.5-1.4.9-1.2,2.4-1.4,2.8ZM4.1,43.8c.1.2.4.3.4.5,0,.2-.1.5-.4.5-.6,0-1-.9-1-1.4s.2-.3.4-.3.2,0,.2,0c.1,0,.1.4.3.7ZM2.6,45.8c-.5,0-1.1-.7-1.1-1.3s.2-.7.4-.7,0,0,.1.2c0,.8.6,1.3,1.1,1.5,0,0,0,0,0,0,0,.1-.3.3-.6.3ZM4,41.7c0-.3.1-.6.1-1,0-.8-.4-2-1.5-2s-1.1.5-1.1,1.1c0,1.3,1.3,1.8,2.4,1.8ZM-.2,48.2c0,1.2.4,1.8,1,1.8s1.2-.4,2.1-1.1c-.6.1-1.1.2-1.6.2s-1-.2-1.5-1ZM.3,46.8c0,0,0,.2,0,.2,0,.8.4,1.2.9,1.2s.9-.2,1.3-.8c-.2,0-.4,0-.6,0-.6,0-1.3-.2-1.7-.7ZM4.4,46.6c-.4,0-1.2.6-1.2,1.4s.5,1,1,1,.5,0,.6-.2c-.5-.4-.6-.9-.6-1.4s0-.6.1-.8ZM4.9,42.1c0,.4.3.7.7.7s.7-.3.7-.7-.3-.7-.7-.7-.7.3-.7.7ZM5.8,43.5c0,.4.3.7.7.7s.7-.3.7-.7-.3-.7-.7-.7-.7.3-.7.7"/>
      <path class="cls-1" d="M31.3,51.6c0-.3.3-.6.6-.6s.6.3.6.6-.3.6-.6.6-.6-.3-.6-.6ZM25.6,46.5c0,.4.3.7.7.7s.7-.3.7-.7-.3-.7-.7-.7-.7.3-.7.7ZM25,48.8c0,.5.4.9.9.9s.9-.4.9-.9-.4-.9-.9-.9-.9.4-.9.9ZM27.1,47.8c0,.6.4,1,1,1s1-.4,1-1-.4-1-1-1-1,.4-1,1ZM27.2,45.7c0,.3.3.6.6.6s.6-.3.6-.6-.3-.6-.6-.6-.6.3-.6.6ZM30.1,44.1c0,.3.3.6.6.6s.6-.3.6-.6-.3-.6-.6-.6-.6.3-.6.6ZM28.9,46.1c0,.6.5,1,1,1s1-.5,1-1-.5-1-1-1-1,.5-1,1ZM27.2,49.9c0,.4.3.7.7.7s.7-.3.7-.7-.3-.7-.7-.7-.7.3-.7.7ZM29.4,48.6c0,.4.3.7.7.7s.7-.3.7-.7-.3-.7-.7-.7-.7.3-.7.7ZM28.8,50.9c0,.6.5,1.1,1.1,1.1s1.1-.5,1.1-1.1-.5-1.1-1.1-1.1-1.1.5-1.1,1.1ZM31.1,49.6c0,.4.3.8.8.8s.8-.3.8-.8-.3-.8-.8-.8-.8.3-.8.8ZM31.1,47.5c0,.4.3.7.7.7s.7-.3.7-.7-.3-.7-.7-.7-.7.3-.7.7"/>
      <path class="cls-1" d="M32.8,69c-.4.3-1.4,1.1-3.1,1.1s-1.3-.3-1.4-.3-.3.2-.5.4c-.4.5-.9,1.3-.9,2.2s.5,1.3,1.5,1.3c3.1,0,5.4-1.9,5.4-3.5s-.5-1.2-.9-1.2ZM31.9,68.8c.1-.1.2-.3.2-.5v-.4c0-.5-.7-.8-1.7-.8s-1.8.5-1.8.8v.8c0,.3.7.6,1.6.6s1.3-.2,1.8-.5ZM31.8,70.4c0,0,.2,0,.2.3s-.2.8-.8,1.2c-.4.3-1,.5-1.8.5.1-.4.2-.8.2-1.2s0-.2,0-.4h.2c1.3,0,1.9-.5,1.9-.5"/>
      <path class="cls-1" d="M25.5,50.4c.2,1.4,2,.7,2,2.4s0,.6,0,.9,0,.7.3.7.3-.2.3-.5,0-.6,0-.8c0-.6.4-.7.7-.7.6,0,1.1.6,2,.6-.2,1-2.4.8-2.4,1.9s.6.7,1,.7.5,0,.5-.3,0-.3,0-.5,0-.1.1-.1c.4,0,2.1,1.3,2.1,1.8s-1.9.8-2.4.8-.2-.1-.2-.2c0-.1.3-.5.3-.7s-.2-.2-.9-.2-.5,0-.5.3c0,.4.7,1,.7,1.4s-.2.5-.7.5-1.1-.3-1.1-.9.5-.9.5-1.2,0-.2-.3-.2c-.6,0-.8,1.6-2.9,1.8.3-.3.6-.7.6-1.4s0-.6,0-1,.2-.7.6-.7c.6,0,.9.9,1.3.9s.4-.2.4-.5c0-1.2-2.4-1.1-2.4-2.8s.2-1.1.6-1.9ZM33.3,55.2c0,.4.1.9.5.9s.6-.5.6-1.1-.1-1.2-.1-1.4,0-.2.1-.2c.2,0,.5.7.7.7s.7-.5.9-.5,0,0,0,0c0,.2-.4.8-.4,1s1,.2,1,.4c0,.2-1,.2-1.5.5-.5.2-.7.4-.7.8s.3.4.8.4c1.1,0,1.9-.6,2.1-.6s0,0,0,0c0,.2-.6.7-.6,1s1,.6,1,.8c0,0,0,0-.2,0-.2,0-.5,0-.7,0s-.2,0-.3,0c-.1.1,0,1-.2,1s-.8-1.9-2-1.9-.3.1-.3.4c0,.7.6,1.4,1.2,1.8.3.2.7.4.7.5,0,.2-1,0-1,.3s.1.7.1,1,0,.2-.1.2c-.2,0-.7-.9-.9-.9s-.6.5-.8.5,0,0,0,0c0-.4.6-1.2.6-2.1s0-1.2-.5-1.2-.8.6-1,1.2c-.1.4,0,1.8-.3,1.8s-.2-.9-.5-.9-.8.4-.9.4,0,0,0,0c0-.2.5-.8.5-1,0-.2-1.1-.3-1.1-.5s.4-.2.8-.3c.8-.1,2.1-.8,2.1-1.6s-.9-1.4-1.5-1.8c-.3-.2-.7-.4-.7-.5s.4-.1.6-.1c.2,0,.5,0,.5-.2s0-.4,0-.7,0-.3,0-.3c.2,0,.6.8.8.8.3,0,.6-.7.9-.7s.1,0,.1.2c0,.6-.3,1.3-.3,1.9"/>
      <path class="cls-1" d="M26,59.7c.8,0,.9.4.9.6,0,.4-.3.5-.6.5s-.5,0-.8,0-.7,0-1,.4c.2,0,.5.2.5.5,0,.9-2.6.2-2.6,2.6s1.3,2.7,3.4,2.7,1.7-.3,1.7-.7-.6,0-.6-.4.2-.3.2-.5,0-.2-.2-.2c-.3,0-.9.5-2,.5s-1.8-.5-1.8-1.2,0-.2.2-.2.2,0,.3,0,.1,0,.1-.2,0-.7.3-.7.9,1.1,3.2,1.1,2.2-.1,2.8-.6c0,1.8-1.4,4.2-4.4,4.2s-4.7-2.5-4.7-4.7,2-4.8,4.8-4.8,1.3.2,1.3.6-1.1.2-1.1.7ZM31,60.6c.1.2.2.4.2.5,0,.5-.3.9-.3,1.4s.4,1,1,1,1.1-.5,1.1-1.2-.8-1.6-2-1.7ZM25.6,61.7c.2.2.2.3.2.5,0,.2-.1.5-.1.8s.3.7.7.7.8-.4.8-.8c0-.6-.6-1.2-1.6-1.2ZM27.8,58.9c1.7.3,2.7,1.6,2.7,2.8s-.5,1.6-1.4,1.6-1.4-.6-1.4-1.5.5-1.4.5-2.1,0-.6-.3-.8ZM28.6,61c0,.2.2.4.4.4s.4-.2.4-.5-.3-.8-.6-.8,0,.2-.1.4c0,.2,0,.4,0,.5"/>
      <path class="cls-1" d="M10.5,44.2c.6,0,1.2-3,1.2-3.5s0-.2-.2-.2c-.5,0-1.2,2.9-1.2,3.5s0,.2.2.2ZM14.6,45.1c.4,0,.9-1.6.9-2.6s0-.4-.1-.4c-.3,0-.9,1.6-.9,2.5s0,.5.2.5ZM11.9,43.6c.2,0,.4-.2.8-.7,0-.2,0-.4,0-.7s-.1-.7-.3-.7c-.5,0-.7,1.3-.7,1.7s0,.4.2.4ZM14.1,43c0-.3,0-.3-.1-.3-.2,0-.3.2-.6.6,0,.6.1.9.3.9s.4-.6.4-1.1ZM15.4,41c1.1,0,1.6.9,1.6,2s-.1,1.1-.3,1.1-.2-.4-.2-.7c0-.4-.1-.5-.3-.5-.3,0-.5.7-.5,1.3s0,.8.4.8.3,0,.4-.2c0,.8-.6,1.4-1.4,1.4-1.4,0-2-1.7-2.1-2.7-.9.9-1.7,1.6-3.1,1.6s-1.9-1-1.9-1.9,0-1,.4-1,0,1.3.9,1.3.6-.2.8-.7c.1-.3.2-.7.2-1,0-.4,0-.7-.4-.7s-.6.2-.7.3c.4-1.2,1.3-1.8,2.4-1.8s2,1.1,2,2.4,0,.4,0,.6c.6-.9,1.3-1.6,2.2-1.6"/>
      <path class="cls-1" d="M12.3,45.4c-.7,0-.7.9-.7,2.6-.5-1.1-1.4-2.3-2.4-2.3s-.9.5-.9,1.3,0,.4,0,.6c0-.3.3-.4.7-.4.7,0,1.6.5,2.1,1.3-.6-.1-1.3-.2-1.8-.2s-.6,0-.9.1c-.5.2-1.1.9-1.1,2s0,.3,0,.5c.6-1.3,2.1-1.9,3.1-1.9s.3,0,.5,0c-.5.5-.6,1.3-.7,1.8,0,.3-.1.3-.3.3,0,.5.4,1.3.4,1.8s0,.3-.2.3c0,.7.7,1.2.7,1.7s0,.2,0,.3c0,.3.8.8.9,1,.1.3.3.4.3.4.3,0,.7-.3.7-.6s0-.2-.1-.3c-.3-.2-.5-.7-.6-1-.1,0-.3,0-.3-.2,0-.3,0-1-.2-1.3-.2,0-.3-.1-.3-.6s.1-1,.1-1.3c0,0-.2,0-.2-.3,0-.5.5-.9.7-1.6.9.7,1.2,1.4,1.2,2s0,.6-.1.9c.7-.3,1.7-.9,1.7-1.9s-.3-1.3-2.1-1.5c.6-.2,1.3-.3,1.9-.3,1,0,1.7.3,1.8,1.1.2-.3.4-.7.4-1,0-.8-.7-1.3-1.5-1.3s-1.9.5-2.8,1.2c.4-.9.7-1.4,1.2-1.4s.2,0,.2,0c-.2-.7-.9-1.4-1.3-1.4"/>
      <path class="cls-1" d="M39.9,57.2c.8,0,1.5,1.1,1.5,2.3s-.6,2.8-1.7,3.7c0-2.2-2.7-1.5-2.7-3.1s.5-1.1,1.1-1.1.9.1,1.2.4c-.3-.3-.4-.7-.4-1,0-.6.4-1.2,1.1-1.2"/>
      <path class="cls-1" d="M25.3,41.7c.4.4.8.6,1.3.6s.4,0,.5,0,.2,0,.2.2c0,.2-.2.5-.4.6.2,0,.4.1.6.1.9,0,2-.6,2-2.1.2.3.3.8.3,1,0,1.8-1.3,2.5-2.5,2.5s-1.2-.3-1.3-.3c-.3,0-.3.6-.5.6-.4,0-.7-.9-.7-1.8s.1-1.1.4-1.5ZM27.8,40.5c-.1-.2-.6-.3-.8-.3-.7,0-1.2.5-1.3,1,0-.2-.1-.4-.1-.6,0-.7.5-1.6,1.7-1.6s1.5.6,1.6.6.3-.2.5-.2.2.3.2.5c0,.7-.3,1.8-1,2.2-.1-.3-.4-.6-.8-.8-.1,0-.2-.1-.2-.2,0-.2.2-.4.4-.5"/>
      <path class="cls-1" d="M13.9,36.9c0,.6,2,3.4,2.4,3.4s.6-.6.6-1.1,0-.3,0-.4c-.3-.4-2.4-2-2.8-2s0,0,0,0ZM1.9,35.2c0,.3-1.2,1.4-1.7,1.4s-.2-.2-.2-.4c0-.3.1-.8.3-.9.2-.2.7-.3,1.1-.3s.5,0,.5.2ZM16.8,36.2c0-1-2.7-2.8-2.7-3.5,0,0,0-.1,0-.2.5-.5,2.3-.8,2.3-1.2s-.4-.2-.6-.2c-1.5,0-3.8.6-3.8,1.1s2,1.9,2,2.6-.1.2-.3.2c-.6,0-1.8-.7-2.3-.7s-.4.2-.4.4c0,.8.9,2.3.9,2.7s0,.1,0,.1c-.3,0-1.7-1.6-2.2-1.6s-.2.2-.2.6v.6c0,.4,0,.6-.2.6-.4,0-.6-1.2-1-1.2s-.5,2.1-.9,2.1,0-2.3-.5-2.3-1.1,1.6-1.4,1.6-.2-.1-.2-.2c0-.5.3-1.2.3-1.7s0-.4-.3-.4c-.5,0-1.6.8-2,.8s-.1,0-.1,0c0-.4,1.8-1.6,1.8-2.2s-2.5-.2-2.5-.8,1.8-1.1,1.8-1.6-2.1-.7-2.9-.7-1.5.1-1.5.4c0,.4,2.2.6,2.2.9s-2.3,1.3-2.3,1.9,3.2,0,3.2.5-2.8,3-2.8,3.8.1.3.3.3c.9,0,3.1-1.6,3.7-1.6s.2.3.2.5c0,.4-.1,1.1-.1,1.6s0,.6.4.6c.6,0,1.2-1,1.6-1s.2,3,1,3,.9-3.3,1.4-3.3.8.9,1.2.9.3-1.7.8-1.7,2.2,2,2.9,2,.3-.2.3-.4c0-.9-1.2-2.8-1.2-3.5s0-.2.2-.2c.6,0,2.5.9,3.4.9s.5-.2.5-.4ZM15.1,32.9c0,.3,1,.9,1.5.9s.4-.4.4-.8-.2-.5-.6-.5-1.2.1-1.2.3ZM11.3,31.3c0,0-.5-.2-1.2-.2-1.1,0-.9.9-1.7.9s-.6-.9-1.7-.9-1.3.1-1.3.3.8.1.8.7-1.7.7-1.7,1.1.1.2.3.2c.4,0,.9-.2,1.3-.2s.4,0,.4.3c0,.4-.9,1.1-.9,1.5s0,.1.2.1c.3,0,.9-.8,1.4-.8.9,0,.3,1.9.8,1.9s.3-1.8,1-1.8,1,1.3,1.4,1.3.2,0,.2-.2c0-.3-.5-1-.5-1.5s.2-.4.5-.4c.4,0,.9.2,1.2.2s.2,0,.2-.1c0-.4-1.5-.8-1.5-1.3s.8-.5.8-.7"/>
      <path class="cls-1" d="M40.3,33.9c0,1.5-1.1,2.6-3,2.9.2,0,.4,0,.6,0,2.2,0,3.1-1,3.1-1.9s-.3-.9-.7-1ZM37.5,35.6c0-1.2-2.8-1.5-2.8-1.7s1.6-.6,2.4-.6c-1.2-1.6-3-1.4-3-1.7s1.3-.5,2.5-.5,2,.2,2,1-.3.9-.3,1.5.2.7.7.7.6-.5.6-1.1,0-.8,0-1.1c0-.7.5-1.1,1.1-1.1s.7.2,1.5.2c-.4.3-.6.7-.6,1,0,.7.4,1.2.4,2.6,0,2.6-2.4,3.5-5.4,3.5s-1.7,0-2.5-.2c-.1,0-.2,0-.2-.1,0-.2,1.2-.3,1.2-1.4s-.1-.8-.1-.9,0-.1.1-.1c.2,0,.7.9,1.7.9s.9,0,.9-.8ZM40.2,32c0,.2.2.4.4.4s.4-.2.4-.4-.2-.4-.4-.4-.4.2-.4.4"/>
      <path class="cls-1" d="M38.8,47.1c0-.3-.9-.4-1-1.3,0-.1,0-.4-.2-.4-.3,0,0,.9-.4.9-.8,0-1-1.5-1.3-1.5s-.1,0-.1.2,0,.3,0,.5,0,.4-.2.4c-.4,0-.8-1-1.2-1s-.2,0-.2.1c0,.2.3.6.3.7,0,.4-1.1.2-1.1.5s.1.2.3.2c.3,0,.9-.1,1.2-.1s.4,0,.4.2-.6.5-.6.7,0,.1.2.1c.4,0,1.2-.8,1.8-.8s.3,0,.3.2c0,.2-.6.6-.6.9s0,.2.1.2c.3,0,.7-.8,1.2-.8s.5,0,.7,0,.2,0,.2-.1ZM39.2,55c.3-.8.6-1.4,1.1-2.3-.5-.3-2-.9-2-1.8s1.4-2,1.7-2,.2.1.2.3c0,.6-.3,1.5-.3,2s.3.9.6.9,1-1,1-1.9c0-1.7-1.5-2.3-2-2.3s-1.2.7-3.1.7c-3.5,0-4.3-3.5-4.3-5s0,0,0,0c0,0,.4.4,1.5.4s1.1-.1,1.9-.1c2,0,2.8,1.4,4,3.1.7.5,2.5,1.2,2.5,3.3s-2,2.8-2.4,4.8c.8,0,1.2-1.4,2-1.4s.6.3.6.8c0,.7-.4,1.8-1.2,2.5,0,0,0-.1,0-.2,0-.5-.2-1.1-.7-1.1-.8,0-1.1.9-1.5,1.6-.5-1.7-1.1-3.2-2.3-4.1-1.2-.9-3.2-.4-3.2-2.1s.3-1.1.3-1.6,0-.3-.1-.5c1.6.6,1,1.6,2,2.7.6.7,2.3,1.3,3.2,4.2,0,0,0-.3,0-.4,0-2.4-3.2-4.8-3.5-5.8,1.9.2,2.2.7,3.1,3.1.2.5.8,1.8.8,2.4"/>
      <path class="cls-1" d="M30.2,37.7c-1.1,0-1.9-.6-1.9-.9s0-.2.2-.2c.4,0,1.1.6,1.4.6s.1,0,.1-.1c0-.3-.3-.8-.3-1s0-.1.1-.1c.4,0,1.1.2,1.4.2s.1,0,.1-.1c0-.4-1.1-1.1-1.1-1.3s1.3-.5,1.3-.8-1.8,0-1.8-.4.3-.6.3-.8,0-.1-.2-.1-.9.3-1.3.3-.4,0-.4-.3c0-.4.6-.8,1.6-.8,1.6,0,2.6,1.1,2.6,3s-1.7,2.9-2.5,2.9ZM27,34.6c0-.2-.6-.5-.6-.7s0,0,0,0c.2,0,.5,0,.7,0s.2-.9.4-.9.3.9.5.9.6-.2.8-.2,0,0,0,0c0,.1-.4.6-.4.7s.9.3.9.5-.9.1-.9.3.3.6.3.7,0,0,0,0c-.1,0-.6-.2-.8-.2s-.5.7-.6.7,0,0,0-.1v-.7c0,0,0-.1-.1-.1-.2,0-.6,0-.7,0s-.1,0-.1,0c0-.1.7-.6.7-.7ZM26.6,37.3c.3,0,.3.6.4,1,0,.2,0,.2.1.2.2,0,.5-.8.7-.8.3,0,1.1.9,2.5.9,2,0,3.8-1.4,3.8-3.8s-1.7-3.8-4-3.8-1.9.5-2.3.5c-.3,0-.7-.6-.8-.6s-.2.2-.2.4,0,.8-.2.8c-.4,0-1.9-1.1-1.9-.7s1,1.5,1,1.8-1,.6-1,.8c0,.4,1.1.4,1.1.9s-1.1.8-1.1,1.2,1.1,0,1.1.4-.8,1.5-.8,1.8,0,0,0,0c.3,0,1.2-1.1,1.5-1.1"/>
      <path class="cls-1" d="M19.1,66c0,.1,0,.3-.2.5-.2-.3-.7-.5-.9-.5-1.7,0-1,2.4-2.8,2.4s-.8,0-1.1,0-.2,0-.2.1c0,.4.6,1.5,2.3,1.5s3.3-1,3.3-2.3,0-.4-.1-.7c0,0,.2-.2.4-.2.3,0,.4.3.7.3s.5-.2.5-.5-.1-.4-.3-.5c.1,0,.2-.3.2-.4,0-.3-.2-.5-.5-.5s-.2,0-.4.2c0-.3-.2-.6-.5-.6s-.4.2-.4.5.2.5.2.8"/>
      <path class="cls-1" d="M10.2,63c1.3.3,2,1,2.1,1.9.1.8.3,1.5.6,1.8.4.5,1.2.9,1.9.9s1.1-.2,1.1-.7-.8-1.9-2-1.9-.3,0-.4,0-.4,0-.5-.1c-.3-.2-.3-1.5-.8-2.2-.5-.8-1.1-1-1.9-1s-1.2.3-1.2.8.1.5,1.2.7ZM14.7,66.7c-.5,0-1.2-.5-1.2-.8s.2-.4.4-.4c.4,0,1.1.5,1.1.9s0,.3-.3.3"/>
      <path class="cls-1" d="M13.2,53.9c0-1,2.5-1.6,2.5-2.9s0-.6-.2-.9c.9.5,1.5,1.3,1.5,1.9,0,1.1-1.2,1.7-1.2,2.4s1.3.9,1.3,2-1.2,1.8-1.2,2.9.6,1.5,1.5,1.6c-.3,0-.6.1-.8.1-1.7,0-3.4-1.4-3.4-3s.3-1.5.9-2c.5.4.9.7,1.2.7s.4-.1.4-.3c0-.6-2.4-1.2-2.4-2.5ZM18.5,62.2c-.6.3-.8.2-.8.8s0,.5,0,.6,0,.3.3.3c.6,0,1.5-1,1.5-1.9s-.1-.3-.3-.3-.3.3-.7.4ZM18.4,61c0-.7-1.5-.8-1.5-1.9s.2-.8.5-1.3c.1.9.5,1.3,1.2,1.6,1.5.5,1.7,1.4,1.7,2.2,0,1.5-1,3.3-3.7,3.3s-3.7-1.9-3.7-3.5.1-.9.4-.9.3.2.5.4c.7.7,1.5.9,2.7.9s1.8-.4,1.8-.9"/>
      <path class="cls-1" d="M6.8,61.4c0,.3-.2.7-.5.7-.3,0-.7-.2-.7-.5,0-.3.2-.7.5-.7.3,0,.7.2.7.5ZM3.7,62c0,.6.6,1,1.2.9.2,0,.4,0,.5-.2.1.5.6.9,1.2.8.6,0,1-.6.9-1.2,0-.2,0-.3,0-.4,0,0,0,0,.1,0,.6-.1,1-.6.9-1.2,0-.6-.6-1-1.1-1-.2,0-.4.1-.5.2-.1-.5-.6-.9-1.2-.8-.6,0-.9.6-.9,1.2,0,0,0,.2,0,.3,0,0,0,0-.2,0-.5,0-1,.6-.9,1.2"/>
    </g>
  </g>
  <g id="Layer_4" data-name="Layer 4">
    <path class="cls-1" d="M60.4,47.9c-.1-.4-.5-1.2-.6-1.9-.2-1.4.5-2.3,1.2-2.5.8-.2,1,.2,1.3,1,.4,1.3.4,3.1.3,5.6-.2,3.4-1.9,7.6-6.2,7.5-3.7,0-5.3-2.5-5.5-6.1,0-1.7,0-3.4.8-5.9.4-1.3.7-1.8,1.9-2,.9-.2.8.8.6,1.9-.5,2.5-.7,3.7-.5,6.6.2,3,1.5,4.2,3.1,4.2,2.3,0,3.3-1.8,3.7-4.6.3-2.2,0-3.2-.1-3.9ZM108.6,50.9c.9,0,1.1,1,.9,1.7-.2.6-1,1.3-2.1,1.6-.3-.6-.4-3.2,1.2-3.2ZM92.3,52.3c0-.7-.4-1.3-.8-1.3s-1.3.4-1.3,1.8.4,1.5.5,1.8c1.2-.4,1.5-1.4,1.5-2.2ZM79.2,43.8c0-.7-.6-1.1-1.3-1.1s-1.5.8-1.5,1.9c0,.7.5,1.3,1.3,1.3s1.6-1,1.5-2ZM86,46.2c0-1.2-.4-1.7-1-1.7-.8,0-1.2,2.7-1,5.4.1,1.8.4,2.1.6,2.1.5,0,1.6-3.2,1.4-5.8ZM113.8,50.6c-.5,2.2-2.1,5.3-4.4,5.3s-1.5-.2-1.5-.8,3.7-.7,3.7-3.5-1-2.5-2.4-2.5-3.7,2.1-3.7,4.9,1.6,3.4,3.2,3.4c2.8,0,4.4-2.3,5.3-4.1.4,1.3.7,4.1,1.7,4.1s.7-.2,1.2-1.3c1.3-2.8,2.5-6,4.1-6s.3,1.1,1.8,1.1,1.2-.6,1.2-1.3c0-1-.9-1.7-2.2-1.7-3.9,0-4.8,5.9-5.4,5.9-1,0-.7-4.7-1.5-4.7s-1,.8-1.1,1.2ZM80.3,55.7c.6,0,1.7-.2,2.6-1.6-.5-1.1-.8-3.3-.9-4.1-.2-4.1,1.3-7.9,3-8,1.3,0,2.3,1.1,2.4,3,.3,5.1-1.4,7.2-2.2,9,.1.7,1.3,1.9,2.5,1.9s.9-.2,1-.4c0-.3-.2-.7-.2-1.2,0-2.9,1.9-5.4,3.5-5.4s2.1,1.7,2.1,2.9-1.1,2.4-2.8,3.5c.3.3.8.5,1.3.5,2.4,0,3.6-2.9,4.6-5.5.2-.5.5-1.2,1-1.2,1,0,1.4,6.6,3.1,6.6s1.3-1.5,1.3-2.6-.3-.9-.3-2.1.7-2.5,1.7-2.5.8.6.8,1.3c0,2.7-1.9,7.7-4.8,7.7s-2-3.7-2.7-3.7-2,3.7-6.2,3.7-1.4-.3-2-1c-1,.7-1.8,1-2.8,1-1.5,0-2.2-1.6-2.8-1.6s-1.6,1.6-4.1,1.6-2.3-2.7-3.1-2.7-1.6,2.7-2.6,2.7c-1.8,0-2.1-4.6-3.7-4.6s-5.1,4.7-6.1,4.6c-.4,0-.6-.4-.6-.8,0-.6.6-2.1.8-2.9.3-1.3.6-2.7.8-3.1.2-.4.6-.8,1-.7.2,0,.2.4.3.7.2,1,.5,2.1.8,2.1.6,0,2.5-3.7,3.7-3.7s1.6,5.9,3.4,5.9,1.1-.8,1.5-1.7c0-1.6.5-3.8,1.7-3.8s1.3,2,.7,3.7c0,2,1.3,2.6,2.2,2.6"/>
  </g>
</svg>