<?xml version="1.0" encoding="UTF-8"?>
<svg id="Layer_1" data-name="Layer 1" xmlns="http://www.w3.org/2000/svg" version="1.1" viewBox="0 0 125 96">
  <defs>
    <style>
      .cls-1 {
        fill: #fff;
        fill-rule: evenodd;
        stroke-width: 0px;
      }
    </style>
  </defs>
  <path class="cls-1" d="M72,37.8s-.2,0-.5,0c-.3,0-.5,0-.5,0s-.2,0-.3,0c-.2,0-.3,0-.3,0,0,0-.1,0-.3,0-.6,0-1.6.3-2.2.5-.1,0-.3,0-.3.1-.1,0-.1.1-.2,1.4,0,1.3,0,1.3.2,1.3,0,0,.2,0,.4,0,.5-.2.7-.2,1.3-.4.7-.2,1.5-.3,1.9-.4.7-.1,2.4,0,2.7,0,0,0,.2,0,.4.1.3,0,.5.2.8.4.2.1.3.3.4.7,0,.2,0,.3,0,.6v.3s-.3,0-.3,0c-1.2,0-2.5-.1-3.1,0h-.9c-.9.1-2.1.4-2.7.6-.8.3-1.5.9-1.7,1.4-.4.9-.5,2.2-.2,3.3.1.4.2.7.3.9,0,0,0,.2,0,.2,0,0,.8.8,1.2,1,.1,0,.2.1.2.1,0,0,0,0,0,0s.1,0,.3.1c.1,0,.3.1.5.2.1,0,.3.1.4.1,0,0,.4,0,.7.1.5,0,.6,0,2.1,0,1.5,0,2,0,2.5-.1.8-.2,1.1-.3,1.4-.4.6-.3.8-.4,1.1-.6.2-.2.5-.4.5-.6.2-.2.5-.9.6-1.2,0-.1,0-.3.1-.3,0-.1.2-1,.2-1.6,0-.5,0-2.2,0-2.7,0-.6-.1-1.2-.2-1.5-.2-.6-.3-.9-.5-1.3-.5-1.1-1.7-2-3-2.3-.2,0-.6-.1-1-.2,0,0-.2,0-.2,0-.1,0-1.8,0-1.9,0h0ZM87,38c-.5,0-.6,0-1.2.1-.5,0-.8.2-1.2.3-.2.1-.4.2-.7.4,0,0-.2,0-.3.2-.2.1-.7.6-1,1-.2.3-.6,1.1-.6,1.3s0,0,0,.1c0,.2-.3,1.1-.4,1.7,0,.5,0,.7,0,1.7,0,1.4,0,1.8.5,3,.1.4.3.8.7,1.2.2.3.7.8.9.9,0,0,.2,0,.2.1,0,0,.1.1.5.2.3.2.5.2.9.3.1,0,.3,0,.4.1.6.2,1.4.2,2.9.2,1,0,1.2,0,1.6,0,.7-.1,1.5-.3,1.9-.6.3-.2.5-.3.5-.3,0,0,.2-.1.3-.3.4-.3.5-.4.5-.5s0,0,0,0c0,0,.4-.5.4-.5,0,0,0,0,0-.1,0,0,0-.1.1-.2,0-.1.3-.7.3-.8s0,0,0,0c0,0,.3-1.2.4-2,0-.4,0-2.1,0-2.3,0,0,0-.2,0-.3,0-.9-.4-1.8-.7-2.3,0,0,0-.1,0-.1s0-.1-.2-.3c0-.1-.2-.3-.3-.4,0,0-.2-.2-.3-.3-.2-.2-.6-.5-.6-.5s0,0-.2-.1c-.2-.2-.7-.4-1.1-.5-.3-.1-.9-.2-1.6-.3-.4,0-2,0-2.6,0h0ZM102.3,38s-.1,0-.3,0c-.1,0-.4,0-.5,0-.1,0-.3,0-.3,0-.3,0-.9.2-1.2.4-.3.1-.9.6-1,.7-.2.2-.5.9-.6,1.1,0,.3-.1.7-.2,1.1,0,.4,0,9.1,0,9.1,0,0,3,0,3,0,0,0,0-2,0-4.3,0-2.4,0-4.4,0-4.4,0-.3.2-.6.2-.7.1-.1.4-.3.5-.4.4-.1.8-.2,1.7-.2,1,0,1.3,0,1.6.3.3.2.4.5.4,1,0,.2,0,2.2,0,4.4s0,4.1,0,4.2c0,0,0,.1.2.1.3,0,2.8,0,2.9,0,0,0,0-1.9,0-4.3,0-2.3,0-4.3,0-4.5,0-.1,0-.3,0-.4,0-.1,0-.2,0-.3,0-.1.3-.4.5-.5.5-.2,1.9-.2,2.7,0,.5,0,.9.4,1,.7.2.5.2.6.2,5.1,0,2.3,0,4.2,0,4.2,0,0,2.8,0,2.9,0h0s0-4.5,0-4.5c0-2.5,0-4.5,0-4.6,0-.9-.2-1.2-.4-1.7-.2-.4-.5-.7-.9-1-1-.7-1.9-.9-3.9-.8-.6,0-1.1,0-1.1,0,0,0-.2,0-.3,0-.4,0-.9.1-1.3.3,0,0-.3.1-.5.2-.3.2-.4.2-.6.2-.2,0-.3,0-.6-.2-.5-.2-.9-.4-1.5-.5-.8-.1-.9-.1-2-.1-.6,0-1.1,0-1.1,0h0ZM52.5,38.2c-.1,0-.2.1-.3.3,0,0,0,.1,0,.1s0,0-.1.2-.1.2-.2.2c0,0-.1.2-.2.2-.2.2-.3.3-.4.5,0,0,0,.1-.1.1s0,0,0,0,0,0,0,0,0,0,0,0,0,0,0,0c0,0,0,0,0,0s0,0,0,0c0,0-.6.8-.6.8s0,0,0,0c0,0,0,0,0,.1-.2.3-.4.5-.5.6-.1.2-.3.4-.4.4,0,0-.1-.2-.3-.4-.3-.4-.5-.7-.6-.8,0,0-.1-.1-.2-.2s-.2-.3-.3-.4-.2-.3-.2-.3-.2-.2-.3-.4-.3-.5-.4-.6c0-.1-.2-.3-.3-.4,0,0-.1-.2-.2-.2,0,0-.2-.3-.2-.3,0,0,0,0,0,0s-.9,0-1.9,0c-1.4,0-1.8,0-1.9,0,0,0,0,0,0,.2,0,.2,0,.2.5.7.2.2.4.5.5.6s.3.3.4.5c.1.2.3.4.3.4s0,.1.1.1c.1.1.4.5.6.7,0,.1.3.4.5.6.3.4.3.4.4.5,0,0,0,.1.1.1,0,0,0,0,.1.2,0,0,.1.2.1.2s0,0,.1.2.1.2.2.2c0,0,.2.2.2.3,0,.1.1.2.2.2s0,.1.2.2c.1.2.2.2.1.3-.2.3-.5.6-.6.7,0,0-.2.2-.2.2,0,0,0,.1-.1.2-.2.2-.4.5-.4.5s0,0,0,0c0,0-.3.4-.4.5,0,0,0,.1-.2.2,0,0-.1.1-.1.2s0,0,0,0c0,0,0,0-.1.2-.1.2-.3.4-.4.4,0,0-.1.2-.2.3-.2.3-.4.5-.5.6,0,0,0,0,0,.1s0,0,0,0,0,0,0,0,0,0,0,0,0,0,0,.1c0,0,0,.1-.1.2,0,0-.1.1-.2.2s-.1.2-.2.2c0,0-.1.2-.2.3s-.2.2-.2.3c0,0,0,0,0,.1s0,0,0,0c0,0-.1.2-.1.3s0,.1,0,.1c0,0,.9,0,1.9,0,1.8,0,1.8,0,1.8,0,0,0,.1-.1.2-.2,0,0,.2-.2.3-.3,0-.1.3-.5.4-.6,0,0,.1-.1.2-.3,0-.1.3-.3.4-.5s.2-.3.3-.4c0,0,.1-.1.3-.4.2-.3.4-.6.4-.6,0,0,.1-.1.2-.3.2-.3.4-.5.5-.5s0,0,.1.2c0,0,.2.3.3.4.1.1.3.4.4.6.2.3.3.5.4.6,0,0,.3.4.3.5s0,.1.1.2.2.2.2.3c0,0,0,.1.1.2.1.2.3.4.4.5,0,0,0,.1.1.2,0,0,.2.4.2.4s0,0,.1.1h.1c0,0,1.8,0,1.8,0,1,0,1.8,0,1.8,0,0,0,0,0,0-.2,0,0,0-.2,0-.2,0,0,0,0,0,0s0,0-.1-.1-.1-.2-.2-.2c0,0-.1-.2-.3-.4-.1-.1-.3-.3-.3-.4-.2-.3-.6-.8-.6-.8,0,0,0,0,0,0s0,0,0-.1-.2-.2-.3-.3c-.3-.4-.5-.6-.7-.9-.1-.2-.3-.3-.4-.5-.1-.1-.2-.3-.2-.3,0,0-.4-.5-.5-.6,0,0,0,0-.1-.1,0,0-.4-.5-.4-.5s0,0,0,0c-.3-.3-.5-.6-.5-.7s0,0,0-.1c0,0,0,0,0,0s0,0,0-.1.1-.1.2-.2c.1-.2.3-.4.5-.6.2-.2.2-.3.4-.5,0,0,.1-.2.1-.2,0,0,0-.1.2-.2s.2-.3.3-.4c.1-.2.2-.2.4-.5,0-.1.2-.2.2-.3,0,0,.1-.2.2-.3s.3-.3.4-.5c0-.1.2-.2.2-.3,0,0,.1-.1.2-.2s.2-.2.2-.2c0,0,0-.1.1-.2.1-.1.4-.5.6-.8.2-.2.3-.4.3-.6,0,0,0,0-.1-.1-.2,0-3.4,0-3.6,0h0ZM59.6,38.2c0,0,0,12.3,0,12.4,0,0,3,0,3,0,0,0,0-12.4,0-12.4,0,0-.7,0-1.5,0-1.5,0-1.5,0-1.5,0h0ZM120.8,38.2c0,0-.1,0-.1,0,0,0,0,2.8,0,6.2,0,5.6,0,6.1,0,6.1,0,0,.2,0,1.3,0,.7,0,1.4,0,1.5,0h.2v-12.4h-.2c-.2,0-2.6,0-2.7,0ZM89,40.6c1,0,1.6.4,2,.8.5.5.6,1,.7,2.4,0,1.8,0,2.8-.4,3.3-.2.3-.7.7-1.1.9-.6.3-1,.3-2,.3s-1.1,0-1.6-.2c-.4-.1-.8-.3-1.1-.6-.2-.2-.4-.6-.5-.9-.1-.5-.2-1.3-.2-2,0-1.5.1-2.3.4-2.8.1-.3.5-.7.6-.7.2,0,.4-.2.5-.3.1,0,.6-.2.9-.2.3,0,1.4,0,1.8,0h0ZM74.2,45.1c.2,0,.4,0,.5,0,0,0,.2,0,.4,0,.2,0,.3,0,.4,0s0,0,0,0c0,0,0,.9,0,1.4,0,.4-.2.8-.3,1-.1.2-.6.5-.8.6,0,0-.1,0-.2,0-.3.1-.9.1-2,.1-.6,0-1.1,0-1.2,0-.4,0-.8-.2-1.1-.3-.2,0-.4-.4-.5-.7-.1-.3-.2-1,0-1.2,0,0,.2-.4.4-.5.1-.1.6-.3,1-.4.3,0,1-.1,1.2-.1.3,0,2,0,2.4,0h0Z"/>
  <path class="cls-1" d="M16.7,27s-.4,0-.8,0c-2.6,0-5.4.5-7.1,1.1-1.7.6-3.1,1.4-4.2,2.6-.7.7-1.2,1.5-1.7,2.4-.8,1.5-1.1,3-1.5,5.8-.3,2-.3,3.5-.3,5.7,0,2.6.2,5,.7,7.6.3,1.9,1,3.5,2.1,4.9.4.5.4.5.8.9,1.4,1.4,3.1,2.4,5.1,2.9,1,.3,2.6.5,4,.6,1.4.1,3.2.2,5.6.2,4.7,0,7.7-.5,10.1-1.7,1-.5,1.9-1.1,2.7-1.9,1.2-1.2,2-2.4,2.5-4.2.6-1.9.9-3.6,1-6.1,0-.4,0-.8,0-.8,0,0,0-2.3,0-3.3,0-2.2-.1-3.9-.3-5.5-.3-2.1-.7-3.5-1.3-4.8-.6-1.1-1.2-2-2-2.8-.8-.8-1.7-1.4-2.7-1.9-1.8-.9-3.8-1.4-6.2-1.5-1,0-1.1,0-2-.1-.4,0-1,0-1.2,0-.4,0-3.2,0-3.2,0ZM19.8,37.9c.9.1,1.6.5,2.2,1.2.4.4.7.9.9,1.5.2.5.2.4.2,5.8s0,5,0,5.1-.1,0-1.6,0-1.5,0-1.6,0h0c0,0,0-4.5,0-4.5,0-4.2,0-4.5,0-4.7-.2-.7-.8-1.3-1.5-1.5-.2,0-.5,0-3.6,0-1.8,0-3.4,0-3.4,0s-.1,0-.1.1c0,0,0,1.5,0,5.3s0,5.2,0,5.3c0,0-.1,0-1.6,0s-1.5,0-1.6,0h0v-6.8c0-6.7,0-6.7,0-6.8,0,0,.1,0,5.9,0,4.9,0,5.9,0,6.1,0h0ZM29,37.9h0v13.4h0c0,0,0,.2,0,.2h-3.1c0,0,0-.2,0-.2v-13.4h0c0,0,0-.2,0-.2h3.1ZM17.1,43.2c0,0,0,.2,0,4.1s0,4.1,0,4.2c0,0-.1,0-1.7,0s-1.6,0-1.7,0c0,0,0-.1,0-4.1s0-4.1,0-4.1.1,0,1.7,0,1.6,0,1.7,0h0Z"/>
</svg>