<?xml version="1.0" encoding="UTF-8"?>
<svg id="Layer_1" data-name="Layer 1" xmlns="http://www.w3.org/2000/svg" version="1.1" viewBox="0 0 125 96">
  <defs>
    <style>
      .cls-1 {
        fill: #fff;
        stroke-width: 0px;
      }
    </style>
  </defs>
  <path class="cls-1" d="M106.7,39.2h-1.4l-8.6,13.5h7.3v2.9h2.6v-2.9h1.8v-2.8h-1.8v-10.8ZM104.1,50h-2.7s2.7-4.6,2.7-4.6v4.6Z"/>
  <path class="cls-1" d="M118,46v2.8h3.3v3.1c-.5.4-1,.6-1.6.8-.6.2-1.2.3-1.7.3-.8,0-1.5-.1-2.2-.4-1.3-.6-2.4-1.6-3-3-.6-1.4-.6-3,0-4.3.6-1.3,1.6-2.4,3-3,1.4-.6,2.9-.6,4.3,0,.7.3,1.3.7,1.8,1.2l2-2c-.8-.8-1.7-1.4-2.7-1.8-2.1-.8-4.4-.8-6.4,0-1,.4-1.9,1-2.7,1.8-.8.8-1.4,1.7-1.8,2.7-.4,1-.7,2.2-.7,3.3,0,1.1.2,2.2.7,3.3.4,1,1,1.9,1.8,2.7.8.8,1.7,1.4,2.7,1.8,2.1.9,4.4.9,6.4,0,1-.4,1.9-1,2.7-1.8h0v-7.4h-5.9Z"/>
  <polygon class="cls-1" points="1.8 43.1 14 43.1 1 60.7 1 62.9 20.9 62.9 20.9 59.1 7.5 59.1 20.2 41.4 20.2 41.4 20.2 41.4 20.2 41.4 20.2 41.4 20.2 39.2 1.8 39.2 1.8 43.1"/>
  <path class="cls-1" d="M53.2,43.6h6.8c2.5,0,4.6,1.1,4.4,4.5v14.9h4.4v-15.4c0-6-4-8.3-8.3-8.3h-12v23.7h4.7v-19.3Z"/>
  <path class="cls-1" d="M70.7,51.1c0,6.8,6.1,12.3,13.7,12.3,2.7,0,5.4-.7,7.7-2.1h0v-9.7h-4.5v7.3c-.9.3-1.9.4-2.9.4-5.1,0-9.3-3.8-9.3-8.4s4.2-8.4,9.3-8.4c2,0,3.9.6,5.6,1.7l1.8-3.3c-2.3-1.4-5-2.2-7.7-2.2-7.5,0-13.7,5.5-13.7,12.3"/>
  <path class="cls-1" d="M46.4,51.1c0-6.8-5.5-12.4-12.4-12.4s-12.4,5.5-12.4,12.4,5,11.8,11.3,12.3v-4.4c-4.4-.6-7.5-4.6-6.9-9,.6-4.4,4.6-7.5,9-6.9,4.4.6,7.5,4.6,6.9,9-.5,3.6-3.3,6.5-6.9,6.9v4.4c6.3-.5,11.3-5.8,11.3-12.3"/>
</svg>